<?xml version="1.0" encoding="UTF-8"?>
<svg width="368" height="112" version="1.1" viewBox="0 0 368 112" xmlns="http://www.w3.org/2000/svg">
 <title>Ministerul Educației</title>
 <g transform="matrix(.28221 0 0 -.28221 -65.196 142.4)">
  <path d="m547.32 384.99c43.436-64.914 25.903-153.3-39.003-196.74-64.943-43.414-153.32-25.882-196.73 39.046-43.443 64.943-25.912 153.29 39.01 196.73 64.933 43.428 153.32 25.889 196.72-39.04" fill="#fff" fill-rule="evenodd"/>
  <path d="m544.86 382.6c42.414-63.407 25.279-149.69-38.112-192.09-63.394-42.406-149.67-25.301-192.08 38.113-42.399 63.4-25.28 149.67 38.098 192.09 63.399 42.4 149.68 25.279 192.09-38.112" fill="#1b458f" fill-rule="evenodd"/>
  <g fill="#fff">
   <g fill-rule="evenodd">
    <path d="m502.34 197.16c-60.166-40.253-141.62-24.104-181.85 36.077-40.274 60.209-24.118 141.64 36.062 181.9 60.178 40.252 141.64 24.096 181.88-36.084 40.267-60.187 24.118-141.65-36.092-181.89m39.127 183.91c-41.259 61.701-125.24 78.365-186.96 37.098-61.687-41.266-78.343-125.26-37.076-186.96 41.264-61.702 125.25-78.368 186.97-37.078 61.68 41.251 78.344 125.23 37.062 186.94"/>
    <path d="m474.66 238.57c-37.318-24.985-87.826-14.944-112.81 22.367-24.953 37.334-14.927 87.841 22.405 112.8 37.313 24.955 87.818 14.951 112.79-22.383 24.956-37.305 14.937-87.832-22.383-112.79m25.485 114.87c-26.094 39.046-78.953 49.52-117.99 23.426-39.037-26.11-49.52-78.961-23.404-118.02 26.109-39.032 78.939-49.528 117.99-23.397 39.023 26.109 49.528 78.946 23.396 117.99"/>
    <path d="m321.26 311.34c2.867 0 5.189-2.308 5.189-5.19 0-2.858-2.322-5.19-5.189-5.19-2.859 0-5.197 2.332-5.197 5.19 0 2.882 2.338 5.19 5.197 5.19"/>
    <path d="m538.08 311.34c2.867 0 5.183-2.308 5.183-5.19 0-2.858-2.316-5.19-5.183-5.19-2.865 0-5.189 2.332-5.189 5.19 0 2.882 2.324 5.19 5.189 5.19"/>
   </g>
   <g>
    <path d="m346.06 350.88c1.073 2.065 1.58 3.836 1.948 6.064l-5.02 2.603c-0.934 0.499-1.353 0.485-1.97-0.338l-1.479-1.978-2.211 1.155 4.616 8.887 2.212-1.147-0.478-1.61c-0.308-1.052-0.029-1.273 0.898-1.757l6.6-3.426c-0.162-2.418-0.389-6.366-2.536-10.504-4.167-7.982-10.879-8.762-19.559-4.263-7.917 4.108-12.335 11.063-7.851 19.685 1.293 2.484 2.793 5.005 6.777 7.777l5.822-3.793-1.404-2.698-4.58 1.353c-1.83-1.441-2.955-2.522-4.373-5.234-1.537-2.933-1.338-4.741-0.765-6.454 0.632-1.999 5.189-5.365 8.027-6.843 6.226-3.235 12.275-3.359 15.326 2.521"/>
    <path d="m366.72 387.1c5.227-5.41 2.947-11.437-0.867-15.127-4.911-4.72-9.937-4.432-14.524 0.294l-11.239 11.687c-0.727 0.75-1.139 0.926-2.021 0.294l-1.882-1.279-1.727 1.817 7.637 7.364 1.735-1.808-1.36-1.837c-0.647-0.861-0.5-1.25 0.25-2.015l10.791-11.187c4.152-4.308 8.039-2.734 10.936 0.029 1.205 1.184 2.242 2.823 2.308 4.433 0.067 1.36-0.765 3.08-3.249 5.66l-10.547 10.952c-0.75 0.757-1.125 0.904-2.007 0.293l-1.881-1.286-1.756 1.809 7.526 7.241 1.742-1.81-1.344-1.837c-0.663-0.845-0.523-1.228 0.22-2.014z"/>
    <path d="m391.65 390.16-2.809-1.345-19.846 19.376c-1.103 1.125-2.036 0.92-3.035 0.558l-1.413-0.492-1.094 2.264 10.283 4.954 1.073-2.211-1.903-1.198c-0.765-0.479-1.008-0.78-0.765-1.266 0.118-0.234 0.33-0.513 0.617-0.807l15.319-15.511-3.352 21.303c-0.073 0.345-0.146 0.69-0.242 0.882-0.25 0.537-0.698 0.557-1.573 0.22l-2.124-0.735-1.074 2.205 9.52 4.61 1.072-2.25-1.338-0.86c-0.889-0.566-1.226-0.971-1.028-2.507z"/>
    <path d="m404.91 395.54-0.375 2.514 2.154 0.735c1.03 0.324 1.154 0.722 0.992 1.787l-3.3 21.442c-0.161 1.051-0.404 1.528-1.478 1.492l-2.256-0.081-0.361 2.36 21.59 3.293 0.859-7.256-2.682-0.425-0.721 2.91c-0.234 1.037-0.778 1.131-1.786 0.985l-9.74-1.5 1.507-9.864 9.843 1.492 0.47-3.058-9.835-1.507 1.728-11.166 9.769 1.493c1.02 0.169 1.484 0.396 1.411 1.47l-0.228 3.183 2.808 0.433 1.39-7.386z"/>
    <path d="m440.51 414.61 3.74-0.521c1.559-0.207 2.919-0.354 4.273 0.492 1.3 0.8 1.983 1.911 2.314 4.306 0.515 3.787-1.919 5.418-5.712 5.932l-3.137 0.441zm-1.684-12.246c-0.155-1.059 0-1.5 1.03-1.765l2.697-0.706-0.354-2.534-11.07 1.513 0.354 2.499 2.293 0.06c1.059 0.029 1.279 0.381 1.425 1.432l2.935 21.383c0.176 1.059 0.072 1.448-0.985 1.772l-2.176 0.683 0.346 2.471 11.07-1.529c5.799-0.794 9.372-3.074 8.598-8.895-0.843-5.968-6.064-7.101-8.76-7.115 0.868-0.331 1.757-1.603 2.374-2.984l3.632-7.881c0.866-1.822 1.969-2.557 3.02-2.683 0.456-0.065 1.25 0.045 1.529 0.074l-0.551-2.271c-0.375-0.214-1.684-0.684-3.448-0.42-2.27 0.302-3.499 2.235-4.431 4.212l-4.39 9.741c-0.44 0.918-1.052 1.859-2.351 2.043l-1.516 0.205z"/>
    <path d="m469.11 394.69c-0.515-0.933-0.573-1.353 0.295-2.015l1.785-1.41-1.212-2.199-9.3 5.087 1.192 2.19 2.161-0.735c1.014-0.36 1.338-0.102 1.852 0.825l10.358 18.986c0.515 0.933 0.609 1.456-0.273 2.08l-1.794 1.272 1.199 2.205 6.269-3.418 1.934-28.264 9.291 17.024c0.522 0.949 0.639 1.448-0.22 2.08l-1.823 1.279 1.205 2.199 9.196-5.021-1.182-2.197-2.082 0.83c-0.985 0.396-1.368 0.029-1.873-0.904l-12.535-22.92-3.278 1.794-1.895 28.219z"/>
    <path d="m510.51 369.02c-5.433-5.212-11.445-2.903-15.121 0.926-4.69 4.925-4.417 9.96 0.352 14.511l11.711 11.209c0.772 0.735 0.941 1.125 0.316 2.006l-1.294 1.898 1.823 1.727 7.359-7.674-1.824-1.728-1.844 1.36c-0.839 0.661-1.237 0.515-2.015-0.22l-11.225-10.755c-4.322-4.146-2.763-8.048 0-10.93 1.176-1.235 2.809-2.256 4.425-2.359 1.345-0.067 3.081 0.778 5.667 3.249l10.976 10.519c0.764 0.727 0.933 1.117 0.307 1.984l-1.257 1.897 1.788 1.741 7.232-7.549-1.808-1.727-1.838 1.36c-0.86 0.646-1.25 0.507-2.006-0.229z"/>
    <path d="m507.34 356.29 2.22 1.109 1.389-1.829c0.617-0.867 1.037-0.854 1.984-0.368l19.237 9.755c0.948 0.477 1.205 0.8 0.882 1.837l-0.684 2.161 2.235 1.153 4.918-9.709-2.22-1.139-1.484 2.072c-0.625 0.861-1.052 0.845-1.993 0.361l-20.501-10.379 3.83-7.549c0.463-0.913 0.837-1.279 1.837-0.883l2.962 1.22 1.273-2.542-6.587-3.617z"/>
    <path d="m331.92 264.17 1.691-3.499c0.706-1.47 1.338-2.698 2.838-3.403 1.441-0.669 2.771-0.604 5.027 0.463 3.529 1.697 3.529 4.71 1.845 8.269l-1.411 2.94zm-11.459-5.514c-0.992-0.449-1.287-0.844-0.955-1.882l0.933-2.727-2.367-1.131-4.969 10.371 2.308 1.117 1.382-1.924c0.64-0.905 1.065-0.898 2.044-0.42l20.022 9.607c0.994 0.456 1.265 0.794 0.957 1.86l-0.632 2.257 2.314 1.116 4.962-10.386c2.609-5.44 2.676-9.813-2.778-12.408-5.594-2.697-9.505 1.14-11.071 3.478 0.206-0.92-0.367-2.426-1.212-3.757l-4.69-7.586c-1.08-1.771-1.073-3.125-0.596-4.109 0.2-0.434 0.721-1.051 0.927-1.257l-2.265-0.823c-0.389 0.198-1.521 1.052-2.315 2.705-1.021 2.139-0.081 4.285 1.104 6.189l5.873 9.313c0.543 0.904 1.006 1.956 0.411 3.183l-0.677 1.412z"/>
    <path d="m355.96 242.25c-2.323-0.169-6.601-3.117-9.379-5.91-5.535-5.601-6.373-11.525-1.706-16.141 2.007-1.999 4.035-3.081 6.352-2.912 2.315 0.162 6.607 3.125 9.362 5.91 5.536 5.601 6.373 11.548 1.72 16.15-2.022 1.999-4.019 3.057-6.349 2.903m-14.481-23.249c-6.585 6.534-4.329 13.826 2.293 20.522 5.837 5.888 14.334 8.564 21.948 1.006 6.557-6.518 4.315-13.841-2.308-20.499-5.856-5.895-14.34-8.557-21.933-1.029"/>
    <path d="m366.44 198.47 0.963 2.41 2.286-0.492c1.088-0.25 1.294 0.043 1.786 1.044l9.82 20.552c0.288 0.771 0.103 1.22-0.75 1.706l-2.013 1.087 0.948 2.381 8.122-3.234-1.404-26.983 16.649 20.957 8.616-3.427-0.963-2.41-2.36 0.661c-1 0.25-1.426 0.097-1.793-0.794l-6.712-21.684c-0.323-1.066-0.367-1.405 0.581-1.992l2.249-1.286-0.969-2.411-10.38 4.115 0.948 2.42 2.286-0.625c0.942-0.243 1.39 0.051 1.698 0.83l6.792 21.472-17.619-21.744-2.882 1.155 1.235 28.233-9.246-20.42c-0.281-0.853-0.206-1.368 0.698-1.868l2.036-1.088-0.963-2.396z"/>
    <path d="m428.82 210.5-0.463-1.963-4.169-12.371 9.461 0.08-4.329 12.298zm1.963 8.916 5.027-4.889-1.653-1.175-5.028 3.837-4.896-3.903-1.72 1.169 4.998 4.932zm-3.617-5.167 4.079 0.044 9.556-26.522c0.529-1.542 0.993-1.8 2.117-2.005l1.691-0.273 0.015-2.588-11.225-0.081-7e-3 2.485 2.397 0.412c0.778 0.139 1.132 0.485 1.132 1.074 0 0.25-0.059 0.514-0.199 0.852l-1.956 5.55-11.605-0.088-1.787-5.448c-0.125-0.345-0.162-0.645-0.162-0.911 0-0.668 0.397-1 1.184-1.124l2.373-0.383 0.015-2.491-10.489-0.067-0.03 2.581 1.676 0.322c1.088 0.207 1.508 0.478 2.029 2.03z"/>
    <path d="m466.28 192.92c0.42-1.015 0.706-1.315 1.794-1.088l2.279 0.479 0.963-2.412-10.173-3.962-0.949 2.389 2.015 1.212c0.954 0.573 0.985 0.992 0.572 2.008l-8.106 20.721c-0.413 1.014-0.765 1.441-1.832 1.161l-2.219-0.573-0.942 2.38 6.836 2.692 23.581-17.142-7.283 18.597c-0.397 1.022-0.713 1.464-1.779 1.184l-2.212-0.595-0.949 2.403 10.062 3.947 0.934-2.404-2.029-1.065c-0.956-0.522-0.911-1.08-0.537-2.103l9.806-25.02-3.55-1.406-23.559 17.151z"/>
    <path d="m510.81 212.96-8.571-6.792-1.595 2.021 1.595 1.742c0.734 0.816 0.625 1.243-0.067 2.089l-13.783 17.382c-0.697 0.883-1.08 1.059-2.028 0.537l-2.073-1.147-1.595 2.022 8.57 6.806 1.581-2.021-1.558-1.763c-0.772-0.81-0.647-1.221 0.029-2.066l13.812-17.414c0.684-0.845 1.058-1.05 2.006-0.515l2.08 1.133z"/>
    <path d="m522.23 223.7-2.117 1.564 1.051 2.088c0.523 0.985 0.316 1.36-0.565 2.007l-17.922 13.32c-0.882 0.654-1.403 0.83-2.168 0.036l-1.581-1.705-1.969 1.455 13.4 18.046 5.88-4.705-1.683-2.242-2.595 1.604c-0.933 0.595-1.396 0.285-2.014-0.56l-6.035-8.152 8.225-6.115 6.103 8.204 2.564-1.898-6.095-8.21 9.322-6.939 6.094 8.174c0.625 0.839 0.787 1.367-0.037 2.073l-2.477 2.175 1.749 2.368 6.358-4.426z"/>
    <path d="m546.41 265.53-4.079-10.166-2.389 0.955 0.499 2.302c0.243 1.087-0.051 1.396-1.072 1.786l-20.627 8.239c-1 0.391-1.433 0.391-2.006-0.557l-1.221-2.007-2.403 0.956 4.065 10.143 2.388-0.948-0.492-2.294c-0.25-1.073 0.052-1.389 1.072-1.794l20.627-8.239c1.007-0.412 1.449-0.39 2.006 0.566l1.228 1.999z"/>
   </g>
   <g fill-rule="evenodd">
    <path d="m440.14 304.07-0.258-0.14 0.118-0.271-0.352 0.029-0.097-0.374-0.374 0.169-0.316-0.243-0.273 0.227-0.345-0.153-0.102 0.301-0.368-0.015 0.051 0.31-0.353 0.065 0.088 0.294-0.315 0.214 0.265 0.191-0.126 0.293 0.286 0.169v0.294l0.346 0.045 0.081 0.308 0.375-0.117 0.234 0.257 0.251-0.257 0.345 0.117 0.097-0.308 0.315-7e-3 0.03-0.317 0.359-0.095-0.066-0.309 0.288-0.214-0.288-0.205zm8.731-0.16c0.097-0.993-2.351-1.067-2.461 0.594 0.058 1.684 2.432 1.706 2.432 0.764-0.72 0.119-1.131-0.212-1.131-0.764 0.052-0.434 0.426-0.736 1.16-0.594m-44.912 2.822h25.338l0.052 0.088-0.052 23.64h25.83l0.03-23.67-24.97-0.029 7e-3 -0.029c1.375-4.83 2.661-8.887 3.963-12.305h8.158v1.3c-0.404-0.573-0.999-0.463-1.308 0.155-0.5-0.485-1.045-0.375-1.242 0.257-0.464-0.484-1.132-0.412-1.309 0.324-0.243-0.808-0.654-1.331-1.675-1.271-0.971-0.288-1.25-0.252-1.494-0.038-0.764-0.257-0.984-0.257-1.277-0.124l1.821 6.064c0.34 1.117 1.06 1.654 2.559 1.404 1.316-0.228 1.258-1.536 0.963-2.404 0.985-0.184 1.654-0.227 2.705-0.265 0.052 0 0.097 0 0.117 0.015-0.052 0.014-0.095 0.023-0.153 0.023 0.47 0.389 0.536 0.573 0.756 0.999h-0.477c0.492 0.411 0.596 0.551 0.786 0.955-0.375-0.242-1.537-0.955-1.977-0.228 0.014 0.111 1.257 0.206 1.367 0.471-0.051 0.044-0.029 0.103-0.051 0.154-0.581 0.192-0.993 0.088-1.44-0.088-0.169 0.713 0.226 1 1.557 0.986 2.8 0.83 2.155-0.149 3.014-1.537-0.155 0-0.375 0.029-0.537 0.029 0.222-0.419 0.302-0.559 0.634-0.918-0.252 0.066-0.428 0.109-0.596 0.109 0.168-0.419 0.264-0.543 0.499-0.889-0.029 0-0.074-7e-3 -0.146-0.043 0.042 0 0.072-9e-3 0.117-0.023 0.764 0.176 1.234 0.257 1.75 0.455-0.399 0.845-0.464 1.912 0.977 2.287 1.007 0.235 1.823-0.228 2.168-0.905l3.301-6.549c-0.11-0.235-0.419-0.235-1.455 0.022-0.353-0.183-0.553-0.214-1.36 0.11-0.729-0.132-1.176 0-1.779 1.309-0.096-0.648-0.514-0.801-1.133-0.302-0.146-0.69-0.683-0.801-1.147-0.198-0.131-0.661-0.616-0.809-1.167-0.346l0.131-1.3 9.291-8e-3v-1.925h0.038v-4.616c-0.097-5.411-8.212-7.77-12.526-9.432-4.647 4.764-8.674 12.02-13.29 28.189-1.537-5.372-2.978-9.761-4.381-13.392l-1.14-0.102v1.16h-0.727c0.448 0.986 0.337 1.39 0.499 2.213 0.104 0.508 0.61 0.456 0.655 0.118 0.396 0.478-0.184 1.081-0.772 0.55-0.206 0.405-0.213 0.492-0.059 0.875 0.235 0.206 0.72 0.184 0.735-0.234 0.529 0.338-0.198 1.726-1.154 0.596-0.205 0.263-0.28 0.44-0.28 0.674 0.325 0.376 0.619 0.31 0.669-0.043 0.538 0.419-0.344 1.3-0.985 0.581-0.594 1.059-1.028 3.602 0.472 3.947 0.866 0.177 1.358-0.147 1.77-0.735 0.052-0.242 0.294-0.676-0.162-0.844 0.09-0.178 0.214-0.259 0.412-0.318-0.646-0.447 0.323-1.513 0.323-2.05 0.229 0.308 0.317 0.493 0.229 0.78 0.117-0.126 0.103-0.199 0.153-0.383 0.295 0.383 0.045 0.662-0.05 0.918 0.147-0.132 0.183-0.227 0.3-0.359 0.156 0.735 0.052 0.859-0.153 1.117 0.221 0.036 0.257 0.198 0.382 0.36-0.705 0.066-1.088 1.624-2.014 1.97-2.646 0.787-3.352-1.676-2.609-3.866 0.302-0.935 0.956-2.381 1.213-3.294 0.161-0.574 0.154-1.367-0.347-2.573h-0.853v-1.16h-1.153c-1.801 1.573-2.345 3.13-3.44 4.336 0.36-0.234 0.861-0.603 1.515-0.639-0.258 0.405-0.537 0.566-0.537 1.059 0.567-0.618 1.404-0.611 1.889-0.464-0.618 0.485-1.022 0.794-1.051 1.89 0.522-0.42 0.713-0.641 1.051-1.024 0.528 1.001 0.221 1.523-0.266 2.213 0.435-0.323 0.354-0.139 0.839-0.25-0.169 0.442-0.074 0.494-0.499 0.882 0.425-0.169 0.249 0 0.594 0-0.14 0.302-0.036 0.493-0.58 0.81 0.375 0 0.375 0.176 0.544 0.352-1.25 0.383-0.499 0.839-1.875 1.309 0.413 0.625-0.514 1.044-0.83 0.419-0.236 0.103-0.236 0.183-0.486 0.221 0.118 0.889-1.05 0.801-0.904 0-0.639-0.185-0.837-0.221-1.315-0.471-0.066-0.154-0.075-0.279-0.066-0.47-0.566-0.309-0.78-0.42-1.434-0.625-0.264 0-0.316-0.236-7e-3 -0.236 0-0.147 0.081-0.713 0.139-0.97 7e-3 -0.184 0.125-0.161 0.148-0.015 0 0.067 0.477 0.434 0.662 0.45 0.014 0.19 0.103 0.19 0.117 0 0.154-0.059 0.265-0.214 0.256-0.774-2.021 0.178-2.293 0.178-2.446 0.56-0.097 0.463-0.419 0.36-0.178-0.125 0.081-0.257 0.178-0.435 2.522-0.617-0.199-0.192-0.426-0.243-0.904-0.272 0 0.213-0.11 0.213-0.118 0-0.052 0-0.104-0.081-0.104-0.236-0.094-0.104-0.16-0.228-0.16-0.228-0.471 0.059-0.787 0.316-1.558 0.228-0.861 1.139-2.03 0.508-3.168 2.44l-0.03-0.014h0.014l0.346 0.175 0.412-0.749 0.426 0.214-0.426 0.742c1.551 0.648 2.536 0.955 4.417 1.007 0.582 0.611 0.896 0.86 1.448 1.478-2.544 0.176-4.028-0.648-6.101-2.015l-0.043-7e-3 -0.463 0.808-0.412-0.205 0.263-0.456c-0.219 0.265-0.595 0.485-1.02 0.265-0.493 0-0.736-0.067-0.911-0.434-0.603-0.073-0.618-1.154-0.149-1.345l0.03 0.014v-0.014l-0.256-0.14 0.249-0.397 0.573 0.287c8e-3 -0.28 0.059-0.397 0.272-0.552 0.118 0.089 0.25 0.184 0.39 0.303 0.059-0.391 0.096-0.67 0.287-1.089 0.14 0.133 0.235 0.205 0.345 0.324 0.015-0.507 0.052-0.683 0.161-1.081 0.162 0.155 0.324 0.301 0.457 0.398-0.059-0.515-0.059-0.862 0.227-1.111 0.11 0.184 0.11 0.324 0.169 0.522 0.236-0.228 0.493-0.522 0.934-0.713 0.022-0.088 0.176-0.227 0.228-0.316-0.265-0.25-0.427-0.302-0.801-0.354 0.396-0.293 0.595-0.293 1.102-0.153-0.213-0.229-0.316-0.463-0.609-0.573 0.366-0.081 0.573-0.081 0.91-0.081-0.889-0.016-1.382-0.155-2.293-0.861 0.095 0.382 0.309 0.845-0.065 0.75-0.178-0.081-0.331-0.044-0.508 0.111-0.214 0-0.185-0.265-0.185-0.567-0.029 0.456-0.132 0.853-0.462 0.722-0.095-0.2-0.228-0.31-0.588-0.266-0.088-0.088 0-0.235 0.088-0.339 0.051-0.036 0.126-0.117 0.177-0.169 0 0-0.111 0.068-0.177 0.169-0.176 0.156-0.331 0.2-0.463 0.032 0.038-0.295 0-0.376-0.14-0.538 0.065-0.25 0.097-0.198 0.603-0.213-0.425 0-0.538-0.059-0.655-0.265 0.214-0.198 0.288-0.426 0.25-0.691 0.346-0.198 1.104 0.184 1.406 0.493 0.065-0.147 0.065-0.325 0-0.507 0.625 0.162 1.094 0.463 1.218 0.646 0.059-0.183-0.058-0.315-0.029-0.595 0.36 0.111 0.573 0.147 0.816 0.433-0.065-0.205-0.088-0.302-0.146-0.536 0.47 0.117 0.587 0.14 0.866 0.536-0.043-0.286-0.014-0.286 0-0.484 0.544 0.257 0.625 0.234 0.956 0.646-0.088-0.338-0.073-0.367-0.051-0.632 0.494 0.265 0.662 0.375 0.816 0.793 0.066-0.161 0.044-0.3 0.096-0.55 0.286 0.162 0.462 0.323 0.697 0.654 0.031-0.146-0.117-0.331-0.117-0.537 0.382 0.089 0.588 0.206 0.764 0.472 0.442-1.494 2.405-1.494 2.713-2.346v-0.822h-2.425v1.13h-2.514v-1.16h-2.442v1.16h-2.586v-1.16h-2.779zm1.684 4.306v11.785c0 1.815 1.433 3.535 3.47 3.117 1.653-0.353 2.418-1.141 1.653-2.757 1.044-0.632 1.778-0.905 3.256-1.162 0.214 0.42 0.552 0.933 0.89 1.331-0.207-0.052-0.301-0.052-0.507-0.088 0.469 0.463 1.022 0.587 1.124 1.036 0.067 0.264-0.249 0.794-0.477 0.947-0.198-0.051-0.441-0.029-0.647-0.029v-1.044h-0.625v1.302c-0.192-0.103-0.316-0.242-0.404-0.441-0.478 0.779-0.132 1.22 0.418 1.455-0.014 0.507 0 0.868-0.014 1.361-0.257 0-0.581-0.038-0.941-0.112 0 0.236-0.036 0.523-0.036 0.735 0.441-0.05 0.544-0.065 0.977-0.05 0 0.293-0.111 0.684-0.162 0.97 0.323-0.023 0.618-7e-3 0.941 0-0.044-0.309-0.154-0.625-0.154-0.97 0.449-0.015 0.595 0.021 0.955 0.088 0-0.295 0.015-0.492 0-0.699-0.272 0.038-0.691 0.038-0.955 0.067 0-0.324 0.029-0.956 0.029-1.243 0.125 0.036 0.235 0.058 0.339 0.058l0.013 9e-3h9e-3c0.36 0.756 1.676 0.955 2.506 0.771 1.14-0.265 1.023-1.573 2.036-2.138-0.33-0.09-0.368-0.17-0.589-0.038 0.118-0.573 0.406-0.697 0.552-1.161-0.272 0.052-0.293 0.052-0.493 0.088 0.266-0.375 0.493-0.809 0.582-1.147-0.287 0.037-0.316 0.059-0.544 0.059 0.183-0.323 0.441-0.86 0.47-1.169 1.477 0.089 2.168 0.229 3.043 0.758-0.565 1.529-0.661 2.462 1.367 3.109 1.529 0.272 3.639-0.088 3.639-3.395v-11.101c0.022-0.896 0.147-1.337 0.632-1.845-0.763 0.185-1.352 0.471-2.101 1.86-0.457 0.036-0.884 0.324-1.568 1.543-1.344 0.413-1.461 0.449-1.461 4.764-0.133-0.382-0.272-0.382-0.7-0.55-0.505 0.08-0.683 0.344-0.851 0.602-0.117-0.317-0.228-0.449-0.625-0.493-0.169 0.096-0.295 0.162-0.529 0.412 0.412-0.677 1.344-2.147 2.005-3.154-0.44 0.125-0.564 0.148-1.02 0.258 0.757-1.346 0.903-1.632 1.882-3.184 0.072-0.153 0.133-0.095 0.286-0.095 0.559-0.058 0.706 0.295 1.043-0.029 0 0-7e-3 -0.029-7e-3 -0.038l7e-3 9e-3c0.324 0.11 0.721-0.045 0.618-0.625-0.125 0.175-0.213 0.279-0.515 0.243 0 0 0-0.052-7e-3 -0.081-0.485-0.162-0.404 0.153-0.985 0.029 0.405-0.485 0.853-0.346 0.92-0.853 0-0.066-9e-3 -0.11-0.061-0.132l0.023-0.096c0.236-0.243 0.178-0.566-0.043-0.853-0.126 0.648-0.339 0.529-0.391 0.655l-0.043 0.022c-0.015-0.022-0.096-0.029-0.191-9e-3 -0.684 0.537-0.214 0.677-0.521 1.097-0.111 0.044-0.133 0.065-0.208-0.022-0.22-0.706 0.346-0.787-0.22-1.302-0.08-0.014-0.125-7e-3 -0.184 0 0.089-0.242-0.36 0-0.383-0.647-0.521 0.39-0.388 0.692-0.146 0.78l-0.015 0.022c-0.021 0.043-0.102 0-0.132 0.059 0.03 0.301 0.514 0.587 0.743 1.088 0 0.087 0 0.087-0.132 0.132-0.632-0.22-0.295-0.442-1.031-0.53-0.05 0.029-0.08 0.067-0.08 0.074-0.095-0.206-0.396 0.03-0.419-0.47-0.323 0.264-0.162 0.845 0.192 0.845 0.052 0-0.081 0.073 0 0.162 0.205 0.235 0.515 0.043 1.043 0.309 0.117 0.058 0.058 0.103 0.058 0.103-0.586 0.845-1.557 1.962-2.021 2.836-0.023-0.455-0.14-0.904-0.337-1.073-0.471 0.927-0.677 1.235-1.324 2.258-0.111-0.184-0.066-0.126-0.241-0.236-0.126 0.015-0.251 0.139-0.354 0.161 0.514-2.484 0.735-3.021 2.014-5.101-0.302-0.242-1.236-0.522-1.631-0.75 0.146-0.287 0.323-0.499 0.513-0.786-0.749-0.448-1.154-0.646-2.263-1.022-1.074 0.331-1.441 0.515-2.514 1.022 0.205 0.308 0.374 0.625 0.485 0.919-0.75 0.375-1.132 0.544-1.985 0.926 1.905 2.485 2.095 2.778 2.793 4.786-0.102-0.045-0.183-0.074-0.346-0.155-0.036 0.081-0.182 0.316-0.25 0.389-0.55-0.999-0.654-1.014-1.389-1.831-0.176 0.236-0.242 0.324-0.242 0.603-0.191-0.191-1.051-0.999-2.654-2.593 0 0-0.029-0.097 0.074-0.133 0.493-0.265 0.852-0.089 1.03-0.287 0.029-0.081 0.029-0.124 7e-3 -0.147h-0.066c0.301-0.155 0.558-0.625 0.272-0.852-0.016 0.492-0.339 0.286-0.413 0.455v8e-3c-0.014-0.022-0.021-0.044-0.088-0.052-0.249 8e-3 -1.183 0.684-1.183 0.345 0.228-0.47 0.729-0.735 0.758-1.021-0.029-0.066-0.295 0-0.171-0.088 0.171-0.096 0.383-0.411-0.124-0.735-0.022 0.529-0.359 0.425-0.411 0.535-7e-3 0.031-0.029-0.021-0.052 9e-3 -0.427 0.072-0.126 0.632-0.346 1.3-0.058 0.104-0.081 0.096-0.198 0.045-0.353-0.39 0.154-0.544-0.544-1.037-0.117-0.036-0.169-0.029-0.22 0-0.03-0.198-0.257 0-0.375-0.676-0.25 0.294-0.345 0.61-0.044 0.86 0.065 0.066-0.044 0.052-0.081 0.183 0.087 0.472 0.544 0.361 0.911 0.832-0.535 0.103-0.463-0.14-0.926 0.036-0.331 0.058-0.435-0.036-0.559-0.243-0.132 0.566 0.286 0.735 0.611 0.625l0.014-7e-3c-0.014 7e-3 -0.014 0.014-0.014 0.014 0.359 0.339 0.485-7e-3 1.065 0.038 0.162 0 0.198-7e-3 0.302 0.11 0.427 0.434 2.198 2.543 2.639 3.043-0.346-0.133-0.551-0.095-0.949 7e-3 0.411 0.581 1.03 1.859 1.574 2.859 0 0.023-0.191-0.382-0.515-0.477-0.339 0.095-0.449 0.212-0.61 0.529-0.235-0.375-0.352-0.353-0.735-0.61-0.368 0.125-0.559 0.235-0.772 0.558-0.183-1.69-0.368-3.278-1.485-3.939-0.257-0.978-0.595-1.471-1.735-1.97-0.213-0.852-0.845-1.713-1.948-2.095 0.22 0.462 0.339 0.764 0.449 1.263m2.499 17.886 0.33 0.213v0.36l0.36 0.036 0.097 0.36 0.425-0.154 0.259 0.302 0.256-0.302 0.39 0.154 0.103-0.36 0.359-0.036v-0.346l0.413-0.117-0.089-0.398 0.31-0.212-0.287-0.265 0.117-0.279-0.286-0.17 0.11-0.345-0.383 0.022-0.103-0.397-0.389 0.198-0.367-0.286-0.287 0.243-0.375-0.178-0.125 0.353-0.375-0.013 0.045 0.352-0.383 0.08 0.073 0.361-0.345 0.264 0.316 0.2zm12.084 0.315c0 0.802 3.125 1.14 3.198-0.918-0.125-2.008-3.198-1.713-3.198-0.765 0.972-0.522 1.626 0.183 1.655 0.765-0.029 0.565-0.794 1.228-1.655 0.918m18.906-50.91c-0.763-0.096-2.241-0.206-3.028 0.617-1.073-0.949-2.366-1.279-3.477-0.979h-0.051c-0.729-0.645-1.639-0.343-0.713 0.266-0.758 0.154-1.824 0.479-1.824 1.324 0.119 0.293 0.456 0.315 0.736 0.014l0.045 0.016c0.411 0.271 0.285 0.124 0.521 0.55-1.434 1.5 2.272 2.859 1.39 3.484-0.427 0.345-0.787-0.104-1.03-0.441-0.405 0.705 0.162 1.368 1.279 1.368-0.375 0.831-1.072 2.299-1.785 3.131-0.612 0.736-1.156 2.212-0.832 4.079 0.699 3.124 0.103 2.566-0.111 3.47-0.271 1.102 0.068 1.558 1.015 2.051-0.632-1.06 1.771-1.698 0.839-3.323 2.778-0.463 0.932-2.756 1.733-3.984-2.042 0.736-0.83 2.279-2.051 2.308-0.726 0.036 2.067-3.888 2.074-4.16 0.117 0.176 0.236 0.221 0.514 0.243 0.192 0.183 0.354 0.257 0.604 0.257-0.096-0.918-0.096-1.044-0.037-1.89 0.787-1.014 1.477-1.947 1.779-2.601 0.499-1.023 0.535-2.78-0.185-4.345 0.801 0.448 1.213 0.486 1.802 0.904 0.117-0.264 0.147-0.551 0.095-0.771 0.346-0.045 0.522 0 1.052-0.427-0.442-0.095-0.891-0.228-1.088-0.537 0.307 0 0.676-0.293 0.734-0.624m-11.82-0.096c0.809-0.551 0.038-0.852-0.691-0.266h0.016l-0.081 0.03c-1.133-0.315-2.536 0-3.661 0.949-1.014-0.979-2.322-0.853-3.337-0.927 0.088 0.412 0.434 0.693 0.904 0.774-0.259 0.454-0.566 0.535-1.021 0.631 0.396 0.309 0.69 0.28 1.145 0.448-0.065 0.236-0.094 0.552 0 0.816 0.612-0.418 1.052-0.456 1.868-0.904-0.742 1.565-0.712 3.322-0.198 4.345 0.374 0.742 1.241 1.852 2.197 3.013l-0.345-0.412c0.08 0.846 0.08 0.972-8e-3 1.89 0.279 0 0.428-0.074 0.625-0.257 0.286-0.022 0.405-0.067 0.529-0.243 1.772 2.161 3.36 4.196 2.176 4.16-1.286-0.029-0.015-1.572-2.153-2.308 0.815 1.228-1.089 3.521 1.814 3.984-0.999 1.625 1.5 2.263 0.861 3.323 0.985-0.493 1.302-0.949 1.05-2.051-0.212-0.904-0.866-0.346-0.124-3.47 0.338-1.867-0.227-3.343-0.867-4.079-0.728-0.832-1.448-2.3-1.831-3.131 1.17 0 1.743-0.663 1.331-1.368-0.278 0.337-0.618 0.786-1.072 0.441-0.905-0.625 2.91-1.984 1.432-3.484 0.25-0.426 0.111-0.279 0.567-0.55l0.029-0.016c0.293 0.301 0.625 0.279 0.787-0.014 0-0.845-1.133-1.17-1.942-1.324m-10.644 5.388h-0.036l0.036 3.955 0.853 1.102 1.522 0.684 1.53-0.617 0.88-1.169 0.325-1.354c-0.632-1.146-1.228-2.204-1.86-3.181-0.36 0.154-0.751 0.345-0.94 0.573-0.53-0.81-1.655-0.618-2.31 7e-3m-4.931-0.088h-0.023c-0.896-0.47-1.926-0.39-2.5 0.456-0.763-0.883-1.681-0.883-2.475-0.375h-0.023v3.991l1.08 1.331 1.499 0.404 1.604-0.543 0.838-1.25zm-3.374-3.558c7.012-2.263 13.988-4.661 20.964-7.027 7.829 2.359 25.956 6.982 27.064 13.407v0.016c0.061 0.388 0.119 1.205 0.097 1.616l-0.036 44.105-53.905-0.022v-45.877c0-0.11 0.016-0.198 0.016-0.293 0.315-3.028 3.101-4.712 5.8-5.925"/>
    <path d="m439.33 289.03h0.582v-0.83h1.124v1.484h-0.552v0.736h0.552v1.146h-0.552v-0.639h-0.572v0.639h-0.582v-0.639h-0.596v0.639h-0.609v-1.146h0.609v-0.736h-0.609v-1.484h1.205z"/>
    <path d="m457.85 286.37c0.257-6.8-10.173-8.55-28.521-15.356-17.458 5.976-27.83 7.417-28.146 13.944v48.368h56.667zm-41.393 74.924v1.214c2.293 0.021 4.793-0.831 6.153-1.103l0.714-1.75c-1.869 0.706-4.787 1.648-6.867 1.639m10.285 5.397c0-0.029 0-0.067 0.021-0.081 0.235-1.008-0.403-2.022-1.426-2.258-1.008-0.249-2.036 0.369-2.285 1.374-9e-3 0.039-0.022 0.075-0.022 0.082zm24.227-96.588c0.036-0.081 0.045-0.119 0.036-0.139l-0.065 0.139zm0.088-0.022c0.038-0.088 0.074-0.191 0.11-0.288-0.058 0.097-0.11 0.2-0.153 0.295 0.021 0 0.036 0 0.043-7e-3m30.446 41.759c0.243 0 1.662-0.845 1.911-0.845-1.681 5.108-1.27 12.268-1.153 20.257 0.528-0.213 1.573-1.058 2.103-1.286-0.419 4.52-0.309 5.557-0.309 8.109 0 15.877-8.269 20.125-14.746 21.89-11.549 2.638-19.59-6.498-16.811-16.187-0.669-3.043-2.345-5.337-5.182-6.623-2.33-0.809-5.609-1.007-6.976 1.662 0.61-0.398 1.059-0.603 1.83-0.618-0.706 0.735-1.094 1.808-1.432 3.022-0.544 2.064-0.891 4.607-2.2 6.829 1.309-1.118 1.766-2.258 2.22-3.308 0.634 2.991-0.271 6.645-1.624 8.261 1.112-0.559 1.141-0.426 1.948-1.279 0.2 1.668-0.058 2.352-0.565 3.404-0.03 2.373-0.287 3.131-1.383 4.527 1.141-0.506 1.948-0.425 2.991 0.162-1.527 0.522-2.572 1.426-3.667 3.095-1.411 2.102-1.607 5.842-6.291 5.765-2.349-0.038-4.338 0.358-8.197-0.34-1.089-0.14-3.742-1.037-6.13-0.92l0.197-1.293-1.27-0.316c-0.097-0.03-0.206-0.059-0.332-0.088v1.243l9e-3 7e-3v0.191l-9e-3 0.47v2.102c1.684-0.022 3.177-0.184 4.823-0.375l-0.074 3.287c-1.705-0.251-3.308-0.391-5.051-0.515 0.192 1.594 0.362 3.072 0.654 4.623-1.124-0.073-2.226-0.073-3.336 0 0.301-1.551 0.456-2.992 0.595-4.58-1.617 0.09-3.145 0.207-4.749 0.405l0.097-3.146c0.69 0.103 3.645 0.169 4.682 0.184v-4.44c-1.705-0.581-3.175-1.802-1.801-5.057 0.47 1.124 0.838 1.845 1.83 2.169 0-5.154 0.391-10.814-0.918-15.776 1.815 0.633 2.44 0.663 4.293 0.06-1.234 4.329-1.155 9.004-1.023 13.474 0.177-9e-3 0.36-0.023 0.544-0.06 2.647-0.353 5.388-1.367 6.117-4.358 0.706-2.793-1.471-4.3-2.669-6.506-2.272-4.558-1.419-8.329-3.536-10.564 0.707-0.065 1.464 0.045 1.464 0.045-1.67-2.293-4.897-2.293-7.307-1.573-1.955 0.706-3.941 3.08-4.785 5.807 3.608 11.725-8.528 19.149-17.252 16.584-4.668-1.367-13.74-4.338-14.099-22.126-0.243-2.602 0.184-4.16-0.522-6.814 0.823 0.25 1.139 0.375 1.875 0.749 0-7.373-0.015-17.252-1.53-20.53 0.823 0.207 1.456 0.61 1.882 0.985 0.64-30.498 1.023-52.851-1.161-58.159 3.3 1.073 4.777 1.536 6.674 3.838 0.919 0.14 1.794 0.264 2.58 0.478v37.422c-1.441 5.52-2.845 11.055-4.16 16.59-0.486 2.147-0.604 3.588 0.021 5.734l0.633 2.205 1.771-1.506c0.707-0.589 1.272-1.192 1.735-1.794v23.212c0 0.457 0.383 0.824 0.831 0.824 0.455 0 0.823-0.367 0.823-0.824v-26.527c3.785-10.858 6.638-22.023 9.541-33.167v64.429c0 0.485 0.367 0.845 0.823 0.845s0.853-0.36 0.853-0.845v-70.714c0.169-0.72 0.368-1.404 0.544-2.117 1.609 2.155 2.617 4.478 3.198 7.948 1.035-1.464 2.844-2.64 5.366-3.75-2.059-3.558-2.36-4.602-5.69-6.351 2.396-1.03 4.845-1.213 6.947 0.132-0.029-0.148-0.06-0.279-0.11-0.398-0.654-1.205-1.14-2.299-1.72-3.307-0.728-1.271-1.338-1.772-2.222-2.823-1.814-0.588-2.645 0.325-4.636-0.125-0.037-0.037-0.075-0.044-0.104-0.05-0.139 0.344-0.243 0.668-0.169 0.697 0.236 0.074 0.463 0.191 0.559 0.434 0.221-0.015 0.654 0.25 0.793 0.441 0.369-0.045 0.603 0.133 0.72 0.412l2.817 0.822c0.323-0.153 0.735-0.278 0.866-0.021 0.942 0.397 1.133 0.919 1.236 1.308-0.272 0.249-0.942 0.728-1.904 0.362-0.288 0.19-0.537-0.288-0.581-0.487l-2.837-0.86c-0.317 0.148-0.677 0.206-0.92 0-0.286 0.148-0.705 0.074-0.874-0.169-0.117 0.059-0.477 0.221-0.706 0.169-4.277 15.113-8.071 32.021-13.253 46.904-0.662 1.898-1.396 3.007-2.896 4.294-0.544-1.919-0.448-3.066 0-4.998 3.543-15.011 8.394-32.219 12.283-47.295 0.022 0-0.573-0.184-0.713-0.464-0.206 0.097-0.669-0.131-0.846-0.352-0.286 0.022-0.581-0.153-0.683-0.426l-2.712-0.831c-0.368 0.125-0.618 0.206-0.845-0.059-0.728-0.065-1.302-0.852-1.404-1.227 0.293-0.25 1.08-0.684 1.866-0.338 0.302-0.074 0.64 0.154 0.831 0.515l2.661 0.794c0.206-0.258 0.64-0.156 0.905 0 0.227-0.162 0.749-0.075 0.903 0.103 0.251-0.191 0.529-0.214 0.823-0.133 0.104 0.03 0.155 0.043 0.236 0.043 0.037-0.124 0.183-0.625 0.308-1.036-1.822-0.801-2.007-1.588-1.624-2.476 0.015-0.133 0.066-0.302 0.11-0.45-0.97-0.256-1.727-1.448-1.198-2.373 0-0.413 0.198-0.795 0.609-1.117l0.031 0.014h0.058c-0.662-0.801-1.109-2.184 0.911-2.507-0.279-1.683 0.729-1.624 1.494-1.889 0.433-0.382 0.749-0.493 1.455-0.698 1.036-0.088 1.602-0.287 2.536-0.794 0.786-0.199 1.44-0.154 2.278 0.205 0.42 0.25 0.58 0.501 0.75 0.884 1.139 0.521 1.381 0.749 1.602 2.035 1.139 1.442 1.978 5.196 2.213 5.939 1.043 3.279 2.823 6.05 4.968 8.857-0.375-2.329 0.097-5.063 1.963-6.476 0.273 5.05 2.33 7.617 4.611 11.072 0.638-0.184 2.063 0.087 1.99-0.612-1.324-12.621-10.195-16.839-14.311-20.537 1.543-1.396 3.542-2.719 5.233-4.27-0.515-0.786-0.941-1.154-1.558-1.919 1.162-0.698 5.977-3.691 7.351-4.55-0.507-0.97-1.074-1.588-1.764-2.66 5.351-3.434 8.093-4.765 13.547-7.94 0.073 0.038 8.909 4.279 14.539 7.536-0.515 0.697-1.065 1.528-1.639 2.41 3.051 1.801 5.587 3.499 7.924 5.021-0.616 0.698-0.984 1.117-1.631 1.934 2.926 2.116 3.16 2.3 5.424 4.056-9.262 8.696-12.495 11.459-16.053 21.39 1.029 0.353 2.036 0.699 2.969 1.036 2.816-3.939 4.212-5.55 5.388-10.944 1.911 1.889 1.464 3.756 1.61 6.359 0.096-0.074 0.161-0.148 0.236-0.229 0 0-0.037 0.022-0.052 0.029-0.023 0.045-0.066 0.068-0.088 0.081 0.022 0 0.022-0.013 0.022-0.036-0.022 0.023-0.045 0.036-0.089 0.081 2.131-3.551 3.389-5.491 5.043-8.329 0.199-1.587 0.221-2.41 0.589-3.278h0.066c0.25-0.648 0.654-1.25 1.462-2.161 0-1.118 0.964-2.162 1.787-2.566 0.065-0.323 0.124-0.455 0.293-0.683 0.64-0.684 2.36-0.713 3.301-0.515 0.699 0.573 1.132 0.537 1.838 0.699 0.698 0.103 0.698 0.176 1.507 0.323 0.646 0.338 1.147 0.493 1.536 0.684 0.522 0.455 0.441 1.301 0 1.64 0.992 0.69 2.359 1.477 1.05 2.425-0.081 0.03-0.14 0.088-0.205 0.131 0.603 1.067 0.471 2.191-0.294 3.059 0 1.625-0.801 2.462-1.999 3.52-0.029 0-0.045 0-0.074 8e-3 2.286 7.733 4.661 17.664 7.006 26.603 1.014-0.068 1.183 0.484 1.337 1.057 0.735 0.206 0.912 0.758 0.381 1.375 0.957 0.404 1.008 0.992 0.758 1.741 2.941 3.339 5.006 5.55 5.352 6.683 0.279 1.198-0.668 3.632-1.603 7.086 0.096 0.375 0.317 1.25-0.646 1.486-0.074 0.079-0.125 0.176-0.199 0.227 0.3 0.169 0.501 0.493 0.501 0.852 0 0.538-0.427 0.972-0.986 0.972-0.552 0-0.993-0.434-0.993-0.972 0-0.161 0.045-0.301 0.104-0.411-0.192-0.045-0.397-0.162-0.625-0.287-0.898 0.199-1.374-0.536-1.595-1.08-2.272-2.456-4.572-4.205-5.028-5.359-0.132-1.059-0.067-3.667 0.661-7.829-0.933-0.418-1.036-1.197-0.486-1.932-0.837-0.25-0.874-0.839-0.395-1.396-0.178-0.7 0.014-1.126 0.47-1.464-2.125-8.592-4.352-16.253-7.63-26.307-0.639 0.153-3.36-0.303-5.138 0.373-1.588 2.31-2.522 3.809-3.506 5.75 2.417-0.663 3.389-0.516 6.299 0.029-3.272 1.86-4.352 2.661-6.52 5.997 2.742 1.273 4.55 2.368 5.814 3.94 0.706-3.829 1.765-5.909 4.146-7.644 0.22 0.661 0.405 1.33 0.625 1.992v69.574c0 0.478 0.375 0.846 0.823 0.846 0.457 0 0.823-0.368 0.823-0.846v-63.929c0.927 3.256 1.808 6.527 2.632 9.836-0.273 0.447-0.397 0.948-0.374 1.514-0.391 0.779-0.325 1.609 0.146 2.241-0.117 0.758 0.111 1.5 0.654 2.066-0.236 1.442-0.426 2.897-0.522 4.337-0.066 0.963-0.125 2.08 0 3.036v0.176l0.096 0.177c0.375 0.976 1.418 1.97 2.176 2.697 1.014 0.963 2.014 1.904 2.97 2.925 0.382 0.788 0.985 1.405 1.77 1.648v28.535c0 0.47 0.376 0.837 0.832 0.837 0.433 0 0.823-0.367 0.823-0.837v-26.97c0.294 0.118 0.609 0.184 0.948 0.184 1.352 0 2.477-1.081 2.477-2.419 0-0.175-0.014-0.337-0.059-0.499 0.242-0.287 0.382-0.625 0.449-1.022 0.066-0.345 0.043-0.669-0.022-1 0.374-1.367 0.808-2.704 1.169-4.064 0.27-1.038 0.588-2.337 0.36-3.389l-0.015-0.052-7e-3 -0.052c-0.324-1.014-1.309-2.19-1.986-3.02-1.021-1.228-2.109-2.448-3.174-3.653 0.044-0.397-0.03-0.772-0.14-1.103v-32.637c1.146-0.72 2.322-1.133 3.33-1.133 2.028-1.742 3.227-2.204 5.983-2.829-3.316 3.917-1.999 32.431-2.118 56.277"/>
    <path d="m389.32 264.33 1.815 0.565c0.287 0.265 0.581 0.441 0.949 0.551 0.146 0.111 0.308 0.199 0.477 0.28-1.999 7.754-4.116 15.502-6.181 23.25v-25.801c0.411 0.433 0.919 0.773 1.462 0.933 0.449 0.301 0.956 0.332 1.478 0.222"/>
    <path d="m471.57 288.21c-0.67-2.527-1.315-5.042-1.97-7.578-1.133-4.513-2.271-9.064-3.528-13.577 1.507-1.594 3.087-3.029 4.285-3.315 0.603-1.131 1.403-2.109 2.292-2.955v28.3c-0.278-0.419-0.632-0.727-1.079-0.875"/>
    <path d="m447.94 289.03h0.573v-0.83h1.124v1.484h-0.535v0.736h0.535v1.146h-0.535v-0.639h-0.589v0.639h-0.573v-0.639h-0.603v0.639h-0.603v-1.146h0.603v-0.736h-0.603v-1.484h1.206z"/>
    <path d="m445.18 287.38h-0.603v-1.169h0.603v-0.751h-0.603v-1.469h1.199v0.86h0.58v-0.86h1.125v1.469h-0.536v0.751h0.536v1.169h-0.536v-0.654h-0.589v0.654h-0.58v-0.654h-0.596z"/>
    <path d="m440.88 287.38h-0.609v-1.169h0.609v-0.751h-0.609v-1.469h1.218v0.86h0.567v-0.86h1.132v1.469h-0.552v0.751h0.552v1.169h-0.552v-0.654h-0.58v0.654h-0.567v-0.654h-0.609z"/>
    <path d="m443.63 289.03h0.594v-0.83h1.11v1.484h-0.528v0.736h0.528v1.146h-0.528v-0.639h-0.582v0.639h-0.594v-0.639h-0.596v0.639h-0.595v-1.146h0.595v-0.736h-0.595v-1.484h1.191z"/>
    <path d="m449.49 287.38h-0.603v-1.169h0.603v-0.751h-0.603v-1.469h1.213v0.86h0.567v-0.86h1.139v1.469h-0.537v0.751h0.537v1.169h-0.537v-0.654h-0.602v0.654h-0.567v-0.654h-0.61z"/>
    <path d="m452.24 289.03h0.58v-0.83h1.118v1.484h-0.522v0.736h0.522v1.146h-0.522v-0.639h-0.596v0.639h-0.58v-0.639h-0.603v0.639h-0.604v-1.146h0.604v-0.736h-0.604v-1.484h1.207z"/>
    <path d="m435.49 318.16c0.727 0 1.059 0.11 2.256 0.485-0.241-0.375-0.14-0.845 0.096-1.11 0-0.47 0.074-0.757 0.382-1.131-0.015-0.339 0.023-0.567 0.249-0.758 0.169-1.25 0.479-1.896 1.317-3.433-0.611-0.22-1.148-0.653-1.148-1.449 0-1.108 1.192-1.549 2.044-1.549 0.427-0.684 0.83-0.884 1.397-0.884 0.58 0 1.022 0.2 1.448 0.884 0.846 0 2.058 0.441 2.058 1.549 0 0.796-0.558 1.229-1.168 1.449 0.816 1.537 1.168 2.183 1.307 3.433 0.281 0.191 0.317 0.419 0.295 0.758 0.265 0.374 0.382 0.661 0.382 1.131 0.199 0.265 0.323 0.735 0.059 1.11 1.175-0.375 1.529-0.485 2.301-0.485 2.324 0.022 2.859 1.014 3.594 2.103-2.096-0.471-2.617 1.337-4.425 1.337 0.736 0.022 1.434 1.374 1.434 3.301 0 2.249-2.022 4.99-4.353 4.99 1.713-0.808 2.317-2.505 2.258-3.982-0.081-1.95-0.868-2.332-1.624-2.832-1.045 0.596-1.581 0.398-2.464-0.588-0.175 0.625-0.61 0.757-1.102 0.757-0.47 0-0.889-0.132-1.072-0.757-0.853 0.986-1.39 1.184-2.479 0.588-0.69 0.5-1.514 0.882-1.572 2.832-0.074 1.477 0.545 3.174 2.256 3.982-2.33 0-4.336-2.741-4.336-4.99 0-1.927 0.691-3.279 1.433-3.301-1.795 0-2.316-1.808-4.41-1.337 0.697-1.089 1.286-2.081 3.587-2.103"/>
    <path d="m440.56 324.4 1.522 0.794 1.632-0.815-0.213 1.698 1.212 1.279-1.697 0.301-0.934 1.735-0.809-1.735-1.873-0.301 1.419-1.206z"/>
    <path d="m433.36 311.59c-1.595-0.472-1.383-0.56-1.435-0.913 0.068-0.256 0.398-0.323 0.729-0.565 0.265-0.251 0.309-0.552 0.706-0.552 0.477 0.126 0.749 0.11 0.765 1.493 0-1.484 0.3-1.331 0.661-1.484 0.418 0 0.367 0.19 0.816 0.528 0.427 0.236 0.567 0.207 0.661 0.551-0.045 0.288 0.213 0.537-1.382 0.971 1.485-0.426 1.581-0.229 1.838 0.036 0.199 0.338-0.287 0.574-0.368 0.897-0.088 0.331-0.044 0.552-0.293 0.779-0.353 0.03-0.501 0.294-1.493-0.837 1.037 1.199 0.78 1.219 0.537 1.558-0.375 0.227-0.728 0.014-1.074 0.037-0.535 0-0.564 6e-3 -0.911-0.169-0.103-0.207-0.515-0.36 0.529-1.434-1.102 1.139-1.073 0.779-1.448 0.779-0.331-0.132-0.205-0.447-0.354-0.809-0.101-0.322-0.411-0.441-0.278-0.756 0.278-0.301 0.229-0.544 1.794-0.11"/>
    <path d="m452.47 312.91c-0.074 1.631-4.528 1.75-4.528-1.47 0.066-3.095 4.528-2.867 4.616-1.059-1.183-0.772-2.602 0.103-2.602 1.059 0 1 1.345 1.954 2.514 1.47"/>
   </g>
   <path d="m434.55 374.56c-0.121-0.529-0.97-2.701-0.97-2.701l-0.013-9e-3c0.284-0.126 0.488-0.469 0.488-0.876 0-0.51-0.324-0.926-0.725-0.926-0.397 0-0.722 0.416-0.722 0.926 0 0.039 2e-3 0.076 5e-3 0.114l-0.016-0.016-0.404 0.09c0-0.02 1e-3 -0.041 1e-3 -0.061 0-0.482-0.441-0.873-0.988-0.873-0.545 0-0.985 0.391-0.985 0.873 0 0.475 0.43 0.861 0.966 0.871-9e-3 0.182-0.132 2.555-1.011 3.039-8e-3 6e-3 -0.356 0.381 0.123 1.527 0 0 1.758 0.418 2.525 0.136 0.776-0.281 1.883-1.43 1.726-2.114m-5.892 0.451c-0.879-0.484-0.999-2.857-1.006-3.039 0.535-0.01 0.967-0.396 0.967-0.871 0-0.482-0.443-0.873-0.989-0.873-0.547 0-0.989 0.391-0.989 0.873 0 0.02 3e-3 0.041 6e-3 0.061l-0.405-0.09-0.018 0.016c2e-3 -0.038 6e-3 -0.075 6e-3 -0.114 0-0.51-0.326-0.926-0.725-0.926-0.401 0-0.725 0.416-0.725 0.926 0 0.407 0.207 0.75 0.489 0.876l-0.012 9e-3s-0.848 2.172-0.971 2.701c-0.159 0.684 0.951 1.833 1.725 2.114 0.769 0.282 2.527-0.136 2.527-0.136 0.481-1.146 0.133-1.521 0.12-1.527m8.893 0.341c0.043 2.185-0.719 3.081-3.664 3.013-1.524 1-3.359 0.389-3.51 0.328-0.142-0.049-0.206 0.035-0.176 0.141 0 1e-3 0.089 0.252 0.089 0.394 0 0.187-0.063 0.356-0.161 0.498v1.528h1.202v1.384h-1.202v1.129h-1.373v-1.129h-1.22v-1.384h1.22v-1.463c-0.128-0.153-0.209-0.347-0.209-0.563 0-0.142 0.086-0.393 0.089-0.394 0.029-0.106-0.033-0.19-0.176-0.141-0.15 0.061-1.986 0.672-3.513-0.328-2.952 0.069-3.71-0.834-3.661-3.035l-0.644 0.214v-1.383l0.637-0.213c0.518-0.521 1.272-1.429 1.526-2.521 0.1-0.439-0.41-1.525 0.672-1.906l0.363-1.613c-0.533-0.067-0.388-0.692 0.04-0.619 0.647 0.093 1.406 0.152 2.072 0.203 0.252 0.015 0.506 0.025 0.762 0.039 0.649 0.025 1.307 0.037 1.958 0.043h1.49c0.657-6e-3 1.309-0.018 1.962-0.043 0.254-0.014 0.508-0.024 0.762-0.039 0.665-0.051 1.426-0.11 2.07-0.203 0.427-0.073 0.572 0.552 0.043 0.619l0.362 1.613c1.084 0.381 0.572 1.467 0.673 1.906 0.258 1.119 1.039 2.041 1.559 2.555l0.535 0.179v1.383z"/>
  </g>
 </g>
 <g fill="#1b458f" stroke-width=".5011" aria-label="Ministerul Educației">
  <path d="m128.14 49.168c-0.0401-0.38083-0.10022-0.54118-0.24053-0.54118-0.1403 0-0.22048 0.14031-0.30065 0.3207l-5.8929 12.588-6.1334-12.608c-0.10022-0.22048-0.1804-0.30066-0.30066-0.30066s-0.20044 0.18039-0.22048 0.40088l-1.4432 13.028c-0.10021 0.8218-0.1403 1.5434-0.80175 1.6636-0.30065 0.06013-0.44096 0.06013-0.60131 0.06013-0.10022 0-0.20044 0.04009-0.20044 0.12026 0 0.14031 0.14031 0.16035 0.34074 0.16035 0.54119 0 1.5033-0.06013 1.6837-0.06013 0.16035 0 1.1826 0.06013 1.9242 0.06013 0.20044 0 0.30066-0.04009 0.30066-0.18039 0-0.06013-0.0802-0.10022-0.20044-0.10022-0.12027 0-0.38083 0-0.72158-0.08018-0.30066-0.06013-0.54118-0.22048-0.54118-0.72158 0-0.34074 0.02-0.62136 0.0401-0.94206l0.82179-9.4406c0.22048 0.54118 2.5255 5.492 2.7059 5.8528 0.10022 0.20044 1.824 3.668 2.3451 4.6502 0.38083 0.72158 0.48105 0.92202 0.62136 0.92202 0.18039 0 0.24052-0.18039 0.66144-1.0623l4.9709-10.543 0.9621 10.463c0.0401 0.36079 0.0601 0.66145-0.0802 0.72158-0.10022 0.04009-0.1403 0.06013-0.1403 0.14031 0 0.10022 0.10021 0.16035 0.56122 0.20044 0.74162 0.06013 3.0266 0.12026 3.4676 0.12026 0.24053 0 0.30066-0.04009 0.30066-0.16035 0-0.10022-0.12027-0.12026-0.22049-0.12026-0.20043 0-0.66144 0-1.2427-0.18039-0.86188-0.28061-1.0022-1.4031-1.0824-2.1246z"/>
  <path d="m135.15 59.109c0 1.5033 0 2.9264-0.10022 3.648-0.0601 0.48105-0.12026 0.88193-0.461 0.9621-0.16035 0.04009-0.38083 0.06013-0.48105 0.06013-0.1804 0-0.26057 0.06013-0.26057 0.14031 0 0.10022 0.1403 0.14031 0.3207 0.14031 0.56122 0 1.7438-0.06013 1.8039-0.06013 0.10022 0 1.2628 0.06013 2.285 0.06013 0.20044 0 0.28062-0.06013 0.28062-0.14031 0-0.08018-0.0401-0.12026-0.22049-0.14031-0.0802 0-0.50109-0.02004-0.76166-0.08018-0.52114-0.12026-0.60131-0.34074-0.68149-0.92202-0.10022-0.72158-0.0802-2.1246-0.0802-3.668v-3.0066c0-2.6458-0.02-3.1068 0.02-3.648 0.0401-0.58127 0.10022-0.88193 0.68149-0.9621 0.14031-0.02004 0.24052-0.02004 0.36079-0.04009 0.16035-0.02004 0.22048-0.06013 0.22048-0.14031 0-0.10022-0.10022-0.14031-0.30066-0.14031-0.56122 0-1.7238 0.06013-1.8039 0.06013-0.0601 0-1.2026-0.06013-1.824-0.06013-0.22048 0-0.30065 0.04009-0.30065 0.14031 0 0.08018 0.0802 0.12026 0.22048 0.14031 0.12026 0.02004 0.26057 0.02004 0.46101 0.06013 0.42092 0.08018 0.54118 0.38083 0.58127 0.92202 0.0401 0.54118 0.0401 1.0222 0.0401 3.668z"/>
  <path d="m142.47 61.555c0 1.4632-0.10022 2.0044-0.54119 2.1447-0.26057 0.08018-0.48105 0.08018-0.62136 0.08018-0.20043 0-0.28061 0.06013-0.28061 0.14031 0 0.12026 0.12026 0.14031 0.30066 0.14031 0.86188 0 1.6035-0.06013 1.7438-0.06013s0.86188 0.06013 1.9442 0.06013c0.22048 0 0.3207-0.04009 0.3207-0.14031 0-0.08018-0.0802-0.14031-0.24053-0.14031-0.16035 0-0.50109 0-0.82179-0.08018-0.5011-0.12026-0.62136-0.6414-0.66145-2.0244l-0.26057-7.8371c0.5011 0.52114 2.5055 2.6057 4.59 4.7704 1.7438 1.7037 4.5299 4.4698 4.6101 4.5099 0.98214 0.92202 1.1826 1.0623 1.3229 1.0623 0.1403 0 0.18039-0.10022 0.18039-1.1024l0.0401-10.062c0-1.2026 0.14031-1.4031 0.60131-1.5033 0.22049-0.04009 0.38084-0.04009 0.5011-0.06013s0.18039-0.08018 0.18039-0.16035c0-0.10022-0.0601-0.12026-0.28061-0.12026-0.78171 0-1.4031 0.06013-1.6035 0.06013-0.1804 0-1.0222-0.06013-1.8841-0.06013-0.20044 0-0.36079 0.02004-0.36079 0.12026 0 0.08017 0.0401 0.16035 0.24053 0.16035 0.1403 0 0.44096 0.02004 0.7817 0.08017 0.54119 0.14031 0.66145 0.5011 0.68149 1.5835l0.22048 8.3382c-0.52113-0.48105-2.5255-2.5456-4.0889-4.0689-2.8061-2.8663-5.5922-5.7125-5.7726-5.9129-0.1403-0.14031-0.48105-0.54118-0.62135-0.54118-0.16035 0-0.22048 0.20044-0.22048 0.8218 0.02 3.3273 0 0.24053 0 9.8014z"/>
  <path d="m159.83 59.109c0 1.5033 0 2.9264-0.10022 3.648-0.0601 0.48105-0.12026 0.88193-0.46101 0.9621-0.16035 0.04009-0.38083 0.06013-0.48105 0.06013-0.18039 0-0.26057 0.06013-0.26057 0.14031 0 0.10022 0.14031 0.14031 0.3207 0.14031 0.56123 0 1.7438-0.06013 1.8039-0.06013 0.10022 0 1.2628 0.06013 2.285 0.06013 0.20044 0 0.28061-0.06013 0.28061-0.14031 0-0.08018-0.0401-0.12026-0.22048-0.14031-0.0802 0-0.5011-0.02004-0.76167-0.08018-0.52113-0.12026-0.60131-0.34074-0.68148-0.92202-0.10022-0.72158-0.0802-2.1246-0.0802-3.668v-3.0066c0-2.6458-0.02-3.1068 0.02-3.648 0.0401-0.58127 0.10022-0.88193 0.68149-0.9621 0.14031-0.02004 0.24053-0.02004 0.36079-0.04009 0.16035-0.02004 0.22048-0.06013 0.22048-0.14031 0-0.10022-0.10022-0.14031-0.30065-0.14031-0.56123 0-1.7238 0.06013-1.804 0.06013-0.0601 0-1.2026-0.06013-1.824-0.06013-0.22048 0-0.30066 0.04009-0.30066 0.14031 0 0.08018 0.0802 0.12026 0.22048 0.14031 0.12027 0.02004 0.26057 0.02004 0.46101 0.06013 0.42092 0.08018 0.54118 0.38083 0.58127 0.92202 0.0401 0.54118 0.0401 1.0222 0.0401 3.668z"/>
  <path d="m169.07 64.281c0.9621 0 1.9242-0.20044 2.7059-0.70153 1.2227-0.84184 1.5233-2.1246 1.5233-2.8462 0-1.4231-0.54118-2.4854-2.6257-4.0889l-0.461-0.36079c-1.6636-1.2628-2.1447-1.844-2.1447-2.7861 0-1.2026 0.90197-1.9242 2.1046-1.9242 1.6837 0 2.1447 0.76166 2.2449 0.94206 0.1804 0.34074 0.22049 0.76166 0.24053 0.94206 0.02 0.14031 0.0401 0.22048 0.14031 0.22048s0.1403-0.12026 0.1403-0.42092c0-1.1625 0.0802-1.8641 0.0802-1.9442 0-0.08018-0.0401-0.12026-0.1804-0.12026s-0.30065-0.02004-0.68149-0.10022c-0.44096-0.10022-0.92201-0.16035-1.6235-0.16035-2.2449 0-3.7081 1.2427-3.7081 3.0867 0 1.1826 0.40088 2.2449 2.3251 3.7883l0.80176 0.62136c1.4632 1.1826 1.9843 1.8841 1.9843 3.0266 0 1.0022-0.80175 2.1447-2.4654 2.1447-1.1625 0-2.3451-0.5011-2.6057-1.8039-0.0601-0.24053-0.0601-0.48105-0.0601-0.60131 0-0.14031-0.0401-0.20044-0.14031-0.20044-0.10022 0-0.1403 0.10022-0.16035 0.28061-0.02 0.28061-0.0802 0.9621-0.0802 1.8841 0 0.48105 0 0.56123 0.26057 0.68149 0.76166 0.34074 1.5434 0.44096 2.3852 0.44096z"/>
  <path d="m181.85 51.954c0.58127 0 1.2026 0.02004 1.9643 0.02004 2.0244 0.02004 2.285 0.22048 2.3652 1.0222 0.02 0.20044 0.02 0.22048 0.02 0.28061 0 0.16035 0.0401 0.24052 0.1403 0.24052 0.0601 0 0.14031-0.06013 0.14031-0.24052 0-0.16035 0.0401-1.4832 0.0401-2.0445 0-0.08017-0.0401-0.18039-0.12026-0.18039-0.0601 0-0.12027 0.02004-0.38084 0.08018-0.28061 0.06013-0.88192 0.10022-1.4432 0.10022h-6.5744c-0.02 0-0.58127-0.02004-1.2828-0.10022-0.36079-0.04009-0.74162-0.22048-0.88193-0.22048-0.0601 0-0.12026 0.08018-0.18039 0.3207-0.12026 0.54118-0.42092 1.8641-0.40088 1.9843 0 0.10022 0.02 0.1804 0.10022 0.1804 0.0802 0 0.12026-0.02004 0.1804-0.16035 0.0401-0.10022 0.12026-0.34074 0.30065-0.62136 0.28062-0.42092 0.56123-0.62136 1.844-0.6414 0.80175-0.02004 1.8641-0.02004 2.5255-0.02004v7.1556c0 1.5033 0 2.9464-0.0802 3.668-0.0802 0.68149-0.14031 0.92202-0.52114 0.98215-0.16035 0.02004-0.28062 0.02004-0.44097 0.02004s-0.22048 0.08017-0.22048 0.14031c0 0.10022 0.0802 0.14031 0.30066 0.14031 0.52114 0 1.7037-0.06013 1.7839-0.06013 0.0802 0 1.2628 0.06013 2.285 0.06013 0.20044 0 0.26057-0.06013 0.26057-0.16035 0-0.06013-0.0802-0.12026-0.24053-0.12026-0.16035 0-0.54118-0.02004-0.7817-0.08018-0.5011-0.12026-0.54119-0.40088-0.60132-0.88193-0.0802-0.74162-0.10022-2.1647-0.10022-3.7081z"/>
  <path d="m190.21 59.109c0 1.5233-0.02 2.3451-0.0401 3.0266-0.0401 1.2427-0.28061 1.5033-0.6414 1.5835-0.1403 0.04009-0.28061 0.06013-0.40087 0.06013-0.10022 0-0.1804 0.06013-0.1804 0.14031 0 0.10022 0.10022 0.14031 0.28062 0.14031 0.48105 0 0.86188-0.06013 1.3229-0.06013 0.74162 0 1.6636 0.04009 2.3652 0.06013 0.70154 0 1.2628 0.04009 2.5857 0.04009 0.66144 0 0.80175-0.04009 0.88192-0.44096 0.0601-0.34074 0.22048-1.6035 0.22048-1.7438 0-0.12026 0-0.30066-0.12026-0.30066-0.0802 0-0.14031 0.08018-0.18039 0.28061-0.16035 0.74162-0.30066 1.1425-0.90197 1.3229-0.5011 0.14031-1.1425 0.12026-1.5233 0.12026-0.68149 0-1.1625-0.04009-1.4632-0.1804-0.42092-0.18039-0.52114-0.56123-0.56123-1.3028-0.02-0.34074 0-2.1046 0-2.726v-1.4632c0-0.08017 0.02-0.14031 0.14031-0.14031 0.3207 0 1.9442 0.04009 2.4053 0.08018 0.76166 0.06013 0.88192 0.34074 0.9621 0.60131 0.0401 0.16035 0.0601 0.36079 0.0601 0.48105 0 0.14031 0.02 0.26057 0.12026 0.26057 0.0802 0 0.12027-0.06013 0.14031-0.22048 0.02-0.26057 0.02-0.66145 0.0802-1.2227 0.0601-0.58127 0.14031-0.9621 0.14031-1.0623s-0.0401-0.12026-0.0802-0.12026c-0.0802 0-0.14031 0.04009-0.22049 0.16035-0.16035 0.22048-0.461 0.28061-0.92201 0.30066-0.42092 0.04009-2.4654 0.06013-2.7059 0.06013-0.10022 0-0.12027-0.08018-0.12027-0.20044v-4.5499c0-0.12026 0.0401-0.16035 0.10022-0.16035 0.0401 0 2.0244 0.02004 2.285 0.04009 1.0022 0.06013 1.1826 0.20044 1.3028 0.60131 0.0601 0.14031 0.12027 0.34074 0.14031 0.6414 0 0.14031 0.0401 0.22048 0.14031 0.22048s0.1403-0.12026 0.1403-0.30066c0.02-0.38083 0.0401-0.70153 0.0601-1.0423 0.0401-0.5011 0.16035-0.78171 0.16035-0.90197 0-0.10022-0.0401-0.14031-0.0802-0.14031-0.0802 0-0.10022 0.02004-0.22048 0.06013-0.16035 0.06013-0.38083 0.08018-0.78171 0.10022-0.40088 0.02004-3.9687 0.02004-4.0689 0.02004-1.1225-0.02004-1.6636-0.06013-2.0645-0.06013-0.20044 0-0.30066 0.04009-0.30066 0.16035 0 0.06013 0.12026 0.12026 0.26057 0.12026 0.16035 0 0.36079 0.02004 0.48105 0.04009 0.58127 0.12026 0.72158 0.40088 0.76166 0.9621 0.0401 0.54118 0.0401 1.0222 0.0401 3.648z"/>
  <path d="m201.1 59.109c0 1.5033 0.02 3.1469-0.0802 3.8685-0.0601 0.48105-0.18039 0.70153-0.52114 0.76166-0.16035 0.04009-0.30065 0.04009-0.44096 0.04009-0.12026 0-0.24053 0.06013-0.24053 0.12026 0 0.12026 0.0802 0.16035 0.28062 0.16035 0.54118 0 1.4231-0.06013 1.7438-0.06013 0.0802 0 1.2026 0.06013 2.2449 0.06013 0.20044 0 0.28062-0.06013 0.28062-0.16035 0-0.06013-0.0802-0.12026-0.26057-0.12026-0.16035 0-0.38084-0.02004-0.58127-0.04009-0.66145-0.08018-0.72158-0.48105-0.78171-0.9621-0.10022-0.72158-0.10022-2.1848-0.10022-3.7883v-0.28061c0-0.08018 0.02-0.10022 0.10022-0.10022l2.0645 0.02004c0.12026 0 0.16035 0.04009 0.24053 0.12026 0.34074 0.42092 1.1425 1.5033 1.9242 2.4654 1.0423 1.3429 1.6436 2.2449 2.4854 2.6057 0.44097 0.18039 0.88193 0.24052 1.824 0.24052h1.4031c0.28062 0 0.36079-0.04009 0.36079-0.14031 0-0.08018-0.0601-0.14031-0.22048-0.14031-0.0601 0-0.48105-0.02004-0.62136-0.04009-0.56122-0.08018-1.1625-0.24053-2.1246-1.2227-1.0222-1.0623-2.2249-2.5456-3.6881-4.3495 1.5835-1.2828 2.1246-2.6859 2.1246-3.7883 0-1.363-0.82179-2.1647-1.2026-2.4453-0.94206-0.66144-2.1647-0.76166-3.2872-0.76166-0.56122 0-1.9242 0.06013-2.1046 0.06013-0.0401 0-1.2628-0.06013-2.1246-0.06013-0.18039 0-0.24053 0.06013-0.24053 0.14031 0 0.08018 0.0802 0.12026 0.22049 0.12026 0.16035 0 0.36078 0.02004 0.48105 0.04009 0.62136 0.12026 0.76166 0.42092 0.80175 0.9621 0.0401 0.54118 0.0401 1.0222 0.0401 3.668zm1.5434-7.0354c0-0.10022 0.0601-0.16035 0.12026-0.18039 0.24053-0.06013 0.66145-0.10022 1.1625-0.10022 1.7839 0 2.9464 1.2026 2.9464 3.3874 0 1.2828-0.40087 2.1647-1.0022 2.5456-0.42092 0.28061-0.92201 0.30066-1.3429 0.30066-0.72158 0-1.5233-0.12026-1.7839-0.26057-0.0802-0.04009-0.10022-0.14031-0.10022-0.24053z"/>
  <path d="m215.09 56.103c0-2.6458 0-3.1068 0.02-3.648 0.0401-0.56123 0.12026-0.90197 0.60131-0.9621 0.16035-0.02004 0.3207-0.04009 0.44097-0.04009 0.10021 0 0.24052-0.04009 0.24052-0.14031 0-0.10022-0.0601-0.14031-0.28061-0.14031-0.54118 0-1.7238 0.06013-1.8841 0.06013-0.14031 0-1.2227-0.06013-2.0846-0.06013-0.22049 0-0.30066 0.04009-0.30066 0.16035 0 0.06013 0.0802 0.12026 0.22048 0.12026 0.16035 0 0.40088 0.02004 0.52114 0.04009 0.62136 0.08018 0.72158 0.42092 0.74162 0.9621 0.0601 0.54118 0.0601 1.0022 0.0601 3.648v2.4854c0 2.4854 0.62136 3.6881 1.4832 4.4898 1.3028 1.2026 3.187 1.2026 3.7482 1.2026 1.0824 0 2.3652-0.10022 3.668-1.2026 1.4231-1.2227 1.6236-3.3874 1.6236-5.1913v-1.7839c0-2.6257 0-3.0867 0.02-3.6279 0.0401-0.58127 0.12026-0.94206 0.68149-1.0022 0.20044-0.02004 0.24052-0.02004 0.36079-0.02004 0.12026 0 0.20044-0.06013 0.20044-0.14031 0-0.10022-0.0802-0.14031-0.28062-0.14031-0.56122 0-1.4231 0.06013-1.5233 0.06013-0.0802 0-1.0824-0.06013-1.9442-0.06013-0.18039 0-0.28061 0.04009-0.28061 0.16035 0 0.06013 0.0802 0.12026 0.20044 0.12026 0.18039 0 0.42092 0.02004 0.56123 0.04009 0.6414 0.10022 0.70153 0.40088 0.74162 0.98215 0.0401 0.54118 0.0401 1.0022 0.0401 3.6279v2.1246c0 1.7438-0.18039 3.2671-0.98214 4.1892-0.76167 0.88193-1.7037 1.1625-2.746 1.1625-0.8218 0-1.7839-0.16035-2.6458-0.92202-0.76167-0.68149-1.2227-1.7238-1.2227-4.1691z"/>
  <path d="m230.66 56.103c0-2.6458-0.02-3.0867 0.02-3.6279 0.0401-0.58127 0.16035-0.90197 0.72158-0.98215 0.20043-0.02004 0.40087-0.04009 0.54118-0.04009 0.12026 0 0.22048-0.06013 0.22048-0.14031 0-0.08018-0.0601-0.14031-0.26057-0.14031-0.56123 0-1.7839 0.06013-2.0645 0.06013-0.0401 0-1.2427-0.06013-2.0846-0.06013-0.20043 0-0.30065 0.04009-0.30065 0.14031 0 0.08018 0.0802 0.14031 0.22048 0.14031 0.16035 0 0.38083 0 0.50109 0.02004 0.68149 0.08017 0.76167 0.44096 0.80176 1.0022 0.0401 0.54118 0.0401 0.98215 0.0401 3.6279v3.0066c0 1.5434 0.0401 2.9264-0.0802 3.6881-0.0601 0.48105-0.1804 0.88193-0.52114 0.94206-0.16035 0.04009-0.3207 0.04009-0.48105 0.04009s-0.22048 0.06013-0.22048 0.12026c0 0.12026 0.12026 0.16035 0.3207 0.16035 0.70153 0 1.1024-0.06013 1.7638-0.06013 2.0044 0 3.5077 0.10022 4.8706 0.10022 0.96211 0 0.94206-0.10022 1.0623-0.5011 0.12026-0.46101 0.24052-1.6035 0.24052-1.8039s-0.0401-0.26057-0.12026-0.26057c-0.10022 0-0.14031 0.08017-0.16035 0.24052-0.0401 0.30066-0.1804 0.70153-0.38083 1.0022-0.44097 0.56123-1.2427 0.56123-2.1246 0.56123-1.383 0-1.7839-0.12026-2.1046-0.40088-0.34074-0.3207-0.42092-1.4832-0.42092-3.7883z"/>
  <path d="m246.5 58.247c0 1.7839-0.02 2.8061-0.0401 3.5878-0.0401 1.5033-0.30066 1.7839-0.72158 1.8841-0.14031 0.04009-0.26057 0.04009-0.46101 0.06013-0.12026 0.02004-0.22048 0.06013-0.22048 0.12026 0 0.12026 0.10022 0.16035 0.3207 0.16035 0.52116 0.020045 1.0022-0.06013 1.4833-0.06013 0.78171 0 1.7037 0.04009 2.5055 0.06013 0.78171 0.02004 1.4432 0.06013 2.9264 0.06013 0.78171 0 0.94206 0 1.0824-0.52114 0.10022-0.42092 0.26057-1.7839 0.26057-1.9442 0-0.14031 0-0.30066-0.12026-0.30066-0.10022 0-0.14031 0.08018-0.1804 0.30066-0.16035 0.86188-0.38083 1.2828-1.0222 1.4832-0.54119 0.16035-1.2026 0.18039-1.804 0.18039-0.7817 0-1.3229-0.04009-1.6636-0.18039-0.5011-0.20044-0.62136-0.6414-0.66145-1.4632-0.02-0.42092 0-2.746 0-3.4275v-1.7639c0-0.08018 0.0401-0.14031 0.14031-0.14031 0.34075 0 2.3251 0.04009 2.8663 0.10022 0.72158 0.08018 0.96211 0.36079 1.0423 0.66145 0.0601 0.18039 0.0802 0.38083 0.0802 0.56123 0 0.16035 0.02 0.3207 0.1403 0.3207 0.0802 0 0.12027-0.10022 0.14031-0.30066 0.02-0.28061 0.02-0.74162 0.0802-1.363 0.0601-0.66144 0.16035-1.0022 0.16035-1.1225 0-0.12026-0.0401-0.16035-0.10022-0.16035-0.0802 0-0.14031 0.08017-0.24053 0.20044-0.20044 0.24053-0.46101 0.30066-1.0022 0.34074-0.46101 0.04009-2.9264 0.04009-3.187 0.04009-0.10022 0-0.12027-0.06013-0.12027-0.20044v-5.5321c0-0.14031 0.0401-0.20044 0.12027-0.20044 0.22048 0 2.4052 0.02004 2.746 0.06013 0.88192 0.08018 1.3028 0.28061 1.4432 0.74162 0.0601 0.16035 0.10022 0.40088 0.10022 0.66144 0 0.16035 0.0401 0.26057 0.16035 0.26057 0.0802 0 0.14031-0.14031 0.16035-0.34074 0.0401-0.52114 0.0601-0.90197 0.0802-1.2026 0.0401-0.56123 0.16035-0.80175 0.16035-0.94206 0-0.10022-0.02-0.18039-0.0802-0.18039-0.0601 0-0.10022 0.02004-0.22048 0.08017s-0.48105 0.10022-0.92202 0.12026c-0.461 0.02004-4.4497 0.02004-4.59 0.02004-1.2628-0.06013-1.8039-0.06013-2.2649-0.06013-0.22049 0-0.32071 0.04009-0.32071 0.16035 0 0.08018 0.12027 0.10022 0.26057 0.12026 0.1804 0.02004 0.44097 0.02004 0.58127 0.06013 0.66145 0.14031 0.8218 0.46101 0.86189 1.1425 0.0401 0.6414 0.0401 1.2026 0.0401 4.3295z"/>
  <path d="m258.26 59.069c0 1.6235 0.02 2.9865-0.10022 3.7281-0.0601 0.44096-0.1804 0.86188-0.52114 0.92202-0.16035 0.04009-0.30066 0.06013-0.46101 0.06013s-0.22048 0.08017-0.22048 0.14031c0 0.10022 0.10022 0.14031 0.28061 0.14031 0.30066 0 0.78171-0.04009 1.1625-0.04009 0.38084-0.02004 0.64141-0.02004 0.68149-0.02004 0.0601 0 0.68149 0.06013 1.4432 0.10022 0.76166 0.06013 1.7438 0.10022 2.5055 0.10022 3.0467 0 4.57-1.1826 5.3517-1.9643 0.98214-1.0022 1.9042-2.6658 1.9042-4.7905 0-2.0244-0.8218-3.4275-1.7037-4.3094-2.1246-2.1447-5.4118-1.9643-7.1757-1.9643-1.1224 0-2.1647 0.06013-2.305 0.06013-0.0601 0-1.3229-0.06013-2.1447-0.06013-0.18039 0-0.30066 0.04009-0.30066 0.16035 0 0.06013 0.10022 0.12026 0.20044 0.12026 0.16035 0 0.46101 0.02004 0.58127 0.04009 0.58127 0.12026 0.74162 0.40088 0.78171 0.94206 0.0401 0.52114 0.0401 1.0222 0.0401 3.668zm1.6436-3.2872c0-1.2026 0-2.9064 0.02-3.4876 0-0.1804 0.0601-0.26057 0.22049-0.34074 0.12026-0.08018 0.74162-0.14031 1.0222-0.14031 1.9843 0 3.9486 0.20044 5.6524 1.9042 0.68149 0.66145 1.7238 2.0445 1.7238 4.3094 0 1.6035-0.42092 3.1068-1.3028 3.9887-1.0423 1.0423-2.5255 1.5634-4.1691 1.5634-2.0846 0-2.726-0.42092-2.9464-0.76166-0.14031-0.18039-0.18039-0.72158-0.20044-1.3429 0-0.30066-0.02-1.8641-0.02-3.668z"/>
  <path d="m275.14 56.103c0-2.6458 0-3.1068 0.02-3.648 0.0401-0.56123 0.12026-0.90197 0.60131-0.9621 0.16035-0.02004 0.3207-0.04009 0.44096-0.04009 0.10022 0 0.24053-0.04009 0.24053-0.14031 0-0.10022-0.0601-0.14031-0.28061-0.14031-0.54119 0-1.7238 0.06013-1.8841 0.06013-0.14031 0-1.2227-0.06013-2.0846-0.06013-0.22048 0-0.30065 0.04009-0.30065 0.16035 0 0.06013 0.0802 0.12026 0.22048 0.12026 0.16035 0 0.40088 0.02004 0.52114 0.04009 0.62136 0.08018 0.72157 0.42092 0.74162 0.9621 0.0601 0.54118 0.0601 1.0022 0.0601 3.648v2.4854c0 2.4854 0.62136 3.6881 1.4832 4.4898 1.3028 1.2026 3.187 1.2026 3.7482 1.2026 1.0824 0 2.3652-0.10022 3.668-1.2026 1.4231-1.2227 1.6236-3.3874 1.6236-5.1913v-1.7839c0-2.6257 0-3.0867 0.02-3.6279 0.0401-0.58127 0.12026-0.94206 0.68149-1.0022 0.20044-0.02004 0.24052-0.02004 0.36079-0.02004 0.12026 0 0.20043-0.06013 0.20043-0.14031 0-0.10022-0.0802-0.14031-0.28061-0.14031-0.56122 0-1.4231 0.06013-1.5233 0.06013-0.0802 0-1.0824-0.06013-1.9442-0.06013-0.18039 0-0.28061 0.04009-0.28061 0.16035 0 0.06013 0.0802 0.12026 0.20044 0.12026 0.18039 0 0.42092 0.02004 0.56123 0.04009 0.6414 0.10022 0.70153 0.40088 0.74162 0.98215 0.0401 0.54118 0.0401 1.0022 0.0401 3.6279v2.1246c0 1.7438-0.18039 3.2671-0.98214 4.1892-0.76167 0.88193-1.7037 1.1625-2.746 1.1625-0.8218 0-1.7839-0.16035-2.6458-0.92202-0.76166-0.68149-1.2227-1.7238-1.2227-4.1691z"/>
  <path d="m295.08 64.281c1.1225 0 2.4654-0.10022 3.1669-0.40088 0.28061-0.12026 0.34074-0.18039 0.461-0.5011 0.14031-0.44096 0.40088-2.0645 0.40088-2.2249 0-0.14031 0-0.28061-0.10022-0.28061-0.12026 0-0.18039 0.10022-0.22048 0.30066-0.10022 0.56123-0.30066 1.0623-0.66145 1.4432-0.70153 0.68149-1.7037 0.8218-3.0667 0.8218-3.5277 0-6.2336-2.9264-6.2336-6.2537 0-1.7639 0.30066-3.207 1.6035-4.3896 0.60132-0.54118 1.6236-1.1625 3.8484-1.1625 1.5434 0 2.9464 0.5011 3.5478 1.0222 0.50109 0.38083 0.7817 1.1625 0.7817 1.7438 0 0.26057 0.02 0.38083 0.16035 0.38083 0.10022 0 0.14031-0.10022 0.16035-0.38083 0.02-0.24053 0.02-1.2828 0.0401-1.844 0.0401-0.6414 0.10022-0.8218 0.10022-0.98215 0-0.10022-0.02-0.20044-0.18039-0.20044-0.48105-0.02004-1.1225-0.12026-1.7639-0.22048-0.98214-0.14031-1.7238-0.22048-2.6458-0.22048-2.6859 0-4.3094 0.74162-5.3918 1.7839-1.5835 1.5233-2.0244 3.5077-2.0244 4.6301 0 1.6636 0.44097 3.6279 2.1447 5.1112 1.4231 1.2227 3.227 1.824 5.8728 1.824z"/>
  <path d="m307.81 59.169c0.0802 0 0.12026 0.04009 0.16035 0.10022l1.5835 4.0288c0.12026 0.30066 0 0.40088-0.0802 0.44096-0.0802 0.02004-0.1403 0.08017-0.1403 0.14031 0 0.10022 0.12026 0.12026 0.50109 0.14031 1.3429 0.04009 2.8462 0.04009 3.0467 0.04009 0.22048 0 0.30066-0.04009 0.30066-0.14031 0-0.10022-0.10022-0.14031-0.24053-0.14031s-0.42092 0-0.68149-0.10022c-0.28061-0.10022-0.86188-0.36079-1.5233-1.9442-1.0623-2.5055-3.7883-9.5008-4.0689-10.162-0.22048-0.56123-0.30066-0.6414-0.40087-0.6414-0.14031 0-0.20044 0.10022-0.42092 0.68149l-4.0088 10.563c-0.34075 0.84184-0.68149 1.5033-1.5434 1.5835-0.12026 0.02004-0.30065 0.02004-0.40087 0.02004-0.16035 0-0.24053 0.06013-0.24053 0.14031 0 0.10022 0.10022 0.14031 0.3207 0.14031 0.84184 0 1.7238-0.06013 1.9242-0.06013 0.22048 0 1.1425 0.06013 1.5835 0.06013 0.1403 0 0.30065-0.04009 0.30065-0.14031 0-0.08018-0.0601-0.14031-0.24052-0.14031h-0.14031c-0.44096 0-0.66144-0.16035-0.66144-0.52114 0-0.3207 0.1403-0.86188 0.34074-1.4231l0.88193-2.5055c0.0401-0.10022 0.10022-0.16035 0.20044-0.16035zm-3.4475-0.70153c-0.0401 0-0.0802-0.04009-0.0401-0.12026l1.5033-4.4297c0.10022-0.28061 0.12026-0.28061 0.22048 0l1.5835 4.4297c0.02 0.06013 0.02 0.12026-0.0601 0.12026z"/>
  <path d="m319.54 51.954c0.58127 0 1.2026 0.02004 1.9643 0.02004 2.0244 0.02004 2.285 0.22048 2.3652 1.0222 0.02 0.20044 0.02 0.22048 0.02 0.28061 0 0.16035 0.0401 0.24052 0.14031 0.24052 0.0601 0 0.14031-0.06013 0.14031-0.24052 0-0.16035 0.0401-1.4832 0.0401-2.0445 0-0.08017-0.0401-0.18039-0.12027-0.18039-0.0601 0-0.12026 0.02004-0.38083 0.08018-0.28061 0.06013-0.88193 0.10022-1.4432 0.10022h-6.5744c-0.02 0-0.58127-0.02004-1.2828-0.10022-0.36079-0.04009-0.74162-0.22048-0.88193-0.22048-0.0601 0-0.12026 0.08018-0.18039 0.3207-0.12027 0.54118-0.42092 1.8641-0.40088 1.9843 0 0.10022 0.02 0.1804 0.10022 0.1804 0.0802 0 0.12026-0.02004 0.18039-0.16035 0.0401-0.10022 0.12027-0.34074 0.30066-0.62136 0.28061-0.42092 0.56123-0.62136 1.844-0.6414 0.80175-0.02004 1.8641-0.02004 2.5255-0.02004v7.1556c0 1.5033 0 2.9464-0.0802 3.668-0.0802 0.68149-0.1403 0.92202-0.52114 0.98215-0.16035 0.02004-0.28061 0.02004-0.44096 0.02004s-0.22048 0.08017-0.22048 0.14031c0 0.10022 0.0802 0.14031 0.30066 0.14031 0.52113 0 1.7037-0.06013 1.7839-0.06013 0.0802 0 1.2628 0.06013 2.285 0.06013 0.20044 0 0.26057-0.06013 0.26057-0.16035 0-0.06013-0.0802-0.12026-0.24053-0.12026-0.16035 0-0.54118-0.02004-0.78171-0.08018-0.50109-0.12026-0.54118-0.40088-0.60131-0.88193-0.0802-0.74162-0.10022-2.1647-0.10022-3.7081zm-1.2227 14.191c0 0.08017 0.02 0.12026 0.0802 0.16035 0.46101 0.30066 0.76167 0.58127 0.76167 1.0222 0 0.44096-0.10022 0.86188-0.8218 1.5634-0.0802 0.08017-0.14031 0.18039-0.14031 0.24053 0 0.16035 0.20044 0.12026 0.54119-0.14031 1.1625-0.88193 1.5634-1.9242 1.5634-2.6057 0-0.70153-0.36078-1.2026-0.6414-1.2026-0.6414 0-1.3429 0.78171-1.3429 0.9621z"/>
  <path d="m327.89 59.109c0 1.5033 0 2.9264-0.10022 3.648-0.0601 0.48105-0.12026 0.88193-0.46101 0.9621-0.16035 0.04009-0.38083 0.06013-0.48105 0.06013-0.18039 0-0.26057 0.06013-0.26057 0.14031 0 0.10022 0.14031 0.14031 0.3207 0.14031 0.56123 0 1.7438-0.06013 1.8039-0.06013 0.10022 0 1.2628 0.06013 2.285 0.06013 0.20044 0 0.28061-0.06013 0.28061-0.14031 0-0.08018-0.0401-0.12026-0.22048-0.14031-0.0802 0-0.5011-0.02004-0.76167-0.08018-0.52113-0.12026-0.60131-0.34074-0.68148-0.92202-0.10022-0.72158-0.0802-2.1246-0.0802-3.668v-3.0066c0-2.6458-0.02-3.1068 0.02-3.648 0.0401-0.58127 0.10022-0.88193 0.68149-0.9621 0.14031-0.02004 0.24053-0.02004 0.36079-0.04009 0.16035-0.02004 0.22048-0.06013 0.22048-0.14031 0-0.10022-0.10022-0.14031-0.30065-0.14031-0.56123 0-1.7238 0.06013-1.804 0.06013-0.0601 0-1.2026-0.06013-1.824-0.06013-0.22048 0-0.30066 0.04009-0.30066 0.14031 0 0.08018 0.0802 0.12026 0.22048 0.14031 0.12027 0.02004 0.26057 0.02004 0.46101 0.06013 0.42092 0.08018 0.54118 0.38083 0.58127 0.92202 0.0401 0.54118 0.0401 1.0222 0.0401 3.668z"/>
  <path d="m335.75 59.109c0 1.5233-0.0201 2.3451-0.0401 3.0266-0.0401 1.2427-0.28061 1.5033-0.6414 1.5835-0.14031 0.04009-0.28062 0.06013-0.40088 0.06013-0.10022 0-0.18039 0.06013-0.18039 0.14031 0 0.10022 0.10022 0.14031 0.28061 0.14031 0.48105 0 0.86188-0.06013 1.3229-0.06013 0.74162 0 1.6636 0.04009 2.3652 0.06013 0.70153 0 1.2628 0.04009 2.5856 0.04009 0.66144 0 0.80175-0.04009 0.88193-0.44096 0.0601-0.34074 0.22048-1.6035 0.22048-1.7438 0-0.12026 0-0.30066-0.12026-0.30066-0.0802 0-0.14031 0.08018-0.1804 0.28061-0.16035 0.74162-0.30066 1.1425-0.90197 1.3229-0.50109 0.14031-1.1425 0.12026-1.5233 0.12026-0.68149 0-1.1625-0.04009-1.4632-0.1804-0.42092-0.18039-0.52113-0.56123-0.56122-1.3028-0.0201-0.34074 0-2.1046 0-2.726v-1.4632c0-0.08017 0.02-0.14031 0.1403-0.14031 0.32071 0 1.9442 0.04009 2.4053 0.08018 0.76166 0.06013 0.88193 0.34074 0.9621 0.60131 0.0401 0.16035 0.0601 0.36079 0.0601 0.48105 0 0.14031 0.02 0.26057 0.12027 0.26057 0.0802 0 0.12026-0.06013 0.1403-0.22048 0.0201-0.26057 0.0201-0.66145 0.0802-1.2227 0.0601-0.58127 0.14031-0.9621 0.14031-1.0623s-0.0401-0.12026-0.0802-0.12026c-0.0802 0-0.14031 0.04009-0.22048 0.16035-0.16035 0.22048-0.46101 0.28061-0.92202 0.30066-0.42092 0.04009-2.4654 0.06013-2.7059 0.06013-0.10022 0-0.12026-0.08018-0.12026-0.20044v-4.5499c0-0.12026 0.0401-0.16035 0.10022-0.16035 0.0401 0 2.0244 0.02004 2.285 0.04009 1.0022 0.06013 1.1826 0.20044 1.3028 0.60131 0.0601 0.14031 0.12026 0.34074 0.1403 0.6414 0 0.14031 0.0401 0.22048 0.14031 0.22048 0.10022 0 0.14031-0.12026 0.14031-0.30066 0.02-0.38083 0.0401-0.70153 0.0601-1.0423 0.0401-0.5011 0.16035-0.78171 0.16035-0.90197 0-0.10022-0.0401-0.14031-0.0802-0.14031-0.0802 0-0.10022 0.02004-0.22048 0.06013-0.16035 0.06013-0.38083 0.08018-0.78171 0.10022-0.40087 0.02004-3.9687 0.02004-4.0689 0.02004-1.1224-0.02004-1.6636-0.06013-2.0645-0.06013-0.20044 0-0.30066 0.04009-0.30066 0.16035 0 0.06013 0.12027 0.12026 0.26057 0.12026 0.16035 0 0.36079 0.02004 0.48105 0.04009 0.58127 0.12026 0.72158 0.40088 0.76167 0.9621 0.0401 0.54118 0.0401 1.0222 0.0401 3.648z"/>
  <path d="m346.61 59.109c0 1.5033 0 2.9264-0.10022 3.648-0.0601 0.48105-0.12026 0.88193-0.46101 0.9621-0.16035 0.04009-0.38083 0.06013-0.48105 0.06013-0.18039 0-0.26057 0.06013-0.26057 0.14031 0 0.10022 0.14031 0.14031 0.3207 0.14031 0.56123 0 1.7438-0.06013 1.804-0.06013 0.10021 0 1.2628 0.06013 2.285 0.06013 0.20044 0 0.28061-0.06013 0.28061-0.14031 0-0.08018-0.0401-0.12026-0.22048-0.14031-0.0802 0-0.50109-0.02004-0.76166-0.08018-0.52114-0.12026-0.60132-0.34074-0.68149-0.92202-0.10022-0.72158-0.0802-2.1246-0.0802-3.668v-3.0066c0-2.6458-0.02-3.1068 0.02-3.648 0.0401-0.58127 0.10021-0.88193 0.68148-0.9621 0.14031-0.02004 0.24053-0.02004 0.36079-0.04009 0.16035-0.02004 0.22048-0.06013 0.22048-0.14031 0-0.10022-0.10021-0.14031-0.30065-0.14031-0.56123 0-1.7238 0.06013-1.8039 0.06013-0.0601 0-1.2026-0.06013-1.824-0.06013-0.22048 0-0.30066 0.04009-0.30066 0.14031 0 0.08018 0.0802 0.12026 0.22048 0.14031 0.12027 0.02004 0.26057 0.02004 0.46101 0.06013 0.42092 0.08018 0.54118 0.38083 0.58127 0.92202 0.0401 0.54118 0.0401 1.0222 0.0401 3.668z"/>
 </g>
</svg>
