<?xml version="1.0" standalone="no"?>
<!DOCTYPE svg PUBLIC "-//W3C//DTD SVG 20010904//EN"
 "http://www.w3.org/TR/2001/REC-SVG-20010904/DTD/svg10.dtd">
<svg version="1.0" xmlns="http://www.w3.org/2000/svg"
 width="71.000000pt" height="71.000000pt" viewBox="0 0 71.000000 71.000000"
 preserveAspectRatio="xMidYMid meet">
<metadata>
Created by potrace 1.14, written by Peter Selinger 2001-2017
</metadata>
<g transform="translate(0.000000,71.000000) scale(0.100000,-0.100000)"
fill="#000000" stroke="none">
<path d="M48 553 c-4 -216 -1 -241 27 -299 32 -65 149 -178 226 -218 l57 -30
58 35 c78 45 194 162 222 221 20 44 22 63 22 243 l0 195 -305 0 -305 0 -2
-147z m593 -25 c2 -202 1 -215 -24 -268 -26 -56 -125 -154 -201 -199 l-58 -35
-54 28 c-74 39 -174 133 -209 197 -30 54 -30 55 -33 242 l-4 187 291 0 291 0
1 -152z"/>
<path d="M80 492 c0 -171 1 -180 26 -230 29 -59 127 -154 198 -192 l47 -25 57
30 c68 36 170 134 198 190 16 34 19 66 22 223 l3 182 -275 0 -276 0 0 -178z
m480 68 l0 -40 -75 0 -75 0 0 -81 c0 -122 -41 -180 -87 -122 -20 24 -23 40
-23 116 l0 87 -75 0 -75 0 0 40 0 40 205 0 205 0 0 -40z m-328 -168 c4 -75 24
-112 83 -158 l34 -26 36 22 c61 37 85 84 85 162 l0 68 45 0 45 0 0 -56 c0 -31
-5 -74 -12 -96 -15 -50 -73 -116 -139 -158 -50 -33 -51 -33 -85 -16 -51 24
-134 105 -155 151 -12 26 -19 64 -19 108 l0 67 39 0 39 0 4 -68z"/>
</g>
</svg>
