<?xml version="1.0" standalone="no"?>
<!DOCTYPE svg PUBLIC "-//W3C//DTD SVG 20010904//EN"
 "http://www.w3.org/TR/2001/REC-SVG-20010904/DTD/svg10.dtd">
<svg version="1.0" xmlns="http://www.w3.org/2000/svg"
 width="700.000000pt" height="700.000000pt" viewBox="0 0 700.000000 700.000000"
 preserveAspectRatio="xMidYMid meet">
<metadata>
Created by potrace 1.14, written by Peter Selinger 2001-2017
</metadata>
<g transform="translate(0.000000,700.000000) scale(0.100000,-0.100000)"
fill="#000000" stroke="none">
<path d="M0 3500 l0 -1751 1038 4 1037 3 95 26 c128 35 245 87 348 154 82 54
225 186 288 267 l29 37 40 -38 c22 -21 72 -62 110 -91 39 -29 78 -59 88 -67 9
-8 19 -14 21 -14 2 0 33 -17 67 -38 186 -112 448 -202 669 -229 79 -10 354
-10 430 -1 420 53 821 265 1103 585 25 29 48 49 50 45 2 -4 3 -150 2 -325 l-1
-317 793 0 793 0 0 1750 0 1750 -793 0 -793 0 1 -312 c0 -172 -1 -318 -3 -325
-2 -6 -22 10 -45 35 -111 124 -241 238 -357 314 -167 109 -397 207 -573 244
-68 14 -119 23 -172 31 -68 9 -370 10 -430 1 -22 -4 -60 -9 -85 -13 -25 -4
-58 -11 -75 -16 -16 -4 -42 -10 -56 -13 -14 -2 -73 -20 -130 -39 -525 -176
-937 -593 -1106 -1118 -20 -63 -37 -115 -38 -116 -1 -2 -25 7 -54 18 -95 36
-213 60 -326 66 -60 3 -111 6 -112 7 -1 1 12 17 29 36 214 242 239 602 59 875
-103 157 -247 257 -436 305 -76 18 -115 19 -792 20 l-713 0 0 -1750z"/>
</g>
</svg>
