<svg xmlns="http://www.w3.org/2000/svg" width="368" height="112"><path fill="#fff" fill-rule="evenodd" d="M89.263 33.752c12.258 18.32 7.31 43.263-11.007 55.522-18.327 12.252-43.268 7.304-55.519-11.02-12.26-18.327-7.313-43.26 11.009-55.518 18.325-12.256 43.268-7.307 55.516 11.017"/><path fill="#1b458f" fill-rule="evenodd" d="M88.569 34.426c11.97 17.895 7.134 42.244-10.756 54.21-17.89 11.968-42.238 7.14-54.207-10.756-11.965-17.892-7.134-42.238 10.752-54.21C52.25 11.706 76.6 16.538 88.568 34.427"/><g fill="#fff"><g fill-rule="evenodd"><path d="M76.57 86.76c-16.98 11.36-39.967 6.802-51.32-10.182-11.366-16.991-6.807-39.972 10.177-51.334 16.982-11.36 39.972-6.8 51.328 10.183C98.119 52.413 93.56 75.402 76.569 86.76m11.042-51.902C75.968 17.445 52.267 12.742 34.85 24.388 17.441 36.034 12.74 59.738 24.386 77.15c11.645 17.413 35.347 22.116 52.765 10.464 17.407-11.642 22.11-35.341 10.46-52.757"/><path d="M68.758 75.073c-10.532 7.051-24.786 4.218-31.836-6.312-7.042-10.536-4.213-24.79 6.323-31.833 10.53-7.043 24.783-4.22 31.83 6.316 7.043 10.528 4.215 24.787-6.317 31.83m7.192-32.417c-7.364-11.019-22.28-13.975-33.297-6.61-11.017 7.368-13.976 22.283-6.605 33.306 7.368 11.015 22.277 13.977 33.298 6.603 11.012-7.369 13.977-22.28 6.602-33.298M25.467 54.537a1.46 1.46 0 0 1 1.464 1.464 1.466 1.466 0 1 1-1.464-1.464m61.189 0a1.464 1.464 0 1 1-.003 2.93 1.464 1.464 0 0 1 .003-2.93"/></g><path d="M32.466 43.378c.302-.583.445-1.082.55-1.711l-1.417-.735c-.264-.14-.382-.137-.556.096l-.418.558-.624-.326 1.303-2.508.624.324-.135.454c-.087.297-.008.36.254.496l1.862.967c-.045.682-.11 1.796-.715 2.964-1.176 2.253-3.07 2.473-5.52 1.203-2.234-1.16-3.481-3.122-2.216-5.555.365-.701.789-1.413 1.913-2.195l1.643 1.07-.396.762-1.293-.382c-.516.407-.834.712-1.234 1.477-.434.828-.378 1.338-.216 1.821.178.565 1.465 1.515 2.265 1.932 1.757.913 3.465.948 4.326-.712m5.83-10.221c1.475 1.526.832 3.227-.245 4.268-1.386 1.333-2.804 1.251-4.098-.082l-3.172-3.299c-.205-.211-.322-.261-.57-.083l-.532.361-.487-.512 2.155-2.079.49.51-.384.519c-.183.243-.141.353.07.569l3.046 3.157c1.172 1.216 2.269.771 3.086-.008.34-.335.633-.797.651-1.251.02-.384-.215-.87-.916-1.598l-2.977-3.09c-.212-.214-.317-.256-.566-.083l-.531.363-.496-.51 2.124-2.044.492.51-.38.519c-.187.238-.147.346.063.568zm7.036-.864-.793.38-5.6-5.469c-.312-.317-.576-.26-.857-.157l-.4.139-.308-.64 2.902-1.397.303.624-.537.338c-.216.135-.285.22-.216.357a.986.986 0 0 0 .174.228l4.323 4.377-.946-6.012a1.234 1.234 0 0 0-.068-.249c-.07-.151-.197-.157-.444-.062l-.6.208-.302-.623 2.686-1.3.303.634-.378.243c-.25.16-.346.274-.29.708zm3.742-1.518-.106-.71.608-.207c.29-.092.325-.204.28-.505l-.932-6.05c-.045-.297-.114-.432-.417-.422l-.636.023-.102-.666 6.093-.93.242 2.048-.757.12-.203-.82c-.066-.293-.22-.32-.504-.279l-2.75.424.426 2.783 2.778-.42.133.862-2.776.425.488 3.152 2.757-.422c.288-.047.418-.111.398-.415l-.064-.898.792-.122.392 2.084zm10.046-5.382 1.056.147c.44.058.824.1 1.206-.139.367-.226.56-.54.653-1.215.145-1.069-.542-1.53-1.612-1.674l-.886-.125zm-.475 3.456c-.044.299 0 .423.29.498l.762.2-.1.714-3.124-.427.1-.705.647-.017c.299-.008.36-.107.402-.404l.828-6.034c.05-.3.02-.41-.278-.5l-.614-.193.098-.698 3.124.432c1.637.224 2.645.867 2.426 2.51-.237 1.684-1.71 2.004-2.472 2.008.245.093.496.452.67.842L62.43 29.3c.245.514.556.722.853.757.128.019.352-.012.431-.02l-.155.64c-.106.06-.476.193-.974.119-.64-.085-.987-.63-1.25-1.189l-1.239-2.749c-.124-.259-.297-.524-.663-.576l-.428-.058zm8.547 2.166c-.146.263-.162.381.083.568l.504.398-.343.62-2.624-1.435.336-.618.61.207c.286.102.378.03.523-.232l2.923-5.358c.145-.264.172-.411-.077-.587l-.506-.36.338-.622 1.77.965.545 7.976 2.622-4.804c.147-.268.18-.409-.062-.587l-.515-.36.34-.622 2.596 1.417-.334.62-.587-.234c-.278-.112-.386-.008-.529.255l-3.538 6.469-.925-.507-.534-7.963zm11.683 7.244c-1.533 1.47-3.23.82-4.267-.261-1.324-1.39-1.247-2.811.1-4.096l3.304-3.163c.218-.207.266-.317.09-.566l-.366-.536.514-.487 2.077 2.166-.514.487-.52-.383c-.238-.187-.35-.146-.57.062l-3.167 3.035c-1.22 1.17-.78 2.271 0 3.084.332.349.792.637 1.248.666.38.019.87-.22 1.6-.917l3.097-2.968c.216-.206.264-.316.087-.56l-.355-.536.505-.491 2.04 2.13-.51.488-.518-.384c-.243-.182-.353-.143-.566.065zm-.895 3.592.627-.313.392.517c.174.244.293.24.56.103l5.429-2.753c.267-.134.34-.225.249-.518l-.193-.61.63-.325 1.388 2.74-.626.321-.42-.585c-.175-.242-.296-.238-.562-.101l-5.785 2.929 1.08 2.13c.131.258.237.361.52.25l.835-.345.36.717-1.86 1.021zM28.475 67.849l.477.987c.2.415.378.761.801.96.407.19.782.17 1.419-.13.996-.48.996-1.33.52-2.334l-.398-.83zm-3.234 1.556c-.28.126-.363.238-.27.53l.264.77-.668.32-1.402-2.927.651-.315.39.543c.18.255.3.253.577.118l5.65-2.711c.28-.129.357-.224.27-.525l-.178-.637.653-.315 1.4 2.931c.737 1.535.756 2.77-.784 3.502-1.578.76-2.682-.322-3.124-.982.058.26-.103.685-.342 1.06l-1.323 2.141c-.305.5-.303.882-.169 1.16.057.122.204.297.262.355l-.64.232c-.109-.056-.428-.297-.653-.763-.288-.604-.022-1.21.312-1.747l1.657-2.628c.154-.255.284-.552.116-.899l-.19-.398zm10.019 4.63c-.656.047-1.863.88-2.647 1.667-1.562 1.581-1.799 3.253-.482 4.556.567.564 1.139.87 1.793.821.653-.045 1.864-.881 2.642-1.667 1.562-1.581 1.798-3.26.485-4.558-.57-.564-1.134-.863-1.792-.82m-4.086 6.562c-1.859-1.844-1.222-3.902.647-5.792 1.647-1.661 4.045-2.417 6.194-.284 1.85 1.84 1.218 3.906-.651 5.785-1.653 1.664-4.047 2.415-6.19.29m7.044 5.795.272-.68.645.139c.307.07.365-.013.504-.295l2.771-5.8c.082-.218.03-.344-.211-.482l-.568-.306.267-.672 2.292.912-.396 7.615 4.698-5.914 2.432.967-.272.68-.666-.186c-.282-.07-.402-.028-.506.224l-1.894 6.12c-.091.3-.104.396.164.561l.635.363-.274.68-2.93-1.16.268-.684.646.177c.265.068.392-.015.479-.234l1.916-6.06-4.972 6.136-.813-.326.348-7.967-2.609 5.763c-.08.24-.058.386.197.527l.575.307-.272.676zm17.604-3.395-.13.554-1.177 3.491 2.67-.023-1.222-3.47zm.554-2.516 1.419 1.38-.467.33-1.419-1.082-1.381 1.102-.486-.33 1.41-1.392zm-1.02 1.458 1.15-.013 2.697 7.485c.15.435.28.508.598.566l.477.077.004.73-3.167.023-.002-.701.676-.116c.22-.04.32-.137.32-.303a.62.62 0 0 0-.057-.24l-.552-1.567-3.275.025-.504 1.537a.738.738 0 0 0-.046.257c0 .189.112.282.334.317l.67.109.004.703-2.96.018-.008-.728.473-.09c.307-.06.425-.136.572-.574zm11.038 6.019c.118.286.2.371.506.307l.643-.135.272.68-2.87 1.119-.269-.674.569-.343c.27-.161.278-.28.161-.566l-2.287-5.848c-.117-.286-.216-.407-.517-.328l-.626.162-.266-.671 1.929-.76 6.655 4.837-2.056-5.248c-.112-.288-.2-.413-.502-.334l-.624.168-.268-.678 2.84-1.114.263.678-.572.3c-.27.148-.257.306-.152.594l2.768 7.061-1.002.397-6.649-4.84zM78.96 82.3l-2.42 1.917-.45-.57.45-.492c.208-.23.177-.35-.018-.59l-3.89-4.905c-.196-.249-.305-.298-.572-.151l-.585.324-.45-.571 2.418-1.92.447.57-.44.497c-.218.229-.183.345.008.583l3.898 4.915c.193.238.298.296.566.145l.587-.32zm3.223-3.03-.598-.442.297-.589c.147-.278.089-.384-.16-.566l-5.058-3.76c-.248-.184-.395-.234-.611-.01l-.447.482-.555-.411 3.781-5.093 1.66 1.328-.475.633-.732-.453c-.264-.168-.394-.08-.569.158l-1.703 2.3 2.321 1.726 1.723-2.315.723.536-1.72 2.317 2.63 1.958 1.72-2.307c.177-.237.223-.386-.01-.585l-.699-.614.494-.668 1.794 1.25zm6.823-11.805-1.15 2.869-.675-.27.14-.65c.07-.306-.014-.393-.302-.503l-5.82-2.326c-.283-.11-.405-.11-.567.158l-.345.566-.678-.27 1.148-2.862.673.267-.138.648c-.071.302.014.392.302.506l5.821 2.325c.284.116.41.11.566-.16l.347-.564z"/><g fill-rule="evenodd"><path d="m59.016 56.588-.073.04.033.076-.099-.008-.027.106-.106-.048-.089.069-.077-.064-.097.043-.03-.085-.103.004.014-.087-.1-.019.026-.083-.09-.06.075-.054-.035-.083.08-.047v-.083l.098-.013.023-.087.106.033.066-.073.07.073.098-.033.028.087.088.002.009.09.101.026-.018.087.08.06-.08.059zm2.464.046c.027.28-.664.3-.695-.168.017-.475.687-.482.687-.216-.203-.033-.32.06-.32.216.015.122.12.208.328.168m-12.675-.797h7.15l.016-.025-.015-6.671h7.29l.008 6.68-7.047.008.002.008c.388 1.363.751 2.508 1.118 3.473h2.303v-.367c-.114.162-.282.13-.37-.044-.14.137-.294.106-.35-.072-.13.136-.32.116-.37-.092-.068.228-.184.376-.472.359-.274.081-.353.071-.422.01-.215.073-.277.073-.36.036l.514-1.712c.096-.315.299-.467.722-.396.371.064.355.434.272.678.278.052.467.065.763.075.015 0 .028 0 .033-.004a.154.154 0 0 0-.043-.006c.133-.11.151-.162.213-.282h-.134c.139-.116.168-.156.222-.27-.106.068-.434.27-.558.064.004-.03.354-.058.385-.132-.014-.013-.008-.03-.014-.044a.54.54 0 0 0-.406.025c-.048-.201.063-.282.44-.278.79-.235.607.042.85.433-.044 0-.106-.008-.152-.008a.946.946 0 0 0 .179.26.686.686 0 0 0-.168-.031c.047.118.074.153.14.25a.092.092 0 0 0-.04.013c.011 0 .02.002.032.006.216-.05.349-.073.494-.128-.112-.239-.13-.54.276-.646.284-.066.515.065.612.256l.931 1.848c-.03.066-.118.066-.41-.006-.1.051-.156.06-.384-.031-.206.037-.332 0-.502-.37-.027.183-.145.226-.32.085-.041.195-.193.226-.323.056-.037.187-.174.229-.33.098l.037.367 2.622.002v.543h.01v1.303c-.026 1.527-2.317 2.193-3.534 2.662-1.311-1.345-2.448-3.392-3.75-7.955-.434 1.516-.841 2.754-1.237 3.779l-.322.029v-.328h-.205c.127-.278.095-.392.14-.624.03-.144.173-.129.186-.034.112-.134-.052-.305-.218-.155-.058-.114-.06-.139-.017-.247.067-.058.203-.052.208.066.149-.095-.056-.487-.326-.168-.058-.074-.079-.124-.079-.19.092-.106.175-.088.189.012.152-.118-.097-.367-.278-.164-.168-.299-.29-1.016.133-1.114.244-.05.383.042.5.208.014.068.083.19-.046.238.025.05.06.073.116.09-.182.126.091.427.091.578.065-.087.09-.139.065-.22.033.036.029.056.043.108.083-.108.013-.187-.014-.259.041.037.052.064.085.101.044-.207.014-.242-.044-.315.063-.01.073-.056.108-.101-.199-.02-.307-.459-.568-.556-.747-.223-.946.473-.736 1.09.085.264.27.673.342.93.045.162.043.386-.098.726h-.24v.328h-.326c-.508-.444-.662-.884-.97-1.224.1.066.242.17.427.18-.073-.114-.152-.16-.152-.299.16.175.396.173.533.131-.174-.136-.288-.224-.296-.533.147.119.2.181.296.289.15-.282.063-.43-.075-.624.123.09.1.039.237.07-.048-.125-.021-.14-.141-.249.12.048.07 0 .168 0-.04-.085-.01-.139-.164-.228.106 0 .106-.05.154-.1-.353-.108-.141-.237-.53-.37.117-.176-.145-.294-.234-.117-.066-.03-.066-.052-.137-.063.033-.25-.296-.226-.255 0-.18.052-.236.063-.371.133a.27.27 0 0 0-.019.133 1.77 1.77 0 0 1-.405.176c-.074 0-.089.067-.002.067 0 .041.023.201.04.273.002.052.035.046.041.005 0-.02.135-.123.187-.127.004-.054.03-.054.033 0 .044.016.075.06.073.218-.57-.05-.648-.05-.69-.158-.028-.13-.119-.101-.051.035.023.073.05.123.712.175-.056.054-.12.068-.255.076 0-.06-.031-.06-.034 0-.014 0-.029.023-.029.067a.366.366 0 0 0-.045.064c-.133-.016-.222-.089-.44-.064-.243-.322-.573-.143-.894-.689l-.008.004h.004l.097-.05.117.212.12-.06-.12-.21c.437-.182.715-.27 1.246-.284.164-.172.253-.242.409-.417-.718-.05-1.137.183-1.722.569l-.012.002-.13-.228-.117.058.074.128c-.062-.075-.168-.137-.288-.075-.139 0-.207.02-.257.123-.17.02-.174.326-.042.38l.009-.004v.004l-.073.04.07.111.162-.08c.003.078.017.111.077.155.033-.025.07-.052.11-.086.017.11.027.19.081.308.04-.038.066-.058.097-.092.005.143.015.193.046.305.046-.043.091-.085.129-.112-.017.145-.017.243.064.314.031-.052.031-.092.048-.148.066.065.139.148.263.201.006.025.05.065.065.09-.075.07-.121.085-.227.1.112.082.168.082.311.043-.06.064-.089.13-.171.161.103.023.161.023.256.023-.25.005-.39.044-.647.243.027-.108.088-.238-.018-.211-.05.022-.093.012-.143-.032-.06 0-.053.075-.053.16-.008-.128-.037-.24-.13-.203-.027.056-.064.087-.166.075-.025.024 0 .066.025.095.014.01.035.033.05.048 0 0-.031-.02-.05-.048-.05-.044-.093-.056-.13-.009.01.083 0 .106-.04.152.018.07.027.056.17.06-.12 0-.152.017-.185.075a.21.21 0 0 1 .07.195c.098.056.312-.052.397-.14a.192.192 0 0 1 0 .144c.177-.046.31-.13.344-.182.017.051-.016.089-.008.168.102-.032.162-.042.23-.123a2.056 2.056 0 0 0-.041.152c.133-.033.166-.04.244-.152-.012.081-.004.081 0 .137.154-.073.177-.066.27-.182-.025.095-.02.103-.014.178.14-.075.187-.106.23-.224.019.046.013.085.027.155a.55.55 0 0 0 .197-.184c.009.041-.033.093-.033.151.108-.025.166-.058.215-.133.125.422.68.422.766.662v.232h-.684v-.319H51v.328h-.689v-.328h-.73v.328h-.784zm.476-1.215v-3.326c0-.512.404-.997.979-.88.466.1.682.322.466.779.295.178.502.255.92.327.06-.118.155-.263.25-.375-.058.015-.085.015-.143.025.133-.131.289-.166.317-.293.02-.074-.07-.224-.134-.267-.056.014-.125.008-.183.008v.295h-.176v-.368a.245.245 0 0 0-.114.125c-.135-.22-.037-.344.118-.41-.004-.144 0-.246-.004-.385-.073 0-.164.01-.266.032 0-.067-.01-.148-.01-.208.125.014.154.019.276.014 0-.082-.031-.193-.046-.273.091.006.175.002.266 0-.013.087-.044.176-.044.273.127.005.168-.005.27-.024 0 .083.004.138 0 .197-.077-.01-.195-.01-.27-.019 0 .091.008.27.008.35a.349.349 0 0 1 .096-.016l.004-.002h.002c.102-.213.473-.27.708-.218.321.075.288.444.574.604-.093.025-.104.048-.166.01.033.162.114.197.156.328-.077-.015-.083-.015-.14-.025.076.106.14.228.165.324-.081-.01-.09-.017-.154-.017.052.091.125.243.133.33.417-.025.612-.064.859-.214-.16-.431-.187-.695.385-.877.432-.077 1.027.025 1.027.958v3.133c.007.253.042.377.179.52-.216-.052-.382-.133-.593-.524-.13-.01-.25-.092-.443-.436-.379-.116-.412-.127-.412-1.344-.038.107-.077.107-.198.155-.142-.023-.192-.097-.24-.17-.033.09-.064.127-.176.14-.048-.028-.083-.047-.15-.117.117.19.38.606.566.89-.124-.035-.159-.042-.287-.073.213.38.254.46.53.899.021.043.038.026.081.026.158.017.2-.083.295.009l-.002.01.002-.002c.091-.031.203.013.174.176-.035-.05-.06-.079-.145-.068 0 0 0 .014-.002.022-.137.046-.114-.043-.278-.008.114.137.24.098.26.241 0 .019-.003.031-.018.037l.007.027c.066.069.05.16-.012.241-.036-.183-.096-.15-.11-.185l-.013-.006c-.004.006-.027.008-.054.003-.193-.152-.06-.191-.147-.31-.031-.012-.037-.018-.058.006-.063.2.097.222-.063.368-.022.004-.035.002-.051 0 .025.068-.102 0-.109.182-.147-.11-.109-.195-.04-.22l-.005-.006c-.006-.012-.029 0-.037-.017.008-.085.145-.165.21-.307 0-.024 0-.024-.038-.037-.178.062-.083.125-.29.15a.066.066 0 0 1-.023-.021c-.027.058-.112-.009-.119.132-.09-.074-.045-.238.055-.238.014 0-.023-.02 0-.046.057-.066.145-.012.294-.087.033-.016.016-.03.016-.03-.165-.238-.44-.553-.57-.8-.007.129-.04.256-.095.303-.133-.261-.191-.348-.374-.637-.031.052-.018.036-.068.067-.035-.005-.07-.04-.1-.046.145.701.208.853.569 1.44-.086.068-.35.147-.46.211.04.081.09.141.144.222a2.702 2.702 0 0 1-.638.289c-.304-.094-.407-.146-.71-.289.058-.087.106-.176.137-.26-.212-.105-.32-.153-.56-.26.537-.702.591-.784.788-1.351-.029.013-.052.02-.098.044a.645.645 0 0 0-.07-.11c-.155.282-.185.286-.392.517-.05-.067-.069-.092-.069-.17-.053.053-.296.281-.749.731 0 0-.008.028.021.038.14.075.24.025.291.08.008.024.008.036.002.042h-.019c.085.044.158.177.077.24-.004-.138-.096-.08-.116-.128v-.002c-.004.006-.006.012-.025.015-.07-.003-.334-.193-.334-.098.064.133.206.208.214.288-.008.02-.083 0-.048.025.048.027.108.116-.035.208-.007-.15-.102-.12-.116-.151-.002-.009-.009.006-.015-.003-.12-.02-.036-.178-.098-.367-.016-.03-.023-.027-.056-.012-.1.11.044.153-.153.292-.033.01-.048.008-.062 0-.009.056-.073 0-.106.191-.07-.083-.097-.172-.012-.243.018-.018-.013-.014-.023-.051.024-.134.153-.102.257-.235-.151-.03-.13.04-.262-.01-.093-.017-.122.01-.157.068-.038-.16.08-.207.172-.176l.004.002c-.004-.002-.004-.004-.004-.004.101-.096.137.002.3-.01.046 0 .057.001.086-.032.12-.122.62-.717.745-.859-.098.038-.156.027-.268-.002.116-.164.29-.524.444-.806 0-.007-.054.107-.145.134-.096-.027-.127-.06-.172-.15-.067.107-.1.1-.208.173-.104-.035-.158-.066-.218-.157-.051.477-.104.925-.419 1.111-.072.276-.168.415-.49.556a.84.84 0 0 1-.55.591c.063-.13.096-.215.128-.356m.705-5.048.093-.06v-.101l.101-.01.028-.102.12.043.073-.085.072.085.11-.043.03.101.1.01v.098l.117.033-.025.113.087.06-.08.074.033.079-.081.048.03.097-.107-.006-.03.112-.11-.056-.103.081-.08-.069-.106.05-.036-.099-.106.004.013-.1-.108-.022.02-.102-.097-.075.09-.056zm3.41-.089c0-.226.882-.321.902.26-.035.566-.902.483-.902.215.274.148.459-.051.467-.215-.008-.16-.224-.347-.467-.26m5.335 14.368c-.215.027-.632.058-.854-.174-.303.267-.668.36-.981.276h-.015c-.205.182-.462.097-.2-.075-.215-.044-.516-.135-.516-.374.034-.082.129-.089.208-.004l.013-.004c.116-.077.08-.035.147-.155-.405-.424.64-.807.392-.984-.12-.097-.222.03-.29.125-.115-.2.045-.386.36-.386-.106-.235-.302-.65-.503-.884-.173-.208-.327-.624-.235-1.151.197-.882.029-.724-.032-.98-.076-.31.02-.439.287-.578-.178.299.5.48.237.938.784.13.263.777.489 1.124-.577-.208-.235-.643-.58-.651-.204-.01.584 1.097.586 1.174.033-.05.067-.063.145-.069a.222.222 0 0 1 .17-.072 2.282 2.282 0 0 0-.01.533c.222.286.417.55.502.734.141.289.151.784-.052 1.226.226-.126.342-.137.509-.255a.357.357 0 0 1 .026.218c.098.012.148 0 .297.12-.124.027-.251.064-.307.152.087 0 .191.082.207.176m-3.335.027c.228.155.01.24-.195.075h.004l-.023-.009c-.32.09-.715 0-1.033-.267-.286.276-.655.24-.942.261.025-.116.123-.195.256-.218-.074-.128-.16-.151-.289-.178.112-.087.195-.08.324-.127a.402.402 0 0 1 0-.23c.172.118.296.129.527.255-.21-.442-.201-.937-.056-1.226.105-.21.35-.523.62-.85l-.097.116a2.011 2.011 0 0 0-.003-.533c.079 0 .121.02.177.072.08.006.114.019.149.069.5-.61.948-1.184.614-1.174-.363.008-.004.443-.608.651.23-.347-.307-.994.512-1.124-.282-.459.424-.639.243-.938.278.139.368.268.297.579-.06.255-.245.097-.035.979.095.527-.064.943-.245 1.151-.205.235-.409.65-.517.884.33 0 .492.187.376.386-.079-.095-.175-.222-.303-.125-.255.177.822.56.404.984.071.12.032.078.16.155l.009.004c.082-.085.176-.078.222.004 0 .239-.32.33-.548.374m-3.004-1.52h-.01l.01-1.117.24-.31.43-.194.432.174.248.33.092.382a14.88 14.88 0 0 1-.525.898c-.102-.043-.212-.097-.265-.162-.15.229-.467.175-.652-.002M51 62.384h-.006c-.253.133-.544.11-.706-.129-.215.25-.474.25-.698.106h-.007v-1.126l.305-.376.423-.114.453.154.236.352zm-.952 1.004c1.979.639 3.948 1.316 5.916 1.983 2.21-.665 7.325-1.97 7.638-3.783v-.005c.017-.11.034-.34.027-.456l-.01-12.447-15.212.007v12.946c0 .032.004.056.004.083.09.855.875 1.33 1.637 1.672"/><path d="M58.787 60.833h.165v.234h.317v-.419h-.156v-.207h.156v-.324h-.156v.18h-.161v-.18h-.165v.18h-.168v-.18h-.172v.324h.172v.207h-.172v.42h.34z"/><path d="M64.014 61.584c.072 1.919-2.871 2.412-8.05 4.333-4.926-1.686-7.853-2.093-7.942-3.935v-13.65h15.992zM52.332 40.439v-.342c.647-.006 1.353.234 1.737.31l.201.495c-.527-.2-1.35-.465-1.938-.463m2.903-1.523c0 .008 0 .019.006.023a.533.533 0 0 1-.403.637.534.534 0 0 1-.644-.388l-.007-.023zm6.837 27.258c.01.023.013.034.01.04l-.018-.04zm.025.006.03.082a.838.838 0 0 1-.042-.084c.006 0 .01 0 .012.002m8.592-11.784c.069 0 .469.238.54.238-.475-1.441-.36-3.462-.326-5.717.149.06.444.299.593.363-.118-1.275-.087-1.568-.087-2.288 0-4.48-2.333-5.68-4.161-6.178-3.26-.744-5.529 1.834-4.745 4.568-.188.86-.661 1.507-1.462 1.87-.658.228-1.583.284-1.969-.47.172.113.3.17.517.175-.2-.208-.309-.51-.404-.853-.154-.582-.252-1.3-.621-1.927.37.315.498.637.626.933.18-.844-.076-1.875-.458-2.331.314.158.322.12.55.361.056-.47-.017-.664-.16-.96-.008-.67-.08-.884-.39-1.278.322.143.55.12.844-.046-.43-.147-.726-.402-1.035-.873-.398-.594-.453-1.65-1.775-1.627-.663.01-1.224-.101-2.313.096-.308.04-1.056.292-1.73.26l.055.364-.358.09a1.317 1.317 0 0 1-.094.024v-.35l.003-.003v-.054l-.003-.132v-.593c.475.006.897.052 1.361.105l-.02-.927c-.482.07-.934.11-1.426.145.054-.45.102-.867.184-1.304-.317.02-.628.02-.941 0 .085.437.129.844.168 1.292a19.663 19.663 0 0 1-1.34-.114l.027.888c.195-.03 1.029-.048 1.321-.052v1.253c-.48.164-.896.508-.508 1.427.133-.317.237-.52.517-.612 0 1.454.11 3.052-.26 4.452.513-.179.69-.187 1.212-.017-.348-1.222-.326-2.541-.289-3.803.05.003.102.007.154.017.747.1 1.52.386 1.726 1.23.2.788-.415 1.214-.753 1.836-.641 1.287-.4 2.35-.998 2.982.2.018.413-.013.413-.013-.471.647-1.382.647-2.062.444-.552-.2-1.112-.87-1.35-1.639 1.018-3.309-2.407-5.404-4.869-4.68-1.317.386-3.878 1.224-3.979 6.244-.068.734.052 1.174-.147 1.923.232-.07.321-.106.529-.211 0 2.08-.004 4.868-.432 5.793a1.28 1.28 0 0 0 .531-.278c.18 8.607.289 14.915-.327 16.413.93-.302 1.348-.433 1.883-1.083.26-.04.506-.074.728-.135v-10.56c-.406-1.558-.803-3.12-1.174-4.682-.137-.606-.17-1.013.006-1.619l.179-.622.5.425c.2.166.359.337.49.507v-6.551c0-.13.107-.233.234-.233.128 0 .232.104.232.233v7.486c1.068 3.064 1.873 6.215 2.693 9.36V45.196c0-.137.103-.239.232-.239s.24.102.24.239v19.956c.048.203.104.396.154.597.454-.608.739-1.264.903-2.243.292.413.802.745 1.514 1.059-.581 1.004-.666 1.298-1.606 1.792.676.29 1.367.342 1.96-.037a.574.574 0 0 1-.03.112c-.185.34-.322.649-.486.933-.205.359-.377.5-.627.797-.512.166-.746-.092-1.308.035a.048.048 0 0 1-.03.014c-.039-.097-.068-.188-.047-.196.066-.021.13-.054.158-.123.062.004.184-.07.223-.124a.18.18 0 0 0 .204-.117l.794-.232c.092.044.208.079.245.006.266-.112.32-.26.349-.369a.501.501 0 0 0-.538-.102c-.08-.054-.151.081-.164.137l-.8.243c-.09-.042-.191-.058-.26 0-.08-.042-.199-.02-.247.048-.033-.017-.134-.063-.199-.048-1.207-4.265-2.277-9.037-3.74-13.237-.187-.535-.394-.848-.817-1.211-.154.541-.127.865 0 1.41 1 4.236 2.369 9.093 3.466 13.347.006 0-.161.052-.201.131-.058-.027-.189.037-.239.1a.194.194 0 0 0-.192.12l-.766.234c-.104-.035-.174-.058-.238.017-.206.018-.368.24-.397.346.083.07.305.193.527.095.085.021.18-.043.235-.145l.75-.224c.059.073.181.044.256 0 .064.046.211.021.255-.029.07.054.15.06.232.038a.213.213 0 0 1 .067-.013c.01.035.051.177.087.293-.515.226-.567.448-.459.699.004.037.019.085.031.127-.273.072-.487.408-.338.67 0 .116.056.224.172.314l.009-.004h.016c-.187.227-.313.617.257.708-.078.475.206.458.422.533.122.108.211.14.41.197.293.025.453.081.716.224a.921.921 0 0 0 .643-.058.47.47 0 0 0 .212-.25c.321-.146.39-.21.452-.574.321-.406.558-1.466.624-1.676.295-.925.797-1.707 1.402-2.5-.105.658.028 1.43.554 1.829.077-1.426.658-2.15 1.302-3.125.18.052.582-.025.561.173-.373 3.561-2.877 4.752-4.038 5.795.435.394 1 .768 1.476 1.205-.145.222-.265.326-.44.542.329.197 1.687 1.042 2.075 1.284-.143.274-.303.448-.498.75 1.51.97 2.284 1.345 3.823 2.241.021-.01 2.515-1.207 4.104-2.126a14.546 14.546 0 0 1-.463-.68c.861-.509 1.577-.988 2.236-1.417a11.347 11.347 0 0 1-.46-.546c.826-.597.892-.65 1.53-1.145-2.613-2.454-3.526-3.234-4.53-6.036.29-.1.575-.198.838-.293.795 1.112 1.189 1.567 1.52 3.089.54-.533.414-1.06.455-1.795.027.021.046.042.067.065l-.015-.008a.053.053 0 0 0-.025-.023c.006 0 .006.003.006.01-.006-.007-.012-.01-.025-.023.602 1.002.957 1.55 1.423 2.35.057.449.063.68.167.926h.018c.07.183.185.352.413.61 0 .315.272.61.504.724a.397.397 0 0 0 .083.192c.18.194.666.202.931.146.198-.162.32-.152.52-.197.196-.03.196-.05.424-.092.183-.095.324-.139.434-.193.147-.128.124-.367 0-.462.28-.195.666-.417.296-.685-.023-.008-.04-.025-.058-.037a.716.716 0 0 0-.083-.863c0-.459-.226-.695-.564-.993-.008 0-.012 0-.02-.003.645-2.182 1.315-4.985 1.977-7.507.286.019.333-.137.377-.299.207-.058.257-.214.107-.388.27-.114.285-.28.214-.491.83-.942 1.413-1.566 1.51-1.886.08-.338-.188-1.025-.452-2 .027-.106.09-.353-.182-.42-.02-.021-.035-.049-.056-.063a.278.278 0 0 0 .141-.24.274.274 0 0 0-.278-.275.276.276 0 0 0-.28.274c0 .046.012.085.03.116-.055.013-.113.046-.177.081-.254-.056-.388.152-.45.305-.642.693-1.29 1.187-1.42 1.513-.037.298-.018 1.034.187 2.209-.263.118-.292.338-.137.545-.236.07-.247.237-.111.394-.05.198.004.318.132.413-.6 2.425-1.228 4.587-2.153 7.424-.18-.043-.948.086-1.45-.105-.448-.652-.712-1.075-.99-1.623.683.188.957.146 1.778-.008-.923-.525-1.228-.75-1.84-1.692.774-.36 1.284-.668 1.64-1.112.2 1.08.499 1.667 1.171 2.157.062-.186.114-.375.176-.562V45.33c0-.134.106-.238.233-.238.129 0 .232.104.232.238v18.042c.261-.919.51-1.842.743-2.776a.74.74 0 0 1-.106-.427.591.591 0 0 1 .041-.633.68.68 0 0 1 .185-.583c-.067-.407-.12-.817-.147-1.224a4.372 4.372 0 0 1 0-.856v-.05l.027-.05c.105-.275.4-.556.614-.761.286-.272.568-.537.838-.826.108-.222.278-.396.5-.465v-8.053c0-.132.106-.236.234-.236.122 0 .232.104.232.236v7.612a.712.712 0 0 1 .268-.052c.382 0 .699.305.699.682 0 .05-.004.095-.017.141a.584.584 0 0 1 .127.289.724.724 0 0 1-.006.282c.105.386.228.763.33 1.147.076.293.166.66.101.956l-.004.015-.002.014c-.091.287-.37.619-.56.853-.288.346-.595.69-.896 1.03a.73.73 0 0 1-.04.312v9.21c.324.204.656.32.94.32.573.492.91.622 1.689.799-.936-1.106-.564-9.153-.598-15.882"/><path d="m44.674 67.803.512-.159a.658.658 0 0 1 .268-.156.77.77 0 0 1 .135-.079c-.564-2.188-1.162-4.374-1.745-6.56v7.28a.955.955 0 0 1 .413-.263.526.526 0 0 1 .417-.063m23.212-6.739c-.19.713-.371 1.423-.556 2.139-.32 1.273-.641 2.558-.996 3.831.425.45.871.855 1.21.936.17.32.395.595.646.834v-7.987a.59.59 0 0 1-.304.247m-6.669-.231h.162v.234h.317v-.419h-.15v-.207h.15v-.324h-.15v.18h-.167v-.18h-.162v.18h-.17v-.18h-.17v.324h.17v.207h-.17v.42h.34zm-.779.465h-.17v.33h.17v.212h-.17v.415h.338v-.243h.164v.243h.318v-.415h-.152v-.212h.152v-.33h-.152v.185h-.166v-.185h-.164v.185h-.168zm-1.213 0h-.172v.33h.172v.212h-.172v.415h.344v-.243h.16v.243h.32v-.415h-.157v-.212h.156v-.33h-.156v.185h-.163v-.185h-.16v.185h-.172zm.775-.465h.168v.234h.314v-.419h-.15v-.207h.15v-.324h-.15v.18h-.164v-.18h-.167v.18h-.168v-.18h-.168v.324h.168v.207h-.168v.42H60zm1.655.465h-.17v.33h.17v.212h-.17v.415h.342v-.243h.16v.243h.321v-.415h-.151v-.212h.151v-.33h-.151v.185h-.17v-.185h-.16v.185h-.172zm.775-.465h.164v.234h.316v-.419h-.147v-.207h.147v-.324h-.147v.18h-.169v-.18h-.163v.18h-.17v-.18h-.171v.324h.17v.207h-.17v.42h.34zm-4.726-8.221c.205 0 .298-.031.636-.137a.266.266 0 0 0 .027.313c0 .133.021.214.108.32-.004.095.007.16.07.214.048.352.136.535.372.968-.172.062-.324.185-.324.41 0 .312.337.436.577.436.12.193.234.25.394.25.164 0 .289-.057.409-.25.239 0 .58-.124.58-.437 0-.224-.157-.347-.329-.409.23-.433.33-.616.369-.968.08-.054.09-.119.083-.214a.49.49 0 0 0 .108-.32c.056-.074.091-.207.017-.313.331.106.431.137.649.137.656-.006.807-.286 1.014-.593-.591.132-.738-.378-1.249-.378.208-.006.405-.387.405-.931 0-.635-.57-1.409-1.228-1.409.483.228.654.707.637 1.124-.023.55-.245.658-.458.8-.295-.169-.447-.113-.696.165-.05-.176-.172-.213-.31-.213-.133 0-.252.037-.303.213-.241-.278-.393-.334-.7-.166-.195-.14-.427-.248-.444-.799-.02-.417.154-.896.637-1.124-.657 0-1.224.774-1.224 1.409 0 .544.195.925.405.931-.507 0-.654.51-1.245.378.197.307.363.587 1.013.593"/><path d="m59.134 50.851.43-.224.46.23-.06-.48.342-.36-.478-.085-.264-.49-.228.49-.529.085.4.34zm-2.031 3.615c-.45.133-.39.158-.405.258.019.072.112.091.205.16.075.07.087.155.2.155.134-.035.21-.031.215-.421 0 .419.085.375.187.419.118 0 .104-.054.23-.15.12-.066.16-.058.187-.155-.013-.081.06-.152-.39-.274.419.12.446.065.518-.01.057-.096-.08-.162-.103-.253-.025-.094-.013-.156-.083-.22-.1-.009-.141-.083-.421.236.292-.338.22-.344.151-.44-.106-.064-.205-.004-.303-.01-.15 0-.16-.002-.257.048-.03.058-.145.101.15.404-.312-.321-.304-.22-.41-.22-.093.038-.057.127-.1.229-.028.09-.115.124-.078.213.079.085.065.154.507.031m5.393-.372c-.021-.46-1.278-.494-1.278.415.018.873 1.278.809 1.302.298-.333.218-.734-.029-.734-.298 0-.283.38-.552.71-.415"/></g><path d="M57.438 36.695c-.034.15-.273.763-.273.763l-.004.002c.08.036.138.133.138.247 0 .144-.092.262-.205.262-.112 0-.204-.118-.204-.262 0-.01 0-.021.002-.032l-.005.005-.114-.026v.018c0 .136-.124.246-.278.246-.154 0-.278-.11-.278-.246 0-.134.121-.243.272-.246-.002-.052-.037-.721-.285-.858-.002-.002-.1-.107.035-.43 0 0 .496-.119.712-.04.22.08.532.404.487.597m-1.662-.127c-.248.137-.282.806-.284.858.15.003.273.112.273.246 0 .136-.125.246-.28.246-.154 0-.279-.11-.279-.246l.002-.018-.114.026-.005-.005.001.032c0 .144-.092.262-.204.262-.113 0-.205-.118-.205-.262 0-.114.059-.211.138-.247l-.003-.002s-.24-.613-.274-.763c-.045-.193.268-.517.487-.596.217-.08.713.038.713.038.135.324.037.43.034.431m2.51-.096c.011-.617-.204-.87-1.035-.85-.43-.283-.948-.11-.99-.093-.04.014-.058-.01-.05-.04 0 0 .025-.07.025-.11a.249.249 0 0 0-.045-.141v-.432h.339v-.39h-.34v-.319h-.387v.319h-.344v.39h.344v.413a.246.246 0 0 0-.059.16c0 .04.025.11.025.11.009.03-.009.054-.05.04-.042-.017-.56-.19-.99.093-.834-.02-1.048.235-1.034.856l-.182-.06v.39l.18.06c.146.147.36.403.43.712.029.123-.115.43.19.537l.103.456c-.15.019-.11.195.011.174.183-.026.397-.043.585-.057l.215-.01c.183-.008.369-.011.553-.013h.42c.185.002.37.005.554.012l.215.011c.187.014.402.031.584.057.12.021.161-.155.012-.174l.102-.456c.306-.107.162-.414.19-.537.073-.316.293-.576.44-.721l.151-.051v-.39z"/></g><path fill="#1b458f" d="M128.14 49.168c-.04-.38-.1-.541-.24-.541-.14 0-.221.14-.301.32l-5.893 12.589-6.133-12.608c-.1-.221-.18-.301-.301-.301s-.2.18-.22.4l-1.444 13.029c-.1.822-.14 1.543-.802 1.663-.3.06-.44.06-.6.06-.101 0-.201.04-.201.12 0 .141.14.161.34.161.542 0 1.504-.06 1.684-.06.16 0 1.183.06 1.924.06.2 0 .301-.04.301-.18 0-.06-.08-.1-.2-.1-.12 0-.381 0-.722-.08-.3-.06-.541-.221-.541-.722 0-.341.02-.622.04-.942l.822-9.441c.22.541 2.525 5.492 2.706 5.853.1.2 1.824 3.668 2.345 4.65.38.722.48.922.621.922.18 0 .24-.18.661-1.062l4.971-10.543.962 10.463c.04.36.06.661-.08.721-.1.04-.14.06-.14.14 0 .1.1.161.561.201.742.06 3.027.12 3.468.12.24 0 .3-.04.3-.16 0-.1-.12-.12-.22-.12-.2 0-.661 0-1.243-.18-.862-.281-1.002-1.404-1.082-2.125zm7.01 9.941c0 1.503 0 2.926-.1 3.648-.06.481-.12.882-.461.962-.16.04-.381.06-.481.06-.18 0-.26.06-.26.14 0 .1.14.14.32.14.561 0 1.744-.06 1.804-.06.1 0 1.263.06 2.285.06.2 0 .28-.06.28-.14 0-.08-.04-.12-.22-.14-.08 0-.501-.02-.762-.08-.52-.12-.601-.34-.681-.922-.1-.722-.08-2.125-.08-3.668v-3.007c0-2.645-.02-3.106.02-3.648.04-.58.1-.881.681-.962.14-.02.24-.02.36-.04.161-.02.221-.06.221-.14 0-.1-.1-.14-.3-.14-.562 0-1.724.06-1.804.06-.06 0-1.203-.06-1.824-.06-.22 0-.3.04-.3.14 0 .08.08.12.22.14.12.02.26.02.46.06.421.08.542.381.582.922.04.542.04 1.023.04 3.668zm7.32 2.446c0 1.463-.1 2.004-.541 2.145-.26.08-.481.08-.622.08-.2 0-.28.06-.28.14 0 .12.12.14.3.14.862 0 1.604-.06 1.744-.06s.862.06 1.944.06c.221 0 .321-.04.321-.14 0-.08-.08-.14-.24-.14-.16 0-.501 0-.822-.08-.501-.12-.621-.642-.662-2.025l-.26-7.837c.501.521 2.505 2.606 4.59 4.77 1.744 1.704 4.53 4.47 4.61 4.51.982.923 1.183 1.063 1.323 1.063.14 0 .18-.1.18-1.103l.04-10.062c0-1.202.14-1.403.602-1.503.22-.04.38-.04.5-.06s.181-.08.181-.16c0-.1-.06-.12-.28-.12-.782 0-1.404.06-1.604.06-.18 0-1.022-.06-1.884-.06-.2 0-.36.02-.36.12 0 .08.04.16.24.16.14 0 .44.02.781.08.542.14.662.501.682 1.584l.22 8.338c-.52-.481-2.525-2.546-4.089-4.07-2.806-2.865-5.592-5.712-5.772-5.912-.14-.14-.481-.541-.622-.541-.16 0-.22.2-.22.822.02 3.327 0 .24 0 9.801zm17.36-2.446c0 1.503 0 2.926-.1 3.648-.06.481-.12.882-.461.962-.16.04-.381.06-.481.06-.18 0-.26.06-.26.14 0 .1.14.14.32.14.561 0 1.744-.06 1.804-.06.1 0 1.263.06 2.285.06.2 0 .28-.06.28-.14 0-.08-.04-.12-.22-.14-.08 0-.501-.02-.762-.08-.52-.12-.601-.34-.681-.922-.1-.722-.08-2.125-.08-3.668v-3.007c0-2.645-.02-3.106.02-3.648.04-.58.1-.881.681-.962.14-.02.24-.02.36-.04.161-.02.221-.06.221-.14 0-.1-.1-.14-.3-.14-.562 0-1.724.06-1.804.06-.06 0-1.203-.06-1.824-.06-.22 0-.301.04-.301.14 0 .08.08.12.22.14.12.02.261.02.461.06.421.08.542.381.582.922.04.542.04 1.023.04 3.668zm9.24 5.172c.962 0 1.924-.2 2.706-.702a3.517 3.517 0 0 0 1.523-2.846c0-1.423-.541-2.485-2.625-4.089l-.461-.36c-1.664-1.263-2.145-1.844-2.145-2.787 0-1.202.902-1.924 2.104-1.924 1.684 0 2.145.762 2.245.942.18.341.22.762.24.942.02.14.04.22.141.22s.14-.12.14-.42c0-1.163.08-1.864.08-1.944 0-.08-.04-.12-.18-.12s-.3-.02-.681-.1c-.441-.1-.922-.161-1.624-.161-2.245 0-3.708 1.243-3.708 3.087 0 1.182.401 2.245 2.325 3.788l.802.621c1.463 1.183 1.984 1.884 1.984 3.027 0 1.002-.801 2.145-2.465 2.145-1.163 0-2.345-.502-2.606-1.804-.06-.24-.06-.481-.06-.602 0-.14-.04-.2-.14-.2s-.14.1-.16.28c-.02.281-.08.963-.08 1.885 0 .48 0 .56.26.681.761.34 1.543.441 2.385.441zm12.78-12.327c.581 0 1.203.02 1.964.02 2.025.02 2.285.22 2.366 1.022.02.2.02.22.02.28 0 .161.04.241.14.241.06 0 .14-.06.14-.24 0-.16.04-1.483.04-2.045 0-.08-.04-.18-.12-.18-.06 0-.12.02-.38.08-.282.06-.883.1-1.444.1h-6.574c-.02 0-.582-.02-1.283-.1-.361-.04-.742-.22-.882-.22-.06 0-.12.08-.18.32-.12.542-.422 1.864-.401 1.985 0 .1.02.18.1.18s.12-.02.18-.16c.04-.1.12-.341.3-.622.281-.42.562-.621 1.845-.641.802-.02 1.864-.02 2.525-.02v7.156c0 1.503 0 2.946-.08 3.668-.08.681-.14.922-.521.982-.16.02-.28.02-.441.02s-.22.08-.22.14c0 .1.08.14.3.14.521 0 1.704-.06 1.784-.06.08 0 1.263.06 2.285.06.2 0 .26-.06.26-.16 0-.06-.08-.12-.24-.12-.16 0-.541-.02-.782-.08-.5-.12-.54-.401-.6-.882-.081-.742-.101-2.165-.101-3.709zm8.36 7.155c0 1.523-.02 2.345-.04 3.027-.04 1.242-.28 1.503-.641 1.583a1.5 1.5 0 0 1-.401.06c-.1 0-.18.06-.18.14 0 .1.1.14.28.14.48 0 .862-.06 1.323-.06.741 0 1.663.04 2.365.06.701 0 1.263.04 2.586.04.661 0 .801-.04.882-.44.06-.34.22-1.604.22-1.744 0-.12 0-.3-.12-.3-.08 0-.14.08-.18.28-.16.742-.301 1.143-.903 1.323-.5.14-1.142.12-1.523.12-.681 0-1.162-.04-1.463-.18-.421-.18-.521-.561-.561-1.303-.02-.34 0-2.105 0-2.726v-1.463c0-.08.02-.14.14-.14.32 0 1.944.04 2.405.08.762.06.882.34.962.601.04.16.06.36.06.481 0 .14.02.26.12.26.081 0 .121-.06.141-.22.02-.26.02-.661.08-1.222.06-.582.14-.963.14-1.063s-.04-.12-.08-.12c-.08 0-.14.04-.22.16-.16.22-.461.28-.922.301-.421.04-2.466.06-2.706.06-.1 0-.12-.08-.12-.2v-4.55c0-.12.04-.16.1-.16.04 0 2.024.02 2.285.04 1.002.06 1.183.2 1.303.6.06.141.12.342.14.642 0 .14.04.22.14.22s.14-.12.14-.3c.02-.38.04-.702.06-1.042.04-.501.161-.782.161-.902 0-.1-.04-.14-.08-.14-.08 0-.1.02-.22.06-.16.06-.381.08-.782.1-.401.02-3.969.02-4.07.02-1.122-.02-1.663-.06-2.064-.06-.2 0-.3.04-.3.16 0 .06.12.12.26.12.16 0 .361.02.481.04.582.12.722.401.762.963.04.54.04 1.022.04 3.648zm10.89 0c0 1.503.02 3.147-.08 3.869-.06.48-.18.701-.521.761-.16.04-.301.04-.441.04-.12 0-.24.06-.24.12 0 .12.08.16.28.16.541 0 1.423-.06 1.744-.06.08 0 1.202.06 2.244.06.2 0 .281-.06.281-.16 0-.06-.08-.12-.26-.12-.16 0-.381-.02-.582-.04-.661-.08-.721-.48-.781-.962-.1-.722-.1-2.185-.1-3.788v-.28c0-.081.02-.101.1-.101l2.064.02c.12 0 .16.04.24.12.341.421 1.143 1.504 1.925 2.466 1.042 1.343 1.643 2.245 2.485 2.605.441.18.882.24 1.824.24h1.403c.28 0 .361-.04.361-.14 0-.08-.06-.14-.22-.14-.06 0-.481-.02-.622-.04-.561-.08-1.162-.24-2.124-1.223-1.023-1.062-2.225-2.545-3.688-4.35 1.583-1.282 2.124-2.685 2.124-3.787a3.042 3.042 0 0 0-1.202-2.446c-.943-.661-2.165-.761-3.288-.761-.56 0-1.924.06-2.104.06-.04 0-1.263-.06-2.125-.06-.18 0-.24.06-.24.14 0 .08.08.12.22.12.16 0 .36.02.481.04.622.12.762.421.802.962.04.542.04 1.023.04 3.668zm1.543-7.035c0-.1.06-.16.12-.18.241-.06.662-.101 1.163-.101 1.784 0 2.947 1.203 2.947 3.387 0 1.283-.401 2.165-1.003 2.546-.42.28-.922.3-1.343.3-.721 0-1.523-.12-1.783-.26-.08-.04-.1-.14-.1-.24zm12.447 4.029c0-2.646 0-3.107.02-3.648.04-.561.12-.902.601-.962.16-.02.321-.04.441-.04.1 0 .24-.04.24-.14s-.06-.14-.28-.14c-.541 0-1.724.06-1.884.06-.14 0-1.223-.06-2.085-.06-.22 0-.3.04-.3.16 0 .06.08.12.22.12.16 0 .401.02.521.04.622.08.722.42.742.962.06.541.06 1.002.06 3.648v2.485c0 2.486.622 3.688 1.483 4.49 1.303 1.203 3.187 1.203 3.749 1.203 1.082 0 2.365-.1 3.668-1.203 1.423-1.223 1.623-3.387 1.623-5.191v-1.784c0-2.626 0-3.087.02-3.628.04-.581.12-.942.682-1.002.2-.02.24-.02.36-.02s.2-.06.2-.14c0-.1-.08-.14-.28-.14-.56 0-1.423.06-1.523.06-.08 0-1.082-.06-1.944-.06-.18 0-.28.04-.28.16 0 .06.08.12.2.12.18 0 .42.02.56.04.642.1.702.4.742.982.04.541.04 1.002.04 3.628v2.125c0 1.743-.18 3.267-.982 4.189-.761.882-1.703 1.162-2.746 1.162-.821 0-1.783-.16-2.645-.922-.762-.681-1.223-1.724-1.223-4.169zm15.57 0c0-2.646-.02-3.087.02-3.628.04-.581.16-.902.722-.982.2-.02.4-.04.54-.04.121 0 .221-.06.221-.14 0-.08-.06-.14-.26-.14-.562 0-1.784.06-2.065.06-.04 0-1.243-.06-2.084-.06-.2 0-.301.04-.301.14 0 .08.08.14.22.14.16 0 .381 0 .501.02.682.08.762.44.802 1.002.04.541.04.982.04 3.628v3.007c0 1.543.04 2.926-.08 3.688-.06.48-.18.882-.521.942-.16.04-.32.04-.481.04s-.22.06-.22.12c0 .12.12.16.32.16.702 0 1.103-.06 1.764-.06 2.004 0 3.508.1 4.87.1.963 0 .943-.1 1.063-.5.12-.462.24-1.604.24-1.804s-.04-.261-.12-.261c-.1 0-.14.08-.16.24-.04.301-.18.702-.381 1.003-.441.56-1.243.56-2.125.56-1.383 0-1.784-.12-2.104-.4-.341-.32-.421-1.483-.421-3.788zm15.84 2.144c0 1.784-.02 2.806-.04 3.588-.04 1.503-.3 1.784-.722 1.884-.14.04-.26.04-.46.06-.12.02-.221.06-.221.12 0 .12.1.16.32.16.522.02 1.003-.06 1.484-.06.782 0 1.704.04 2.505.06.782.02 1.444.06 2.927.06.781 0 .942 0 1.082-.52.1-.421.26-1.784.26-1.945 0-.14 0-.3-.12-.3-.1 0-.14.08-.18.3-.16.862-.38 1.283-1.022 1.484-.541.16-1.203.18-1.804.18-.782 0-1.323-.04-1.664-.18-.5-.2-.621-.642-.661-1.464-.02-.42 0-2.746 0-3.427v-1.764c0-.08.04-.14.14-.14.34 0 2.325.04 2.866.1.722.08.963.36 1.043.661.06.18.08.381.08.562 0 .16.02.32.14.32.08 0 .12-.1.14-.3.02-.28.02-.742.08-1.363.06-.662.161-1.003.161-1.123 0-.12-.04-.16-.1-.16-.08 0-.14.08-.24.2-.201.24-.462.3-1.003.341-.46.04-2.926.04-3.187.04-.1 0-.12-.06-.12-.2v-5.532c0-.14.04-.2.12-.2.22 0 2.405.02 2.746.06.882.08 1.303.28 1.443.74.06.161.1.402.1.662 0 .16.04.26.16.26.081 0 .141-.14.161-.34.04-.521.06-.902.08-1.202.04-.562.16-.802.16-.943 0-.1-.02-.18-.08-.18s-.1.02-.22.08-.481.1-.922.12c-.46.02-4.45.02-4.59.02-1.263-.06-1.804-.06-2.265-.06-.22 0-.32.04-.32.16 0 .08.12.101.26.121.18.02.441.02.581.06.662.14.822.461.862 1.143.04.641.04 1.202.04 4.33zm11.76.822c0 1.623.02 2.986-.1 3.728-.06.441-.18.862-.521.922-.16.04-.301.06-.461.06s-.22.08-.22.14c0 .1.1.14.28.14.3 0 .781-.04 1.162-.04.381-.02.642-.02.682-.02.06 0 .681.06 1.443.101.762.06 1.744.1 2.505.1 3.047 0 4.57-1.182 5.352-1.964.982-1.002 1.904-2.666 1.904-4.79 0-2.025-.821-3.428-1.703-4.31-2.125-2.145-5.412-1.964-7.176-1.964-1.122 0-2.165.06-2.305.06-.06 0-1.323-.06-2.145-.06-.18 0-.3.04-.3.16 0 .06.1.12.2.12.16 0 .461.02.581.04.582.12.742.401.782.942.04.522.04 1.023.04 3.668zm1.644-3.287c0-1.203 0-2.907.02-3.488 0-.18.06-.26.22-.34.12-.08.742-.14 1.022-.14 1.985 0 3.949.2 5.653 1.903.681.662 1.723 2.045 1.723 4.31 0 1.603-.42 3.107-1.302 3.988-1.043 1.043-2.526 1.564-4.17 1.564-2.084 0-2.725-.421-2.946-.762-.14-.18-.18-.721-.2-1.343 0-.3-.02-1.864-.02-3.668zm15.236.321c0-2.646 0-3.107.02-3.648.04-.561.12-.902.601-.962.16-.02.321-.04.441-.04.1 0 .24-.04.24-.14s-.06-.14-.28-.14c-.541 0-1.724.06-1.884.06-.14 0-1.223-.06-2.085-.06-.22 0-.3.04-.3.16 0 .06.08.12.22.12.16 0 .401.02.521.04.622.08.722.42.742.962.06.541.06 1.002.06 3.648v2.485c0 2.486.622 3.688 1.483 4.49 1.303 1.203 3.187 1.203 3.749 1.203 1.082 0 2.365-.1 3.668-1.203 1.423-1.223 1.623-3.387 1.623-5.191v-1.784c0-2.626 0-3.087.02-3.628.04-.581.12-.942.682-1.002.2-.02.24-.02.36-.02s.2-.06.2-.14c0-.1-.08-.14-.28-.14-.56 0-1.423.06-1.523.06-.08 0-1.082-.06-1.944-.06-.18 0-.28.04-.28.16 0 .06.08.12.2.12.18 0 .42.02.56.04.642.1.702.4.742.982.04.541.04 1.002.04 3.628v2.125c0 1.743-.18 3.267-.982 4.189-.761.882-1.703 1.162-2.746 1.162-.821 0-1.783-.16-2.645-.922-.762-.681-1.223-1.724-1.223-4.169zm19.94 8.178c1.123 0 2.465-.1 3.167-.4.28-.121.34-.181.46-.502.141-.44.402-2.064.402-2.225 0-.14 0-.28-.1-.28-.12 0-.18.1-.22.3-.101.561-.302 1.062-.662 1.443-.702.682-1.704.822-3.067.822-3.528 0-6.234-2.926-6.234-6.254 0-1.763.301-3.207 1.604-4.39.601-.54 1.623-1.162 3.848-1.162 1.544 0 2.947.501 3.548 1.023.501.38.782 1.162.782 1.743 0 .26.02.381.16.381.1 0 .14-.1.16-.38.02-.241.02-1.283.04-1.845.04-.641.1-.821.1-.982 0-.1-.02-.2-.18-.2-.48-.02-1.122-.12-1.764-.22-.982-.141-1.723-.221-2.645-.221-2.686 0-4.31.741-5.392 1.784-1.584 1.523-2.025 3.507-2.025 4.63 0 1.663.441 3.628 2.145 5.111 1.423 1.223 3.227 1.824 5.873 1.824zm12.73-5.112c.08 0 .12.04.16.1l1.584 4.029c.12.3 0 .4-.08.441-.08.02-.14.08-.14.14 0 .1.12.12.5.14 1.343.04 2.847.04 3.047.04.22 0 .3-.04.3-.14s-.1-.14-.24-.14-.42 0-.681-.1c-.28-.1-.862-.36-1.524-1.944-1.062-2.506-3.788-9.501-4.068-10.162-.22-.562-.301-.642-.401-.642-.14 0-.2.1-.421.682l-4.009 10.563c-.34.842-.682 1.503-1.543 1.583-.12.02-.301.02-.401.02-.16 0-.24.06-.24.14 0 .1.1.14.32.14.842 0 1.724-.06 1.924-.06.22 0 1.143.06 1.584.06.14 0 .3-.04.3-.14 0-.08-.06-.14-.24-.14h-.14c-.442 0-.662-.16-.662-.52 0-.322.14-.863.34-1.424l.883-2.505c.04-.1.1-.16.2-.16zm-3.447-.702c-.04 0-.08-.04-.04-.12l1.503-4.43c.1-.28.12-.28.22 0l1.584 4.43c.02.06.02.12-.06.12zm15.177-6.513c.581 0 1.203.02 1.964.02 2.025.02 2.285.22 2.365 1.022.02.2.02.22.02.28 0 .161.04.241.14.241.06 0 .141-.06.141-.24 0-.16.04-1.483.04-2.045 0-.08-.04-.18-.12-.18-.06 0-.12.02-.38.08-.281.06-.883.1-1.444.1h-6.574c-.02 0-.582-.02-1.283-.1-.361-.04-.742-.22-.882-.22-.06 0-.12.08-.18.32-.12.542-.422 1.864-.401 1.985 0 .1.02.18.1.18s.12-.02.18-.16c.04-.1.12-.341.3-.622.281-.42.562-.621 1.845-.641.802-.02 1.864-.02 2.525-.02v7.156c0 1.503 0 2.946-.08 3.668-.08.681-.14.922-.521.982-.16.02-.28.02-.441.02s-.22.08-.22.14c0 .1.08.14.3.14.521 0 1.704-.06 1.784-.06.08 0 1.263.06 2.285.06.2 0 .26-.06.26-.16 0-.06-.08-.12-.24-.12-.16 0-.541-.02-.782-.08-.5-.12-.54-.401-.6-.882-.081-.742-.101-2.165-.101-3.709zm-1.223 14.191c0 .08.02.12.08.16.462.301.762.582.762 1.023 0 .44-.1.861-.822 1.563-.08.08-.14.18-.14.24 0 .16.2.12.541-.14 1.163-.882 1.564-1.924 1.564-2.606 0-.701-.361-1.202-.642-1.202-.641 0-1.343.782-1.343.962zm9.573-7.036c0 1.503 0 2.926-.1 3.648-.06.481-.12.882-.461.962-.16.04-.381.06-.481.06-.18 0-.26.06-.26.14 0 .1.14.14.32.14.561 0 1.744-.06 1.804-.06.1 0 1.263.06 2.285.06.2 0 .28-.06.28-.14 0-.08-.04-.12-.22-.14-.08 0-.501-.02-.762-.08-.52-.12-.601-.34-.681-.922-.1-.722-.08-2.125-.08-3.668v-3.007c0-2.645-.02-3.106.02-3.648.04-.58.1-.881.681-.962.14-.02.24-.02.36-.04.161-.02.221-.06.221-.14 0-.1-.1-.14-.3-.14-.562 0-1.724.06-1.804.06-.06 0-1.203-.06-1.824-.06-.22 0-.301.04-.301.14 0 .08.08.12.22.14.12.02.261.02.461.06.421.08.542.381.582.922.04.542.04 1.023.04 3.668zm7.86 0c0 1.523-.02 2.345-.04 3.027-.04 1.242-.28 1.503-.641 1.583a1.5 1.5 0 0 1-.401.06c-.1 0-.18.06-.18.14 0 .1.1.14.28.14.48 0 .862-.06 1.323-.06.741 0 1.663.04 2.365.06.701 0 1.263.04 2.586.04.661 0 .801-.04.881-.44.06-.34.221-1.604.221-1.744 0-.12 0-.3-.12-.3-.08 0-.14.08-.18.28-.161.742-.301 1.143-.903 1.323-.5.14-1.142.12-1.523.12-.681 0-1.162-.04-1.463-.18-.421-.18-.521-.561-.561-1.303-.02-.34 0-2.105 0-2.726v-1.463c0-.08.02-.14.14-.14.32 0 1.944.04 2.405.08.762.06.882.34.962.601.04.16.06.36.06.481 0 .14.02.26.12.26.08 0 .12-.06.141-.22.02-.26.02-.661.08-1.222.06-.582.14-.963.14-1.063s-.04-.12-.08-.12c-.08 0-.14.04-.22.16-.16.22-.461.28-.922.301-.421.04-2.466.06-2.706.06-.1 0-.12-.08-.12-.2v-4.55c0-.12.04-.16.1-.16.04 0 2.024.02 2.285.04 1.002.06 1.182.2 1.303.6.06.141.12.342.14.642 0 .14.04.22.14.22s.14-.12.14-.3c.02-.38.04-.702.06-1.042.04-.501.161-.782.161-.902 0-.1-.04-.14-.08-.14-.08 0-.1.02-.22.06-.161.06-.381.08-.782.1-.401.02-3.97.02-4.07.02-1.122-.02-1.663-.06-2.064-.06-.2 0-.3.04-.3.16 0 .06.12.12.26.12.16 0 .36.02.481.04.581.12.722.401.762.963.04.54.04 1.022.04 3.648zm10.86 0c0 1.503 0 2.926-.1 3.648-.06.481-.12.882-.461.962-.16.04-.381.06-.481.06-.18 0-.26.06-.26.14 0 .1.14.14.32.14.561 0 1.744-.06 1.804-.06.1 0 1.263.06 2.285.06.2 0 .28-.06.28-.14 0-.08-.04-.12-.22-.14-.08 0-.501-.02-.762-.08-.52-.12-.601-.34-.681-.922-.1-.722-.08-2.125-.08-3.668v-3.007c0-2.645-.02-3.106.02-3.648.04-.58.1-.881.681-.962.14-.02.24-.02.36-.04.161-.02.221-.06.221-.14 0-.1-.1-.14-.3-.14-.561 0-1.724.06-1.804.06-.06 0-1.203-.06-1.824-.06-.22 0-.3.04-.3.14 0 .08.08.12.22.14.12.02.26.02.46.06.422.08.542.381.582.922.04.542.04 1.023.04 3.668z" aria-label="Ministerul Educației"/></svg>