<svg width="688" height="288" version="1.1" viewBox="0 0 688 288" xml:space="preserve" xmlns="http://www.w3.org/2000/svg"><title>RMI 2022 logo</title><g fill="#000" stroke-width=".99947" aria-label="22"><path d="m639.23 75.994v-6.9083h-31.557v-1.194c0-10.064 2.6439-13.561 16.034-20.725 12.708-6.823 16.29-12.281 16.29-20.213 0-10.832-7.1642-15.352-21.834-15.352-6.7377 0-13.39 1.194-16.716 1.9616v6.0554c4.6908-0.76759 11.087-1.2793 16.29-1.2793 10.49 0 14.414 2.1322 14.414 8.6141 0 5.7143-2.2175 8.6994-12.793 14.414-13.987 7.5906-19.36 12.708-19.36 26.61v8.0171z"/><path d="m687.23 76v-6.9083h-31.556v-1.194c0-10.064 2.6439-13.561 16.034-20.725 12.708-6.823 16.29-12.281 16.29-20.213 0-10.832-7.1642-15.352-21.834-15.352-6.7377 0-13.39 1.194-16.716 1.9616v6.0554c4.6908-0.76759 11.087-1.2793 16.29-1.2793 10.49 0 14.414 2.1322 14.414 8.6141 0 5.7143-2.2175 8.6994-12.793 14.414-13.987 7.5906-19.36 12.708-19.36 26.61v8.0171z"/></g><g transform="matrix(1.3333 0 0 -1.3333 -216.84 539.37)" fill="#000"><path d="m442.87 332.65v-10.674h14.894v-3.7653h-14.894v-15.676h-4.1833v33.85h20.034v-3.7349z"/><path d="m345.69 332.65v-13.255h3.932c3.7202 0 6.2787 0.5011 7.6603 1.5108 1.389 1.0094 2.0801 2.7179 2.0801 5.1392 0 2.308-0.6149 3.9929-1.8522 5.0332-1.2376 1.0477-3.9175 1.5716-8.0393 1.5716zm15.077-30.115-7.9637 13.209-1.5559-0.0456h-5.5571v-13.164h-4.1828v33.85h7.9637c5.1389 0 8.7828-0.8351 10.916-2.5129 2.1333-1.6776 3.2037-4.2888 3.2037-7.8268 0-4.8812-2.103-8.0237-6.3164-9.4362l8.4727-14.074zm-50.636 0v33.85h20.034v-3.7349h-15.851v-10.674h14.894v-3.7653h-14.894v-11.987h15.851v-3.6893zm-20.62 30.115v-30.115h-4.1978v30.115h-10.431v3.7349h25.06v-3.7349zm-44.321-29.804v3.2947c3.3023-0.4022 6.529-0.6001 9.6718-0.6001 2.376 0 4.1218 0.4405 5.2384 1.3289 1.1157 0.8955 1.6775 2.3 1.6775 4.2282 0 1.4198-0.3339 2.5582-1.002 3.401-0.6608 0.8504-1.8675 1.6702-3.5986 2.4673l-5.7849 2.6039c-2.5957 1.169-4.4031 2.4746-5.4275 3.9019-1.0248 1.4351-1.5333 3.1884-1.5333 5.2611 0 5.4584 3.6816 8.1839 11.053 8.1839 3.7044 0 6.8245-0.3039 9.3447-0.9114v-3.31c-3.4996 0.3796-6.5744 0.5774-9.2083 0.5774-2.4902 0-4.2741-0.3648-5.3518-1.0939-1.0704-0.7208-1.6095-1.8748-1.6095-3.446 0-1.4653 0.3566-2.5966 1.063-3.3937 0.7134-0.7891 1.8748-1.5409 3.4917-2.2544l5.8303-2.5582c2.4899-1.0931 4.282-2.384 5.3671-3.8566 1.0936-1.4799 1.6396-3.3327 1.6396-5.5723 0-2.9379-0.9335-5.2076-2.7936-6.8097-1.8601-1.5936-4.661-2.3987-8.3959-2.3987-3.439 0-6.6654 0.3186-9.6718 0.9567zm-21.804 24.468c-0.5925 1.8369-1.0477 3.6891-1.3737 5.5565h-0.4484c-0.4856-2.3533-0.9488-4.2128-1.3743-5.5565l-3.2258-9.877h9.6026zm7.9631-24.779-3.5144 11.076h-12.116l-3.5832-11.076h-4.2509l11.076 33.85h5.7847l11.076-33.85zm-37.564 0v21.992c0 1.6778 0.0762 3.7809 0.2279 6.3011h-0.091c-0.2132-0.4932-1.0177-2.224-2.4219-5.2075l-5.6934-12.147h-5.1395l-7.9864 17.354h-0.0912c0.1216-3.1884 0.1822-5.2911 0.1822-6.3011v-21.992h-4.1371v33.85h5.5108l7.007-15.259c0.479-1.0321 1.1466-2.5583 2.0043-4.5547h0.091l2.1107 4.6463 7.0903 15.168h5.4734v-33.85z"/><path d="m450.94 352.22-11.941 24.285c-1.6702 3.3933-2.5889 5.3064-2.7329 5.7393h-0.0913c0.1523-2.255 0.2203-4.6083 0.2203-7.0756v-22.949h-3.9093v33.85h6.0047l11.804-23.64c0.8657-1.7232 1.7765-3.6516 2.7408-5.7849h0.0913c-0.1522 2.179-0.2282 4.6457-0.2282 7.4097v22.015h4.0087v-33.85z"/><path d="m406.16 377c-0.5921 1.8369-1.0476 3.689-1.3739 5.5565h-0.4482c-0.4858-2.3533-0.9487-4.2129-1.3736-5.5565l-3.2267-9.877h9.6029zm7.9634-24.779-3.515 11.076h-12.116l-3.5827-11.076h-4.2514l11.076 33.85h5.785l11.076-33.85z"/><path d="m350 352.22-11.941 24.285c-1.6702 3.3933-2.5889 5.3064-2.7326 5.7393h-0.0915c0.1522-2.255 0.2205-4.6083 0.2205-7.0756v-22.949h-3.9096v33.85h6.0047l11.804-23.64c0.866-1.7232 1.7767-3.6516 2.7408-5.7849h0.0913c-0.1522 2.179-0.2282 4.6457-0.2282 7.4097v22.015h4.0088v-33.85zm-44.776 24.779c-0.5921 1.8369-1.0476 3.689-1.3739 5.5565h-0.4482c-0.4858-2.3533-0.9487-4.2129-1.3742-5.5565l-3.2258-9.877h9.6026zm7.9637-24.779-3.5152 11.076h-12.116l-3.5827-11.076h-4.2514l11.076 33.85h5.7847l11.076-33.85zm-41.481 0v21.993c0 1.6773 0.0763 3.7806 0.2279 6.3009h-0.091c-0.2128-0.4932-1.0173-2.2244-2.4219-5.2075l-5.6934-12.147h-5.1392l-7.9866 17.355h-0.0913c0.1216-3.1884 0.1823-5.2912 0.1823-6.3009v-21.993h-4.1372v33.85h5.5114l7.0064-15.259c0.4791-1.0323 1.1466-2.5577 2.0044-4.5547h0.091l2.1107 4.646 7.0903 15.168h5.474v-33.85zm-44.631 19.305c0 7.5614-2.9531 11.342-8.8517 11.342-5.891 0-8.8288-3.7803-8.8288-11.342v-4.828c0-7.5914 2.9378-11.387 8.8288-11.387 5.8986 0 8.8517 3.7959 8.8517 11.387zm4.2208-4.828c0-4.8429-1.1313-8.5784-3.401-11.197-2.2697-2.6192-5.4887-3.9254-9.6715-3.9254-4.1979 0-7.4243 1.3136-9.6792 3.9401-2.2544 2.6193-3.3783 6.3542-3.3783 11.182v4.828c0 4.8668 1.1313 8.5938 3.3936 11.19 2.2623 2.5886 5.4808 3.8871 9.6639 3.8871 4.1675 0 7.3865-1.2906 9.6641-3.8798 2.2771-2.5883 3.4084-6.3158 3.4084-11.197zm-58.486 15.638v-13.254h3.9328c3.7196 0 6.2779 0.5012 7.6598 1.5106 1.3889 1.0097 2.0797 2.7181 2.0797 5.1395 0 2.3077-0.6145 3.9934-1.8521 5.0332-1.2373 1.0476-3.9172 1.5712-8.0391 1.5712zm15.077-30.115-7.9636 13.209-1.5563-0.0454h-5.557v-13.164h-4.1825v33.85h7.9636c5.1392 0 8.7835-0.8354 10.916-2.5129 2.1334-1.6778 3.2038-4.2891 3.2038-7.8267 0-4.8816-2.1028-8.0241-6.3165-9.4363l8.4725-14.075z"/></g><g transform="matrix(1.3333,0,0,-1.3333,-217.74,540.81)" fill="#ef5350"><path d="m626.46 193.31v5.5309c5.5438-0.6755 10.96-1.0063 16.236-1.0063 3.9889 0 6.9203 0.739 8.7937 2.23 1.8731 1.5038 2.8162 3.8614 2.8162 7.0983 0 2.3834-0.5604 4.2948-1.6821 5.7098-1.1083 1.4273-3.1348 2.8035-6.0403 4.1414l-9.7112 4.3719c-4.3589 1.9621-7.3917 4.1547-9.1123 6.5503-1.7206 2.4086-2.5747 5.3524-2.5747 8.8319 0 9.163 6.1812 13.738 18.556 13.738 6.2192 0 11.457-0.51 15.688-1.5296v-5.5559c-5.8754 0.637-11.036 0.9683-15.459 0.9683-4.18 0-7.1748-0.6123-8.9847-1.8354-1.7972-1.211-2.7017-3.1476-2.7017-5.7858 0-2.4593 0.599-4.3585 1.7841-5.6965 1.1982-1.3258 3.1482-2.5875 5.8624-3.7851l9.7877-4.2948c4.18-1.8351 7.1878-4.0019 9.0102-6.4746 1.8352-2.4848 2.753-5.5944 2.753-9.3543 0-4.932-1.5678-8.7426-4.6902-11.432-3.1224-2.6762-7.825-4.0272-14.095-4.0272-5.773 0-11.189 0.5355-16.236 1.6059zm-7.812-0.2929c-5.0468-0.8795-9.4308-1.313-13.139-1.313-8.2199 0-14.095 2.052-17.626 6.1558-3.5297 4.1161-5.3017 10.323-5.3017 18.632v9.4181c0 8.2074 1.7592 14.363 5.2637 18.454 3.5178 4.1035 9.3929 6.1427 17.664 6.1427 3.7086 0 8.0926-0.4334 13.139-1.3003v-5.7092c-5.7223 0.4969-10.106 0.739-13.139 0.739-5.8751 0-9.9913-1.4273-12.362-4.2948-2.3575-2.8542-3.543-7.5444-3.543-14.031v-9.4181c0-6.5123 1.1982-11.228 3.581-14.108 2.3961-2.8928 6.5001-4.3334 12.324-4.3334 3.2372 0 7.6212 0.2427 13.139 0.7138zm-53.832-0.2293v56.826h7.0222v-56.826zm-26.291 50.556v-50.556h-7.0475v50.556h-17.511v6.27h42.069v-6.27zm-49.626-8.9595c-0.9938 3.0844-1.7586 6.194-2.3069 9.3291h-0.7514c-0.8161-3.9506-1.5931-7.073-2.3074-9.3291l-5.4162-16.58h16.122zm13.369-41.597-5.9003 18.594h-20.34l-6.0152-18.594h-7.1368l18.594 56.826h9.7115l18.594-56.826zm-54.736 0v36.92c0 2.8168 0.1273 6.3473 0.3821 10.578h-0.1528c-0.3574-0.8283-1.7079-3.7338-4.066-8.7426l-9.5576-20.391h-8.6281l-13.407 29.133h-0.1533c0.204-5.3523 0.3061-8.8826 0.3061-10.578v-36.92h-6.9455v56.826h9.2523l11.763-25.616c0.803-1.7334 1.9247-4.2948 3.3644-7.6464h0.1534l3.5424 7.7989 11.903 25.463h9.1887v-56.826zm-83.921 50.556v-22.252h6.6016c6.2445 0 10.539 0.8411 12.859 2.5362 2.3326 1.6945 3.4917 4.562 3.4917 8.6281 0 3.8738-1.0318 6.7033-3.109 8.4492-2.0775 1.7586-6.5761 2.6382-13.496 2.6382zm25.31-50.556-13.369 22.175-2.6124-0.0765h-9.3288v-22.098h-7.0223v56.826h13.369c8.6275 0 14.745-1.4018 18.326-4.218 3.5813-2.8168 5.3784-7.2009 5.3784-13.139 0-8.1947-3.5299-13.471-10.603-15.842l14.222-23.627z"/><path d="m252.88 243.34v-17.918h25.004v-6.3212h-25.004v-26.317h-7.0223v56.826h33.632v-6.27z"/><path d="m222.33 192.79-20.047 40.769c-2.8035 5.6966-4.3453 8.9082-4.5879 9.635h-0.1528c0.2548-3.7851 0.3693-7.7357 0.3693-11.878v-38.525h-6.5633v56.826h10.081l19.817-39.686c1.4531-2.893 2.9824-6.1302 4.6007-9.7112h0.1528c-0.2546 3.6579-0.3821 7.7993-0.3821 12.438v36.958h6.7288v-56.826z"/><path d="m168.56 192.79v56.826h7.5002v-56.826z" stroke-width="1.0335"/></g><g transform="matrix(1.3333,0,0,-1.3333,-217.74,540.81)" fill="#ef5350" fill-rule="evenodd"><path d="m376.31 405.62c-4.9706 0-9.0002-4.0297-9.0002-9.001 0-4.9706 4.03-9.0002 9.0002-9.0002 4.971 0 9.0002 4.0294 9.0002 9.0002 0 4.971-4.0295 9.001-9.0002 9.001" stroke-width=".76409"/><path d="m412.32 337.37c-9.3204 0-16.875-7.5558-16.875-16.875 0-9.3204 7.555-16.875 16.875-16.875 9.3199 0 16.875 7.5555 16.875 16.875 0 9.3197-7.5556 16.875-16.875 16.875zm0-6.7714c-5.5802 0-10.104-4.524-10.104-10.104 0-5.5808 4.5237-10.104 10.104-10.104 5.5808 0 10.104 4.5238 10.104 10.104 0 5.58-4.5232 10.104-10.104 10.104" stroke-width=".94308"/><path d="m373.31 393.62v-96.002h-204.01v-6.0002h462.01v54.001h-6.0002v-48.001h-210.01v12h-6.0002v-12h-30.001v96.002z"/><path d="m568.32 270.61c-4.9704 0-9.0002-4.0296-9.0002-8.9999 0-4.9708 4.0298-9.0002 9.0002-9.0002 4.9707 0 9.0002 4.0294 9.0002 9.0002 0 4.9704-4.0296 8.9999-9.0002 8.9999" stroke-width="1.0776"/><path d="m661.32 345.62v-66.002h-492.01v-18h6.0002v12h138v-24.751h6.0002v24.751h246.01v-12h6.0002v12h96.002v72.002z"/><path d="m172.31 270.61c-4.9707 0-9.0003-4.0295-9.0003-9.0003 0-4.9704 4.0296-9 9.0003-9 4.9705 0 9.0001 4.0296 9.0001 9 0 4.9708-4.0296 9.0003-9.0001 9.0003" stroke-width="1.0777"/><path d="m316.31 191.11c-16.569 0-30.001 13.432-30.001 30.001s13.432 30.001 30.001 30.001c16.569 0 30-13.432 30-30.001s-13.431-30.001-30-30.001zm0 8.0878c-12.103 0-21.913 9.8105-21.913 21.913 0 12.103 9.8105 21.913 21.913 21.913 12.103 0 21.913-9.8105 21.913-21.913 0-12.103-9.8105-21.913-21.913-21.913" stroke-width=".9639"/></g><g fill="#000" aria-label="20"><path d="m492.24 136v-12.016h-54.887v-2.0768c0-17.505 4.5987-23.587 27.889-36.048 22.103-11.868 28.334-21.362 28.334-35.158 0-18.84-12.461-26.702-37.976-26.702-11.719 0-23.29 2.0768-29.076 3.4119v10.532c8.1589-1.3351 19.285-2.2252 28.334-2.2252 18.246 0 25.07 3.7086 25.07 14.983 0 9.9391-3.857 15.131-22.252 25.07-24.328 13.203-33.674 22.103-33.674 46.283v13.944z" stroke-width="1.0302"/><path d="m582.44 90.414v-20.827c0-30.294-13.836-45.586-38.013-45.586-24.177 0-38.013 15.293-38.013 45.586v20.827c0 30.148 13.836 45.586 38.013 45.586 24.177 0 38.013-15.438 38.013-45.586zm-13.399 0c0 25.633-10.341 34.081-24.614 34.081-14.127 0-24.614-8.4473-24.614-34.081v-20.827c0-25.633 10.486-34.081 24.614-34.081 14.273 0 24.614 8.4473 24.614 34.081z" stroke-width="1.0114"/></g></svg>
