<?xml version="1.0" encoding="UTF-8"?>
<svg width="1120" height="320" version="1.1" viewBox="0 0 1120 320" xml:space="preserve" xmlns="http://www.w3.org/2000/svg"><title>BOI 2022 logotype</title><g transform="translate(32,32)"><path d="m396 0h116v256h-116z" fill="#ce1126" style="mix-blend-mode:normal"/><path d="m296 0a128 128 0 0 0-124.03 97.514c29.209 12.758 49.631 41.886 49.631 75.797 0 17.254-5.2897 33.268-14.328 46.523a128 128 0 0 0 88.725 36.166 128 128 0 0 0 128-128 128 128 0 0 0-128-128z" fill="#fcd116" style="mix-blend-mode:normal"/><path d="m0 0v256h6.1934 6.1934v-52.646h-6.1934v-6.1934h6.1934v-12.387h-6.1934v-6.1934h2.2109l25.66-16.037 21.678 13.547v-6.8008h-6.1934v-6.1934h6.1934v-37.16h-3.0977v-6.1934h3.9453c3.5149-9.4201 13.957-19.124 27.021-24.225v-9.8398h-6.1934v-6.1934h21.678v-9.291h6.1934v9.291h21.678v6.1934h-6.1934v9.8418c13.062 5.0969 23.503 14.803 27.021 24.223h3.9473v6.1934h-3.0977v37.16h6.1934v6.1934h-6.1934v6.8008l21.678-13.547 25.66 16.037h2.2109v6.1934h-6.1934v12.389h6.1934v6.1934h-6.1934v33.34c18.092-15.168 29.604-37.929 29.604-63.385 0-45.668-37.021-82.689-82.689-82.689-1.4478 0.0655-2.8936 0.16905-4.3359 0.31055 10.406-9.9697 16.293-23.755 16.299-38.166 0-29.206-23.676-52.766-52.883-52.766h-97.994zm89.807 85.678v7.8105c4.0013-1.0342 8.1627-1.6172 12.387-1.6172 4.224 0 8.3854 0.58295 12.387 1.6172v-7.8105h-24.773zm12.387 12.387c-2.592 0-7.4287 9.8051-8.9551 21.678h17.912c-1.527-11.873-6.365-21.678-8.957-21.678zm10.371 3.3926c2.592 5.7075 4.1469 12.847 4.8125 18.285h8.7598c-2.1798-7.0547-7.3073-14.213-13.572-18.285zm-20.742 0.00195c-6.2617 4.0723-11.39 11.232-13.57 18.283h8.7578c0.6624-5.4413 2.2205-12.576 4.8125-18.283zm-12.078 2.6465c-7.7075 4.2982-13.57 10.229-16.385 15.637h8.4414c1.3472-5.4381 4.1469-10.958 7.9434-15.637zm44.895 0c3.7965 4.6765 6.5994 10.195 7.9434 15.637h8.4414c-2.8122-5.4067-8.6747-11.338-16.385-15.637zm-62.703 21.83v35.248l40.258-20.131 40.258 20.131v-35.248h-80.516zm6.1934 6.1934h6.1934v6.1934h-6.1934v-6.1934zm15.484 0h6.1934v6.1934h-6.1934v-6.1934zm15.482 0h6.1934v6.1934h-6.1934v-6.1934zm15.484 0h6.1934v6.1934h-6.1934v-6.1934zm15.484 0h6.1934v6.1934h-6.1934v-6.1934zm-27.871 15.85-30.234 15.117h10.924l19.311-9.6543 19.311 9.6543v0.00196h10.926l-30.236-15.119zm0 12.387-5.459 2.7305h10.922l-5.4629-2.7305zm-40.258 8.9258v9.2891h12.387v-9.2891h-12.387zm18.58 0v9.2891h43.355v-9.2891h-43.355zm49.549 0v9.2891h12.387v-9.2891h-12.387zm-96 0.55664-13.977 8.7324h27.951l-13.975-8.7324zm136.26 0-13.975 8.7324h27.951l-13.977-8.7324zm-151.74 14.926v12.387h18.58v-12.387h-18.58zm24.775 0v18.58h12.387v-18.58h-12.387zm18.58 0v6.1934h6.1934v-6.1934h-6.1934zm12.387 0v71.227h6.1934v-71.227h-6.1934zm12.387 0v6.1934h6.1934v-6.1934h-6.1934zm12.387 0v71.227h6.1934v-71.227h-6.1934zm12.389 0v6.1934h6.1934v-6.1934h-6.1934zm12.387 0v71.227h6.1934v-71.227h-6.1934zm12.387 0v6.1934h6.1934v-6.1934h-6.1934zm12.387 0v18.582h12.387v-18.582h-12.387zm18.582 0v12.387h18.58v-12.387h-18.58zm-142.45 3.0976h6.1934v6.1934h-6.1934v-6.1934zm148.64 0h6.1934v6.1934h-6.1934v-6.1934zm-111.48 9.2891v58.84h6.1934v-58.84h-6.1934zm24.773 0v58.84h6.1934v-58.84h-6.1934zm24.775 0v58.84h6.1934v-58.84h-6.1934zm24.773 0v58.84h2.6562c1.1861 0 2.3632-0.04039 3.5371-0.08984v-58.75h-6.1934zm-117.68 6.1953v52.645h18.58v-52.645h-18.58zm148.65 0v47.668c6.6342-2.4176 12.864-5.6694 18.58-9.6133v-38.055h-18.58zm-142.45 6.1934h6.1934v30.967h-6.1934v-30.967zm18.582 0v24.773h12.387v-24.773h-12.387zm105.29 0v24.773h12.387v-24.773h-12.387zm24.773 0h6.1934v30.967h-6.1934v-30.967zm-130.06 30.967v15.484h12.387v-15.484h-12.387zm105.29 0v14.895c4.2366-0.49694 8.3728-1.3132 12.389-2.4258v-12.469h-12.389z" fill="#002b7f" style="mix-blend-mode:normal"/></g><g aria-label="Balkan Olympiad in Informatics"><path d="m608 78.667v-5h6.5333v-36.667h-6.5333v-5h23.4q4.0667 0 7.2 1.4667 3.2 1.4667 4.9333 4.1333 1.8 2.6 1.8 6.1333v0.53333q0 3.2667-1.2667 5.4-1.2667 2.0667-3 3.2667-1.7333 1.1333-3.4 1.6667v0.93333q1.6667 0.4 3.4667 1.6 1.8 1.1333 3 3.2667 1.2667 2.1333 1.2667 5.4v0.66667q0 3.8-1.8667 6.6-1.8 2.7333-5 4.2-3.1333 1.4-7.2 1.4zm12.133-5.0667h10.6q4.4 0 6.7333-2.0667 2.3333-2.0667 2.3333-5.6v-0.6q0-3.5333-2.3333-5.6-2.3333-2.0667-6.7333-2.0667h-10.6zm0-21h10.8q4 0 6.4-2 2.4-2.0667 2.4-5.4v-0.66667q0-3.4-2.4-5.4-2.3333-2.0667-6.4-2.0667h-10.8z"/><path d="m661.47 79.6q-3.4 0-6.2-1.2-2.8-1.2-4.4-3.4667t-1.6-5.5333q0-3.3333 1.6-5.4667 1.6-2.2 4.4-3.2667 2.8-1.1333 6.2667-1.1333h11v-2.4q0-3.4667-2.0667-5.4667-2-2-6-2-3.9333 0-6.1333 1.9333-2.2 1.8667-3 5.0667l-4.9333-1.6q0.8-2.7333 2.5333-4.9333 1.7333-2.2667 4.6-3.6 2.9333-1.4 7-1.4 6.2667 0 9.7333 3.2667 3.4667 3.2 3.4667 9.0667v14.733q0 2 1.8667 2h3v4.4667h-4.6q-2.2 0-3.5333-1.2-1.3333-1.2667-1.3333-3.3333v-0.33333h-0.8q-0.73334 1.2667-2 2.6667-1.2 1.3333-3.3333 2.2-2.1333 0.93333-5.5333 0.93333zm0.6-4.5333q4.6667 0 7.5333-2.7333 2.9333-2.8 2.9333-7.8v-0.73333h-10.8q-3.1333 0-5.2 1.4-2 1.3333-2 4.0667 0 2.7333 2.0667 4.2667 2.1333 1.5333 5.4667 1.5333z"/><path d="m686.8 78.667v-46.667h5.2667v46.667z"/><path d="m700.13 78.667v-46.667h5.2667v27.467h0.93333l14.933-13.4h7.3333l-18.067 15.867 18.6 16.733h-7.2667l-15.533-14.2h-0.93333v14.2z"/><path d="m742.27 79.6q-3.4 0-6.2-1.2-2.8-1.2-4.4-3.4667t-1.6-5.5333q0-3.3333 1.6-5.4667 1.6-2.2 4.4-3.2667 2.8-1.1333 6.2667-1.1333h11v-2.4q0-3.4667-2.0667-5.4667-2-2-6-2-3.9333 0-6.1333 1.9333-2.2 1.8667-3 5.0667l-4.9333-1.6q0.8-2.7333 2.5333-4.9333 1.7333-2.2667 4.6-3.6 2.9333-1.4 7-1.4 6.2667 0 9.7333 3.2667 3.4667 3.2 3.4667 9.0667v14.733q0 2 1.8667 2h3v4.4667h-4.6q-2.2 0-3.5333-1.2-1.3333-1.2667-1.3333-3.3333v-0.33333h-0.8q-0.73333 1.2667-2 2.6667-1.2 1.3333-3.3333 2.2-2.1333 0.93333-5.5333 0.93333zm0.6-4.5333q4.6667 0 7.5333-2.7333 2.9333-2.8 2.9333-7.8v-0.73333h-10.8q-3.1333 0-5.2 1.4-2 1.3333-2 4.0667 0 2.7333 2.0667 4.2667 2.1333 1.5333 5.4667 1.5333z"/><path d="m767.6 78.667v-32.6h5.1333v5.5333h0.93333q1.0667-2.3333 3.6-4.2 2.6-1.9333 7.6-1.9333 3.6667 0 6.5333 1.5333 2.9333 1.5333 4.6667 4.5333 1.7333 3 1.7333 7.4v19.733h-5.2667v-19.333q0-4.8667-2.4667-7.0667-2.4-2.2-6.5333-2.2-4.7333 0-7.7333 3.0667-2.9333 3.0667-2.9333 9.1333v16.4z"/><path d="m627.13 146.27q-8.3333 0-13.333-4.8-4.9333-4.8667-4.9333-14.133v-10.667q0-9.2667 4.9333-14.067 5-4.8667 13.333-4.8667 8.4 0 13.333 4.8667 5 4.8 5 14.067v10.667q0 9.2667-5 14.133-4.9333 4.8-13.333 4.8zm0-5q6.0667 0 9.4-3.6 3.3333-3.6667 3.3333-10.133v-11.067q0-6.4667-3.3333-10.067-3.3333-3.6667-9.4-3.6667-6 0-9.3333 3.6667-3.3333 3.6-3.3333 10.067v11.067q0 6.4667 3.3333 10.133 3.3333 3.6 9.3333 3.6z"/><path d="m652 145.33v-46.667h5.2667v46.667z"/><path d="m669.27 158.67v-4.6667h18.667q1.9333 0 1.9333-2v-11.867h-0.93333q-0.66667 1.4-2.0667 2.8-1.3333 1.3333-3.5333 2.2-2.2 0.8-5.5333 0.8-3.5333 0-6.5333-1.5333-2.9333-1.5333-4.6667-4.5333-1.6667-3-1.6667-7.3333v-19.8h5.2667v19.4q0 4.8 2.4 7 2.4667 2.2 6.6 2.2 4.6667 0 7.6667-3.0667 3-3.0667 3-9.1333v-16.4h5.2667v40.2q0 2.6667-1.5333 4.2-1.4667 1.5333-4.3333 1.5333z"/><path d="m703.13 145.33v-32.6h5.1333v4.0667h0.93334q0.93333-1.7333 3.0667-3.2 2.1333-1.4667 6-1.4667 3.8 0 6.1333 1.6667 2.4 1.6667 3.4667 4.0667h0.93334q1.1333-2.4 3.4-4.0667 2.3333-1.6667 6.4667-1.6667 3.2667 0 5.7333 1.3333 2.4667 1.3333 3.8667 3.8667 1.4667 2.4667 1.4667 5.9333v22.067h-5.2667v-21.6q0-3.2667-1.9333-5.1333-1.8667-1.9333-5.2667-1.9333-3.6 0-5.9333 2.3333-2.2667 2.3333-2.2667 6.7333v19.6h-5.2667v-21.6q0-3.2667-1.9333-5.1333-1.8667-1.9333-5.2667-1.9333-3.6 0-5.9333 2.3333-2.2667 2.3333-2.2667 6.7333v19.6z"/><path d="m757.47 158.67v-45.933h5.1333v5.4h0.93334q1.2667-2.4667 4.0667-4.4 2.8667-1.9333 7.9333-1.9333 4.2 0 7.6667 2.0667 3.5333 2 5.6 5.7333 2.1333 3.7333 2.1333 9v0.86667q0 5.2-2.0667 9-2.0667 3.8-5.6 5.8-3.4667 2-7.7333 2-3.4 0-5.8-0.93333-2.3333-0.86667-3.8-2.2667t-2.2667-2.8667h-0.93333v18.467zm16.667-17.067q5.0667 0 8.2-3.2 3.2-3.2667 3.2-9.0667v-0.6q0-5.8-3.2-9-3.1333-3.2667-8.2-3.2667-5 0-8.2667 3.2667-3.2 3.2-3.2 9v0.6q0 5.8 3.2 9.0667 3.2667 3.2 8.2667 3.2z"/><path d="m797.4 145.33v-32.6h5.2667v32.6zm2.6667-37.667q-1.7333 0-2.9333-1.1333-1.1333-1.1333-1.1333-2.8667 0-1.8 1.1333-2.9333 1.2-1.1333 2.9333-1.1333 1.7333 0 2.8667 1.1333 1.1333 1.1333 1.1333 2.9333 0 1.7333-1.1333 2.8667-1.1333 1.1333-2.8667 1.1333z"/><path d="m820.73 146.27q-3.4 0-6.2-1.2-2.8-1.2-4.4-3.4667t-1.6-5.5333q0-3.3333 1.6-5.4667 1.6-2.2 4.4-3.2667 2.8-1.1333 6.2667-1.1333h11v-2.4q0-3.4667-2.0667-5.4667-2-2-6-2-3.9333 0-6.1333 1.9333-2.2 1.8667-3 5.0667l-4.9333-1.6q0.8-2.7333 2.5333-4.9333 1.7333-2.2667 4.6-3.6 2.9333-1.4 7-1.4 6.2667 0 9.7333 3.2667 3.4667 3.2 3.4667 9.0667v14.733q0 2 1.8667 2h3v4.4667h-4.6q-2.2 0-3.5333-1.2-1.3333-1.2667-1.3333-3.3333v-0.33333h-0.8q-0.73333 1.2667-2 2.6667-1.2 1.3333-3.3333 2.2-2.1333 0.93333-5.5333 0.93333zm0.6-4.5333q4.6667 0 7.5333-2.7333 2.9333-2.8 2.9333-7.8v-0.73334h-10.8q-3.1333 0-5.2 1.4-2 1.3333-2 4.0667 0 2.7333 2.0667 4.2667 2.1333 1.5333 5.4667 1.5333z"/><path d="m858.93 146.27q-4.2 0-7.7333-2-3.5333-2-5.6-5.8-2.0667-3.8-2.0667-9v-0.86667q0-5.2 2.0667-8.9333 2.0667-3.8 5.5333-5.8 3.5333-2.0667 7.8-2.0667 3.4 0 5.7333 0.93333 2.4 0.86667 3.8667 2.2667 1.4667 1.3333 2.2667 2.8667h0.93334v-19.2h5.2667v46.667h-5.1333v-5.4h-0.93333q-1.3333 2.4667-4.1333 4.4-2.8 1.9333-7.8667 1.9333zm1.4-4.6667q5.0667 0 8.2-3.2 3.2-3.2667 3.2-9.0667v-0.6q0-5.8-3.2-9-3.1333-3.2667-8.2-3.2667-5 0-8.2667 3.2667-3.2 3.2-3.2 9v0.6q0 5.8 3.2 9.0667 3.2667 3.2 8.2667 3.2z"/><path d="m899.2 145.33v-32.6h5.2667v32.6zm2.6667-37.667q-1.7333 0-2.9333-1.1333-1.1333-1.1333-1.1333-2.8667 0-1.8 1.1333-2.9333 1.2-1.1333 2.9333-1.1333 1.7333 0 2.8667 1.1333 1.1333 1.1333 1.1333 2.9333 0 1.7333-1.1333 2.8667-1.1333 1.1333-2.8667 1.1333z"/><path d="m912.53 145.33v-32.6h5.1333v5.5333h0.93333q1.0667-2.3333 3.6-4.2 2.6-1.9333 7.6-1.9333 3.6667 0 6.5333 1.5333 2.9333 1.5333 4.6667 4.5333 1.7333 3 1.7333 7.4v19.733h-5.2667v-19.333q0-4.8667-2.4667-7.0667-2.4-2.2-6.5333-2.2-4.7333 0-7.7333 3.0667-2.9333 3.0667-2.9333 9.1333v16.4z"/><path d="m610.2 212v-46.667h5.6v46.667z"/><path d="m623.67 212v-32.6h5.1333v5.5333h0.93334q1.0667-2.3333 3.6-4.2 2.6-1.9333 7.6-1.9333 3.6667 0 6.5333 1.5333 2.9333 1.5333 4.6667 4.5333 1.7333 3 1.7333 7.4v19.733h-5.2667v-19.333q0-4.8667-2.4667-7.0667-2.4-2.2-6.5333-2.2-4.7333 0-7.7333 3.0667-2.9333 3.0667-2.9333 9.1333v16.4z"/><path d="m667 212v-28h-10v-4.6h10v-8.3333q0-2.6667 1.4667-4.2 1.5333-1.5333 4.3333-1.5333h8.2v4.5333h-6.7333q-2 0-2 2v7.5333h10.267v4.6h-10.267v28z"/><path d="m700.53 212.93q-4.9333 0-8.7333-2.0667-3.7333-2.0667-5.8667-5.8-2.0667-3.8-2.0667-8.9333v-0.86666q0-5.0667 2.0667-8.8667 2.1333-3.8 5.8667-5.8667 3.8-2.0667 8.7333-2.0667 4.9333 0 8.6667 2.0667 3.8 2.0667 5.8667 5.8667 2.1333 3.8 2.1333 8.8667v0.86666q0 5.1333-2.1333 8.9333-2.0667 3.7333-5.8667 5.8-3.7333 2.0667-8.6667 2.0667zm0-4.7333q5.2 0 8.2667-3.2667 3.1333-3.3333 3.1333-8.9333v-0.6q0-5.6-3.1333-8.8667-3.0667-3.3333-8.2667-3.3333-5.1333 0-8.2667 3.3333-3.1333 3.2667-3.1333 8.8667v0.6q0 5.6 3.1333 8.9333 3.1333 3.2667 8.2667 3.2667z"/><path d="m723.67 212v-32.6h5.1333v4h0.93333q0.86667-2.1333 2.6667-3.1333t4.7333-1h3.8667v4.8h-4.2q-3.5333 0-5.7333 2-2.1333 1.9333-2.1333 6.0667v19.867z"/><path d="m745.8 212v-32.6h5.1333v4.0667h0.93333q0.93333-1.7333 3.0667-3.2 2.1333-1.4667 6-1.4667 3.8 0 6.1333 1.6667 2.4 1.6667 3.4667 4.0667h0.93333q1.1333-2.4 3.4-4.0667 2.3333-1.6667 6.4667-1.6667 3.2667 0 5.7333 1.3333 2.4667 1.3333 3.8667 3.8667 1.4667 2.4667 1.4667 5.9333v22.067h-5.2667v-21.6q0-3.2667-1.9333-5.1333-1.8667-1.9333-5.2667-1.9333-3.6 0-5.9333 2.3333-2.2667 2.3333-2.2667 6.7333v19.6h-5.2667v-21.6q0-3.2667-1.9333-5.1333-1.8667-1.9333-5.2667-1.9333-3.6 0-5.9333 2.3333-2.2667 2.3333-2.2667 6.7333v19.6z"/><path d="m810.13 212.93q-3.4 0-6.2-1.2t-4.4-3.4667q-1.6-2.2667-1.6-5.5333 0-3.3333 1.6-5.4667 1.6-2.2 4.4-3.2667 2.8-1.1333 6.2667-1.1333h11v-2.4q0-3.4667-2.0667-5.4667-2-2-6-2-3.9333 0-6.1333 1.9333-2.2 1.8667-3 5.0667l-4.9333-1.6q0.8-2.7333 2.5333-4.9333 1.7333-2.2667 4.6-3.6 2.9333-1.4 7-1.4 6.2667 0 9.7333 3.2667 3.4667 3.2 3.4667 9.0667v14.733q0 2 1.8667 2h3v4.4667h-4.6q-2.2 0-3.5333-1.2-1.3333-1.2667-1.3333-3.3333v-0.33333h-0.8q-0.73333 1.2667-2 2.6667-1.2 1.3333-3.3333 2.2-2.1333 0.93333-5.5333 0.93333zm0.6-4.5333q4.6667 0 7.5333-2.7333 2.9333-2.8 2.9333-7.8v-0.73334h-10.8q-3.1333 0-5.2 1.4-2 1.3333-2 4.0667 0 2.7333 2.0667 4.2667 2.1333 1.5333 5.4667 1.5333z"/><path d="m845.33 212q-2.8 0-4.3333-1.5333-1.4667-1.5333-1.4667-4.2v-22.267h-9.8v-4.6h9.8v-11.6h5.2667v11.6h10.667v4.6h-10.667v21.467q0 2 1.9333 2h7.2667v4.5333z"/><path d="m861 212v-32.6h5.2667v32.6zm2.6667-37.667q-1.7333 0-2.9333-1.1333-1.1333-1.1333-1.1333-2.8667 0-1.8 1.1333-2.9333 1.2-1.1333 2.9333-1.1333 1.7333 0 2.8667 1.1333 1.1333 1.1333 1.1333 2.9333 0 1.7333-1.1333 2.8667-1.1333 1.1333-2.8667 1.1333z"/><path d="m889.33 212.93q-4.7333 0-8.5333-2-3.7333-2.0667-5.9333-5.8667-2.1333-3.8-2.1333-9v-0.73334q0-5.2667 2.1333-9 2.2-3.8 5.9333-5.8 3.8-2.0667 8.5333-2.0667 4.6667 0 7.9333 1.7333 3.3333 1.7333 5.2 4.6 1.9333 2.8667 2.4667 6.1333l-5.1333 1.0667q-0.33333-2.4-1.6-4.4-1.2-2-3.4-3.2-2.2-1.2-5.4-1.2-3.2667 0-5.8667 1.4667-2.5333 1.4667-4.0667 4.2-1.4667 2.7333-1.4667 6.5333v0.6q0 3.8 1.4667 6.5333 1.5333 2.7333 4.0667 4.2 2.6 1.4667 5.8667 1.4667 4.8667 0 7.4-2.5333 2.6-2.5333 3.2-6.2667l5.2 1.1333q-0.73333 3.2-2.6667 6.0667-1.9333 2.8667-5.2667 4.6-3.2667 1.7333-7.9333 1.7333z"/><path d="m924.33 212.93q-6.0667 0-10.267-2.8-4.1333-2.8-5-8.8667l5-1.1333q0.53333 3.2 2 5.0667 1.4667 1.8 3.6 2.6 2.2 0.73333 4.6667 0.73333 3.6667 0 5.8-1.4667 2.1333-1.4667 2.1333-3.9333 0-2.5333-2.0667-3.5333-2-1.0667-5.5333-1.7333l-2.7333-0.46667q-3.1333-0.53333-5.7333-1.6667-2.6-1.1333-4.1333-3.0667-1.5333-1.9333-1.5333-4.8667 0-4.4 3.4-6.8667 3.4-2.4667 9-2.4667 5.5333 0 8.9333 2.5333 3.4667 2.4667 4.4667 7l-4.9333 1.2667q-0.6-3.5333-2.8667-4.9333-2.2667-1.4667-5.6-1.4667-3.3333 0-5.2667 1.2667-1.9333 1.2-1.9333 3.6 0 2.3333 1.8 3.4667 1.8667 1.0667 4.9333 1.6l2.7333 0.46667q3.4667 0.6 6.2 1.6667 2.8 1 4.4 2.9333 1.6667 1.9333 1.6667 5.0667 0 4.8-3.6 7.4-3.5333 2.6-9.5333 2.6z"/></g><g aria-label="Bucharest 2022"><path d="m608 288.07v-7.7333h6.1333v-31.2h-6.1333v-7.7333h24q4.2667 0 7.4 1.4667 3.2 1.4 4.9333 4.0667 1.8 2.6 1.8 6.2667v0.66666q0 3.2-1.2 5.2667-1.2 2-2.8667 3.1333-1.6 1.0667-3.0667 1.5333v1.2q1.4667 0.4 3.2 1.5333 1.7333 1.0667 2.9333 3.1333 1.2667 2.0667 1.2667 5.4v0.66667q0 3.8667-1.8 6.6667-1.8 2.7333-5 4.2-3.1333 1.4667-7.3333 1.4667zm14.933-8h8.2667q2.8667 0 4.6-1.4 1.8-1.4 1.8-4v-0.66666q0-2.6-1.7333-4-1.7333-1.4-4.6667-1.4h-8.2667zm0-19.467h8.1333q2.7333 0 4.4667-1.4 1.8-1.4 1.8-3.8667v-0.66667q0-2.5333-1.7333-3.8667-1.7333-1.4-4.5333-1.4h-8.1333z"/><path d="m662.47 288.6q-3.8667 0-6.8-1.7333-2.8667-1.8-4.4667-4.9333-1.6-3.1333-1.6-7.2v-19.733h8.4v19.067q0 3.7333 1.8 5.6 1.8667 1.8667 5.2667 1.8667 3.8667 0 6-2.5333 2.1333-2.6 2.1333-7.2v-16.8h8.4v33.067h-8.2667v-4.3333h-1.2q-0.8 1.6667-3 3.2667t-6.6667 1.6z"/><path d="m702.47 289q-4.8 0-8.7333-2-3.8667-2-6.1333-5.8-2.2667-3.8-2.2667-9.2v-0.93334q0-5.4 2.2667-9.2 2.2667-3.8 6.1333-5.8 3.9333-2 8.7333-2 4.7333 0 8.1333 1.6667 3.4 1.6667 5.4667 4.6 2.1333 2.8667 2.8 6.5333l-8.1333 1.7333q-0.26667-2-1.2-3.6-0.93334-1.6-2.6667-2.5333-1.6667-0.93334-4.2-0.93334-2.5333 0-4.6 1.1333-2 1.0667-3.2 3.2667-1.1333 2.1333-1.1333 5.2667v0.66666q0 3.1333 1.1333 5.3333 1.2 2.1333 3.2 3.2667 2.0667 1.0667 4.6 1.0667 3.8 0 5.7333-1.9333 2-2 2.5333-5.2l8.1333 1.9333q-0.86667 3.5333-3 6.4667-2.0667 2.8667-5.4667 4.5333-3.4 1.6667-8.1333 1.6667z"/><path d="m722 288.07v-46.667h8.4v17.667h1.2q0.53334-1.0667 1.6667-2.1333t3-1.7333q1.9333-0.73334 4.8667-0.73334 3.8667 0 6.7333 1.8 2.9333 1.7333 4.5333 4.8667 1.6 3.0667 1.6 7.2v19.733h-8.4v-19.067q0-3.7333-1.8667-5.6-1.8-1.8667-5.2-1.8667-3.8667 0-6 2.6-2.1333 2.5333-2.1333 7.1333v16.8z"/><path d="m769.33 289q-3.5333 0-6.3333-1.2-2.8-1.2667-4.4667-3.6-1.6-2.4-1.6-5.8t1.6-5.6667q1.6667-2.3333 4.5333-3.4667 2.9333-1.2 6.6667-1.2h9.0667v-1.8667q0-2.3333-1.4667-3.8-1.4667-1.5333-4.6667-1.5333-3.1333 0-4.6667 1.4667-1.5333 1.4-2 3.6667l-7.7333-2.6q0.8-2.5333 2.5333-4.6 1.8-2.1333 4.7333-3.4 3-1.3333 7.2667-1.3333 6.5333 0 10.333 3.2667t3.8 9.4667v12.333q0 2 1.8667 2h2.6667v6.9333h-5.6q-2.4667 0-4.0667-1.2t-1.6-3.2v-0.0667h-1.2667q-0.26667 0.8-1.2 2.1333-0.93333 1.2667-2.9333 2.2667-2 1-5.4667 1zm1.4667-6.8q3.5333 0 5.7333-1.9333 2.2667-2 2.2667-5.2667v-0.66667h-8.4667q-2.3333 0-3.6667 1-1.3333 1-1.3333 2.8t1.4 2.9333q1.4 1.1333 4.0667 1.1333z"/><path d="m793.6 288.07v-33.067h8.2667v3.7333h1.2q0.73333-2 2.4-2.9333 1.7333-0.93334 4-0.93334h4v7.4667h-4.1333q-3.2 0-5.2667 1.7333-2.0667 1.6667-2.0667 5.2v18.8z"/><path d="m829.87 289q-4.9333 0-8.7333-2.0667-3.7333-2.1333-5.8667-5.9333-2.0667-3.8667-2.0667-9.0667v-0.8q0-5.2 2.0667-9 2.0667-3.8667 5.8-5.9333 3.7333-2.1333 8.6667-2.1333 4.8667 0 8.4667 2.2 3.6 2.1333 5.6 6 2 3.8 2 8.8667v2.8667h-24.067q0.13333 3.4 2.5333 5.5333 2.4 2.1333 5.8667 2.1333 3.5333 0 5.2-1.5333 1.6667-1.5333 2.5333-3.4l6.8667 3.6q-0.93333 1.7333-2.7333 3.8-1.7333 2-4.6667 3.4667-2.9333 1.4-7.4667 1.4zm-8.0667-21.267h15.467q-0.26667-2.8667-2.3333-4.6-2-1.7333-5.2667-1.7333-3.4 0-5.4 1.7333-2 1.7333-2.4667 4.6z"/><path d="m863 289q-6.4667 0-10.6-2.8-4.1333-2.8-5-8l7.7333-2q0.46667 2.3333 1.5333 3.6667 1.1333 1.3333 2.7333 1.9333 1.6667 0.53333 3.6 0.53333 2.9333 0 4.3333-1 1.4-1.0667 1.4-2.6 0-1.5333-1.3333-2.3333-1.3333-0.86667-4.2667-1.4l-1.8667-0.33334q-3.4667-0.66666-6.3333-1.8-2.8667-1.2-4.6-3.2667-1.7333-2.0667-1.7333-5.3333 0-4.9333 3.6-7.5333 3.6-2.6667 9.4667-2.6667 5.5333 0 9.2 2.4667t4.8 6.4667l-7.8 2.4q-0.53333-2.5333-2.2-3.6-1.6-1.0667-4-1.0667t-3.6667 0.86667q-1.2667 0.8-1.2667 2.2667 0 1.6 1.3333 2.4 1.3333 0.73333 3.6 1.1333l1.8667 0.33334q3.7333 0.66666 6.7333 1.8 3.0667 1.0667 4.8 3.1333 1.8 2 1.8 5.4667 0 5.2-3.8 8.0667-3.7333 2.8-10.067 2.8z"/><path d="m892.2 288.07q-3.2667 0-5.3333-2-2-2.0667-2-5.4667v-18.667h-8.2667v-6.9333h8.2667v-10.267h8.4v10.267h9.0667v6.9333h-9.0667v17.2q0 2 1.8667 2h6.4v6.9333z"/><path d="m917 288.07v-5.6q0-4.8667 1.6-8.0667 1.6-3.2667 4.6-5.3333 3.0667-2.1333 7.4667-3.4667l4.4667-1.4q2.4667-0.8 4.1333-1.9333 1.6667-1.2 2.5333-2.8667 0.93333-1.6667 0.93333-3.8v-0.26667q0-3.3333-2.2667-5.2667-2.2667-2-6.2-2-3.8667 0-6.2667 2.1333-2.3333 2.0667-2.3333 6v1.2h-8.5333v-1.0667q0-5.0667 2.2667-8.6 2.2667-3.5333 6.1333-5.4 3.9333-1.8667 8.7333-1.8667t8.6667 1.8667q3.8667 1.8 6.0667 5.1333 2.2667 3.2667 2.2667 7.7333v0.66666q0 4.4667-1.8667 7.6-1.8 3.0667-4.9333 5.0667-3.1333 1.9333-7.1333 3.2l-4.2667 1.3333q-2.8667 0.86667-4.4667 1.9333-1.6 1-2.2667 2.2667-0.6 1.2-0.6 2.9333v0.26667h25.133v7.6z"/><path d="m971.4 289q-8.2667 0-13.267-4.5333-5-4.6-5-13.867v-11.733q0-9 5-13.667 5-4.7333 13.267-4.7333 8.3333 0 13.267 4.7333 5 4.6667 5 13.667v11.733q0 9.2667-5 13.867-4.9333 4.5333-13.267 4.5333zm0-7.6q5 0 7.3333-2.7333 2.4-2.7333 2.4-7.8v-12.4q0-5.1333-2.6667-7.7333-2.6-2.6667-7.0667-2.6667-4.6 0-7.2 2.7333-2.5333 2.7333-2.5333 7.6667v12.4q0 5.2667 2.4 7.9333 2.4667 2.6 7.3333 2.6z"/><path d="m991.8 288.07v-5.6q0-4.8667 1.6-8.0667 1.6-3.2667 4.6-5.3333 3.0666-2.1333 7.4666-3.4667l4.4667-1.4q2.4667-0.8 4.1333-1.9333 1.6667-1.2 2.5334-2.8667 0.9333-1.6667 0.9333-3.8v-0.26667q0-3.3333-2.2667-5.2667-2.2666-2-6.2-2-3.8666 0-6.2666 2.1333-2.3334 2.0667-2.3334 6v1.2h-8.5333v-1.0667q0-5.0667 2.2667-8.6 2.2667-3.5333 6.1333-5.4 3.9333-1.8667 8.7333-1.8667t8.6667 1.8667q3.8667 1.8 6.0667 5.1333 2.2666 3.2667 2.2666 7.7333v0.66666q0 4.4667-1.8666 7.6-1.8 3.0667-4.9334 5.0667-3.1333 1.9333-7.1333 3.2l-4.2667 1.3333q-2.8666 0.86667-4.4666 1.9333-1.6 1-2.2667 2.2667-0.6 1.2-0.6 2.9333v0.26667h25.133v7.6z"/><path d="m1027.4 288.07v-5.6q0-4.8667 1.6-8.0667 1.6-3.2667 4.6-5.3333 3.0666-2.1333 7.4666-3.4667l4.4667-1.4q2.4667-0.8 4.1333-1.9333 1.6667-1.2 2.5334-2.8667 0.9333-1.6667 0.9333-3.8v-0.26667q0-3.3333-2.2667-5.2667-2.2666-2-6.2-2-3.8666 0-6.2666 2.1333-2.3334 2.0667-2.3334 6v1.2h-8.5333v-1.0667q0-5.0667 2.2667-8.6 2.2666-3.5333 6.1333-5.4 3.9333-1.8667 8.7333-1.8667t8.6667 1.8667q3.8667 1.8 6.0667 5.1333 2.2667 3.2667 2.2667 7.7333v0.66666q0 4.4667-1.8667 7.6-1.8 3.0667-4.9334 5.0667-3.1333 1.9333-7.1333 3.2l-4.2667 1.3333q-2.8666 0.86667-4.4666 1.9333-1.6 1-2.2667 2.2667-0.6 1.2-0.6 2.9333v0.26667h25.133v7.6z"/></g></svg>
