<?xml version="1.0" encoding="UTF-8"?>
<svg width="8192" height="2560" version="1.1" viewBox="0 0 8192 2560" xmlns="http://www.w3.org/2000/svg">
 <g transform="matrix(1.3333 0 0 -1.3333 0 2501.5)">
  <path transform="scale(1,-1)" d="m3559-931.12h427a86.018 86.018 36.65 0 1 82.39 61.301l98.219 327.4a47.618 47.618 126.65 0 1-45.61 61.301h-697a47.618 47.618 53.35 0 1-45.61-61.301l98.219-327.4a86.018 86.018 143.35 0 1 82.39-61.301z" fill="none" stroke="#352768" stroke-miterlimit="1" stroke-width="90" style="paint-order:normal"/>
  <g fill="#352768">
   <path d="m60 976.12h99.007v-540h-99.007v540"/>
   <path d="m664.49 976.12h99.74v-540h-107.99l-333 395.99v-395.99h-99.007v540h107.99l332.27-395.99v395.99"/>
   <path d="m1350.6 976.12v-98.991h-396.76v-121.5h319.51v-99.011h-319.51v-220.5h-99.754v540h496.51"/>
   <path d="m1829.9 535.13c2.2423 0 4.4953 2.2424 4.4953 5.2463v331.51c0 2.983-2.253 5.2463-4.4953 5.2463h-331.51c-3.0038 0-5.2462-2.2633-5.2462-5.2463v-331.51c0-3.0038 2.2424-5.2463 5.2462-5.2463zm0 440.99c57 0 104.25-46.486 104.25-104.24v-331.51c0-57.751-47.248-104.26-104.25-104.26h-331.51c-57.751 0-104.26 46.507-104.26 104.26v331.51c0 57.751 46.507 104.24 104.26 104.24h331.51"/>
   <path d="m2448.5 720.37c3.0037 0 5.2671 2.2633 5.2671 5.2567v145.51c0 2.9934-2.2634 5.2463-5.2671 5.2463h-330.74c-3.0038 0-5.2567-2.2529-5.2567-5.2463v-145.51c0-2.9934 2.2529-5.2567 5.2567-5.2567zm105.01 5.2567c0-57.01-47.258-104.25-105.01-104.25h-29.246l134.25-159.76v-25.501h-108l-156.01 185.26h-177v-185.26h-98.99v539.25h434.99c57.75 0 105.01-47.251 105.01-104.24v-145.51"/>
   <path d="m3133.2 976.12h108.75v-540h-99.752v395.99l-204.76-243.74-205.49 243.74v-395.99h-99.001v540h107.99l196.5-234 195.76 234"/>
  </g>
  <g fill="#231f20">
   <path d="m301.66 1674.3c1.6698 0 2.9248 1.2558 2.9248 2.9198v80.954c0 1.6642-1.2549 2.9198-2.9248 2.9198h-183.74c-1.67 0-2.9245-1.2556-2.9245-2.9198v-80.954c0-1.664 1.2544-2.9198 2.9245-2.9198zm58.335 2.9198c0-31.718-26.252-57.995-58.335-57.995h-16.249l74.584-88.876v-14.19h-59.996l-86.673 103.07h-98.335v-103.07h-54.996v300h241.66c32.084 0 58.335-26.287 58.335-57.985v-80.954"/>
   <path d="m692.08 1761.1c1.2457 0 2.5006-1.2438 2.5006-2.9157v-184.16c0-1.6616-1.2549-2.9155-2.5006-2.9155h-184.16c-1.6698 0-2.9155 1.2539-2.9155 2.9155v184.16c0 1.6719 1.2457 2.9157 2.9155 2.9157zm0-244.99c31.667 0 57.918 25.832 57.918 57.914v184.16c0 32.082-26.251 57.924-57.918 57.924h-184.16c-32.082 0-57.918-25.843-57.918-57.924v-184.16c0-32.082 25.836-57.914 57.918-57.914h184.16"/>
   <path d="m1117.9 1816.1h60.412v-300h-55.406v219.99l-113.75-135.41-114.17 135.41v-219.99h-55.004v300h60.005l109.17-130 108.75 130"/>
   <path d="m1519.6 1672v86.255c0 1.6616-1.2436 2.9155-2.9155 2.9155h-183.75c-1.6616 0-2.9155-1.2539-2.9155-2.9155v-86.255zm-2.9155 144.17c32.091 0 58.34-25.832 58.34-57.914v-242.09h-55.425v100.84h-189.58v-100.84h-54.997v242.09c0 32.082 25.832 57.914 57.912 57.914h183.75"/>
   <path d="m1909.6 1816.1h55.415v-300h-60.002l-184.99 219.99v-219.99h-55.007v300h60.012l184.57-219.99v219.99"/>
   <path d="m2055 1816.1h55.009v-300h-55.009v300"/>
   <path d="m2434.6 1672v86.255c0 1.6616-1.2437 2.9155-2.9155 2.9155h-183.74c-1.6718 0-2.9257-1.2539-2.9257-2.9155v-86.255zm-2.9155 144.17c32.091 0 58.34-25.832 58.34-57.914v-242.09h-55.425v100.84h-189.58v-100.84h-54.997v242.09c0 32.082 25.832 57.914 57.922 57.914h183.74"/>
   <path d="m2824.6 1816.1h55.415v-300h-60.002l-184.99 219.99v-219.99h-55.007v300h60.012l184.57-219.99v219.99"/>
   <path d="m337.92 1396.1h60.42v-300h-55.419v220l-113.75-135.42-114.16 135.42v-220h-55.004v300h59.997l109.17-130 108.75 130"/>
   <path d="m694.58 1252v86.254c0 1.6618-1.2457 2.9157-2.9155 2.9157h-183.75c-1.6698 0-2.9155-1.2539-2.9155-2.9157v-86.254zm-2.9155 144.17c32.082 0 58.333-25.832 58.333-57.914v-242.09h-55.417v100.83h-189.58v-100.83h-55.002v242.09c0 32.082 25.836 57.914 57.918 57.914h183.75"/>
   <path d="m1095 1315.3h-55.422v22.917c0 1.6618-1.2539 2.9157-2.4995 2.9157h-184.16c-1.6698 0-2.9155-1.2539-2.9155-2.9157v-61.666c0-1.6719 1.2457-2.9156 2.9155-2.9156h184.16c31.662 0 57.921-25.833 57.921-57.924v-61.666c0-32.082-26.26-57.914-57.921-57.914h-184.16c-32.083 0-57.917 25.832-57.917 57.914v22.917h55.002v-22.917c0-1.6618 1.2457-2.9156 2.9155-2.9156h184.16c1.2456 0 2.4995 1.2538 2.4995 2.9156v61.666c0 1.6618-1.2539 2.9156-2.4995 2.9156h-184.16c-32.083 0-57.917 25.843-57.917 57.924v61.666c0 32.082 25.835 57.914 57.917 57.914h184.16c31.662 0 57.921-25.832 57.921-57.914v-22.917"/>
   <path d="m1422.5 1396.1v-54.999h-122.08v-245h-55.417v245h-122.51v54.999h300"/>
   <path d="m1730.8 1341.1h-220.42v-67.497h177.5v-55.009h-177.5v-67.497h220.42v-54.999h-275.84v300h275.84v-54.999"/>
   <path d="m2011.7 1254c1.6616 0 2.9157 1.254 2.9157 2.9157v80.841c0 1.6617-1.2541 2.9156-2.9157 2.9156h-183.74c-1.6719 0-2.9257-1.2539-2.9257-2.9156v-80.841c0-1.6617 1.2538-2.9157 2.9257-2.9157zm58.332 2.9157c0-31.664-26.25-57.904-58.332-57.904h-16.25l74.582-88.762v-14.16h-59.994l-86.672 102.92h-98.335v-102.92h-54.999v299.58h241.67c32.082 0 58.332-26.24 58.332-57.914v-80.841"/>
   <path d="m2522.1 1151.1c1.2541 0 2.5079 1.2538 2.5079 2.9156v184.17c0 1.6618-1.2538 2.9157-2.5079 2.9157h-184.16c-1.6718 0-2.9155-1.2539-2.9155-2.9157v-184.17c0-1.6618 1.2437-2.9156 2.9155-2.9156zm0 245c31.673 0 57.923-25.832 57.923-57.914v-184.17c0-32.082-26.25-57.914-57.923-57.914h-184.16c-32.081 0-57.922 25.832-57.922 57.914v184.17c0 32.082 25.842 57.914 57.922 57.914h184.16"/>
   <path d="m2900.8 1396.1v-54.999h-220.41v-67.497h177.5v-55.009h-177.5v-122.5h-55.417v300h275.83"/>
  </g>
  <g fill="#352768">
   <path d="m4740 976.12v-98.994h-219.76v-441.01h-99.751v441.01h-220.5v98.994h540.01"/>
   <path d="m4801.7 976.12h99.011v-540h-99.011v540"/>
   <path d="m5064.8 877.13c-3.0142 0-5.2567-2.2529-5.2567-5.2462v-331.5c0-3.0038 2.2425-5.2462 5.2567-5.2462h434.24v-99.011h-434.24c-57.75 0-104.26 46.507-104.26 104.26v331.5c0 57.75 46.507 104.24 104.26 104.24h434.24v-98.994h-434.24"/>
   <path d="m6113.9 830.62h-99.751v41.261c0 2.9934-2.2422 5.2462-4.5056 5.2462h-331.49c-2.9934 0-5.2565-2.2529-5.2565-5.2462v-110.99c0-3.0142 2.2631-5.2567 5.2565-5.2567h331.49c57.01 0 104.26-46.496 104.26-104.25v-111.01c0-57.75-47.247-104.26-104.26-104.26h-331.49c-57.75 0-104.25 46.507-104.25 104.26v41.24h98.99v-41.24c0-3.0038 2.2631-5.2462 5.2565-5.2462h331.49c2.2634 0 4.5056 2.2424 4.5056 5.2462v111.01c0 2.983-2.2422 5.2462-4.5056 5.2462h-331.49c-57.75 0-104.25 46.507-104.25 104.26v110.99c0 57.75 46.496 104.24 104.25 104.24h331.49c57.01 0 104.26-46.49 104.26-104.24v-41.261"/>
  </g>
  <g fill="#231f20">
   <path d="m4979.6 316.12c31.667 0 57.501-25.824 57.501-57.491v-66.675c0-31.667-25.834-57.501-57.501-57.501h-182.09c-1.665 0-2.9112-0.82728-2.9112-2.5028v-58.328c0-1.6654 1.2462-2.922 2.9112-2.922h239.59v-54.58h-297.09v115.83c0 31.667 25.834 57.501 57.501 57.501h182.09c1.6755 0 2.9217 1.2462 2.9217 2.5028v66.675c0 1.665-1.2462 2.9112-2.9217 2.9112h-182.09c-1.665 0-2.9112-1.2462-2.9112-2.9112v-22.515h-54.59v22.515c0 31.667 25.834 57.491 57.501 57.491h182.09"/>
   <path d="m5327 71.118c1.248 0 2.4959 1.2465 2.4959 2.9216v184.17c0 1.665-1.2479 2.9112-2.4959 2.9112h-184.43c-1.6779 0-2.9259-1.2462-2.9259-2.9112v-184.17c0-1.6751 1.248-2.9216 2.9259-2.9216zm0 245c31.713 0 58.004-25.824 58.004-57.91v-184.17c0-32.086-26.291-57.92-58.004-57.92h-184.43c-32.132 0-58.004 25.834-58.004 57.92v184.17c0 32.086 25.872 57.91 58.004 57.91h184.43"/>
   <path d="m5670.4 316.12c31.667 0 57.501-25.824 57.501-57.491v-66.675c0-31.667-25.834-57.501-57.501-57.501h-182.09c-1.665 0-2.9112-0.82728-2.9112-2.5028v-58.328c0-1.6654 1.2462-2.922 2.9112-2.922h239.59v-54.58h-297.09v115.83c0 31.667 25.834 57.501 57.501 57.501h182.09c1.6755 0 2.9217 1.2462 2.9217 2.5028v66.675c0 1.665-1.2462 2.9112-2.9217 2.9112h-182.09c-1.665 0-2.9112-1.2462-2.9112-2.9112v-22.515h-54.59v22.515c0 31.667 25.834 57.491 57.501 57.491h182.09"/>
   <path transform="scale(1,-1)" d="m5942.1-16.204v-75.117h-188v-51.046l191.32-172.64h51.046v168.91h41.916v54.781h-41.916v75.117zm-103.34-129.9h103.34v-86.322z" stroke-width=".75002" style="font-variation-settings:'wght' 700"/>
  </g>
  <g fill="#352768">
   <path d="m3540 961.12-73.237-42.998-90.659 159.71 73.228 42.999 90.668-159.71"/>
   <path d="m3422.3 1107.6-21.401-12.555c-9.9775-5.8644-22.748-2.3888-28.513 7.7682l-7.1306 12.564c-5.7655 10.157-2.3439 23.134 7.6425 28.998l21.392 12.564c9.9864 5.8553 22.748 2.3798 28.513-7.7682l7.1305-12.573c5.7656-10.148 2.344-23.134-7.6334-28.998zm88.216 14.36-59.892 105.5c-5.7566 10.148-18.527 13.624-28.504 7.7682l-129.81-76.218c-9.9863-5.8643-13.408-18.841-7.6425-28.998l59.892-105.49c5.7654-10.157 18.527-13.632 28.513-7.7682l129.81 76.209c9.9774 5.8644 13.399 18.85 7.6335 28.998"/>
   <path d="m4005 961.12 73.228-42.998 90.668 159.71-73.237 42.999-90.659-159.71"/>
   <path d="m4115.1 1136.6 7.1305 12.573c5.7656 10.148 18.527 13.624 28.513 7.7682l21.392-12.564c9.9864-5.8643 13.408-18.841 7.6425-28.998l-7.1306-12.564c-5.7655-10.157-18.527-13.633-28.513-7.7682l-21.392 12.555c-9.9864 5.8643-13.408 18.85-7.6424 28.998zm-72.94-43.637 129.8-76.209c9.9864-5.8643 22.748-2.3888 28.513 7.7682l59.892 105.49c5.7654 10.157 2.3438 23.134-7.6426 28.998l-129.8 76.218c-9.9863 5.8554-22.748 2.3799-28.513-7.7682l-59.892-105.5c-5.7655-10.148-2.3439-23.134 7.6425-28.998"/>
   <path transform="scale(1,-1)" x="3570" y="-676.12" width="90" height="90" d="m3586-676.12h58a16 16 45 0 1 16 16v58a16 16 135 0 1-16 16h-58a16 16 45 0 1-16-16v-58a16 16 135 0 1 16-16z" style="paint-order:normal"/>
   <path transform="scale(1,-1)" x="3885" y="-676.12" width="90" height="90" d="m3901-676.12h58a16 16 45 0 1 16 16v58a16 16 135 0 1-16 16h-58a16 16 45 0 1-16-16v-58a16 16 135 0 1 16-16z" style="paint-order:normal"/>
  </g>
 </g>
</svg>
