<svg width="180" height="240" version="1.1" viewBox="0 0 179.08 262.76" xmlns="http://www.w3.org/2000/svg">
 <title>Aqua Carpatica logo</title>
 <g transform="translate(-369.53 -234.78)">
  <g transform="matrix(1.3333 0 0 -1.3333 416.89 464.53)">
   <path d="m0 0-0.484 0.582-5e-3 4e-3 -0.456 0.601-6e-3 5e-3 -0.426 0.618-6e-3 5e-3 -0.398 0.622-6e-3 0.012-0.369 0.634-5e-3 0.013-0.341 0.644v0.011l-0.311 0.659-5e-3 0.01-0.284 0.675v5e-3l-0.252 0.687-6e-3 0.012-0.218 0.697v0.011l-0.197 0.709v6e-3l-0.163 0.721v0.012l-0.131 0.732-6e-3 0.011-0.103 0.743v0.011l-0.076 0.756v0.011l-0.047 0.761v0.012l-0.011 0.777v6e-3l5e-3 0.439v5e-3l0.018 0.428v0.011l0.023 0.427 6e-3 5e-3 0.041 0.427v5e-3l0.045 0.427 7e-3 5e-3 0.058 0.422v5e-3l0.074 0.421v6e-3l0.081 0.421 7e-3 5e-3 0.092 0.421v5e-3l0.103 0.415 6e-3 7e-3 0.114 0.409v7e-3l0.127 0.414v6e-3l0.139 0.409 6e-3 6e-3 0.143 0.409 6e-3 7e-3 0.156 0.402v6e-3l0.173 0.408v7e-3l0.179 0.403h6e-3l0.183 0.399 7e-3 5e-3 0.196 0.392 5e-3 6e-3 0.202 0.386 5e-3 6e-3 0.22 0.381v5e-3l0.225 0.368 6e-3 7e-3 0.236 0.369v5e-3l0.247 0.357v6e-3l0.254 0.358 7e-3 6e-3 0.258 0.345 7e-3 6e-3 0.27 0.346h7e-3l0.276 0.343 5e-3 0.012 0.294 0.329 0.3 0.325v6e-3l0.311 0.316v6e-3l0.317 0.311 5e-3 0.012 0.335 0.307 7e-3 5e-3 0.334 0.302 5e-3 6e-3 0.341 0.288 6e-3 6e-3 0.351 0.283 5e-3 5e-3 0.353 0.27h6e-3l0.356 0.265v6e-3l0.364 0.255h4e-3l0.37 0.247 7e-3 7e-3 0.373 0.23 6e-3 5e-3 0.375 0.225 6e-3 6e-3 0.387 0.213 6e-3 5e-3 0.384 0.208h7e-3l0.392 0.202h6e-3l0.398 0.191h6e-3l0.402 0.178 6e-3 5e-3 0.403 0.168 0.013 6e-3 0.414 0.156 6e-3 5e-3 0.421 0.15h6e-3l0.421 0.138 6e-3 6e-3 0.42 0.127h5e-3l0.428 0.122h6e-3l0.432 0.108 5e-3 6e-3 0.434 0.098h4e-3l0.433 0.088 0.011 5e-3 0.439 0.074h5e-3l0.438 0.07h6e-3l0.443 0.058h6e-3l0.444 0.05h5e-3l0.451 0.036h5e-3l0.45 0.029h6e-3l0.456 0.017h5e-3l0.45 5e-3h0.011l0.461-5e-3h6e-3l0.461-0.017h6e-3l0.455-0.029h0.012l0.449-0.036 6e-3 -4e-3 0.456-0.046h0.012l0.443-0.058h6e-3l0.45-0.07h6e-3l0.443-0.079h6e-3l0.438-0.094h0.011l0.438-0.103h6e-3l0.431-0.109h7e-3l0.433-0.127h6e-3l0.431-0.132h6e-3l0.427-0.146h5e-3l0.422-0.154h6e-3l0.419-0.168h6e-3l0.41-0.173h6e-3l0.404-0.179h0.01l0.399-0.191h6e-3l0.391-0.201h0.013l0.385-0.207 6e-3 -6e-3 0.385-0.213 7e-3 -6e-3 0.374-0.224h6e-3l0.37-0.237 0.012-6e-3 0.361-0.242 6e-3 -6e-3 0.359-0.248 4e-3 -6e-3 0.358-0.265 0.346-0.27 5e-3 -5e-3 0.34-0.284h6e-3l0.336-0.287 5e-3 -6e-3 0.328-0.303 0.317-0.307 6e-3 -5e-3 0.328-0.328h6e-3l0.318-0.334h6e-3l0.305-0.338 6e-3 -6e-3 0.299-0.339h6e-3l0.289-0.355 0.282-0.351v-5e-3l0.271-0.36 5e-3 -4e-3 0.254-0.357 6e-3 -7e-3 0.247-0.363 7e-3 -6e-3 0.234-0.374 8e-3 -6e-3 0.224-0.374 7e-3 -7e-3 0.212-0.374 6e-3 -0.012 0.207-0.385 0.197-0.393 5e-3 -6e-3 0.184-0.392v-6e-3l0.179-0.402v-6e-3l0.162-0.398 6e-3 -0.011 0.15-0.404v-6e-3l0.143-0.404v-0.012l0.127-0.409 6e-3 -6e-3 0.121-0.415v-0.011l0.109-0.42v-6e-3l0.099-0.427 5e-3 -5e-3 0.087-0.427v-6e-3l0.082-0.438v-5e-3l0.069-0.439v-6e-3l0.057-0.444v-5e-3l0.046-0.45 5e-3 -5e-3 0.035-0.45v-6e-3l0.023-0.456v-5e-3l0.018-0.456v-0.011l5e-3 -0.461v-6e-3l-0.011-0.754v-0.013l-0.047-0.743v-0.011l-0.074-0.733v-0.011l-0.104-0.72-6e-3 -0.012-0.133-0.71v-0.011l-0.161-0.697-7e-3 -0.012-0.189-0.686-6e-3 -0.011-0.224-0.669v-0.011l-0.254-0.664-6e-3 -0.011-0.282-0.646v-0.011l-0.318-0.64-5e-3 -0.011-0.341-0.623-5e-3 -0.012-0.368-0.611-0.012-0.011-0.398-0.599-6e-3 -0.011-0.433-0.588-5e-3 -6e-3 -0.468-0.578-5e-3 -5e-3 -0.386-0.449-5e-3 -7e-3 -0.399-0.432-6e-3 -6e-3 -0.415-0.414-6e-3 -0.012-0.432-0.399-5e-3 -5e-3 -0.442-0.391-7e-3 -6e-3 -0.392-0.322 0.219-0.059h4e-3l0.404-0.086 0.399-0.076h5e-3l0.386-0.062h0.011l0.376-0.047 0.386-0.035h0.011l0.369-0.022h0.012l0.369-5e-3h0.121l0.116 5e-3h5e-3l0.122 6e-3h4e-3l0.133 0.01 0.15 0.013v-7e-3l0.271 0.029 0.132 0.012h0.013l0.132 0.018h6e-3l0.15 0.023 0.166 0.022 7e-3 6e-3 0.31 0.047 0.167 0.034 0.179 0.029 0.208 0.04 0.046 6e-3h0.174l0.097-0.018 0.19-0.08 0.081-0.046 0.133-0.128 0.051-0.057 0.086-0.15 0.03-0.063 0.04-0.167 0.011-0.081-5e-3 -0.184-0.024-0.081-0.068-0.184-0.052-0.087-0.115-0.114-0.018-0.024-3.481-3.032-0.128-0.058-0.143-0.023-0.047-0.011-0.05-6e-3h-7e-3l-0.046-6e-3 -0.047-6e-3 -0.011-5e-3 -0.057-6e-3h-0.646l-0.311 6e-3h-0.012l-0.317 0.011h-0.011l-0.33 0.029h-5e-3l-0.328 0.035h-0.011l-0.336 0.046h-6e-3l-0.339 0.056h-7e-3l-0.345 0.071h-6e-3l-0.352 0.075-0.356 0.085h-6e-3l-0.358 0.099h-6e-3l-0.358 0.109h-5e-3l-0.368 0.116-0.369 0.127h-6e-3l-0.375 0.133-6e-3 5e-3 -0.381 0.144h-5e-3l-0.38 0.155h-6e-3l-0.139 0.058v6e-3l-0.276 0.116h-6e-3l-0.139 0.062-0.137 0.064-0.145 0.063-0.028 0.018-0.104-0.046h-7e-3l-0.362-0.138h-6e-3l-0.369-0.139h-6e-3l-0.375-0.133-0.38-0.127h-6e-3l-0.385-0.12-0.393-0.115-6e-3 -6e-3 -0.408-0.11-0.029-6e-3 -0.56-0.092h-6e-3l-0.542-0.08h-0.011l-0.542-0.064h-5e-3l-0.536-0.046-7e-3 -6e-3 -0.541-0.035h-6e-3l-0.543-0.028h-5e-3l-0.536-0.011h-6e-3l-0.536-6e-3h-6e-3l-0.536 0.01h-5e-3l-0.536 0.019h-6e-3l-0.531 0.027h-5e-3l-0.536 0.041v6e-3l-0.53 0.046h-5e-3l-0.532 0.064h-5e-3l-0.531 0.069h-5e-3l-0.547 0.08-0.03 6e-3 -0.772 0.207h-0.012l-0.75 0.226-5e-3 5e-3 -0.731 0.249-6e-3 5e-3 -0.71 0.276-0.011 6e-3 -0.692 0.3-0.013 5e-3 -0.668 0.329h-0.012l-0.65 0.359-0.012 5e-3 -0.632 0.375-0.014 4e-3 -0.615 0.405-0.012 6e-3 -0.594 0.432-0.012 6e-3 -0.576 0.455-6e-3 6e-3 -0.558 0.479-0.013 0.011-0.541 0.501-6e-3 0.011-0.519 0.53-6e-3 7e-3 -0.501 0.559zm12.838 0.8 4.362 1.632h0.185l0.594-0.208h5e-3l0.473-0.19h6e-3l0.473-0.207h0.011l0.467-0.219 6e-3 -5e-3 0.467-0.243h6e-3l0.461-0.26h5e-3l0.455-0.27 6e-3 -7e-3 0.104-0.069 0.017 0.012 0.346 0.231 6e-3 6e-3 0.336 0.235 0.011 7e-3 0.333 0.254 0.324 0.259 0.012 6e-3 0.316 0.277 0.328 0.299 0.307 0.299 5e-3 6e-3 0.438 0.461 0.403 0.462 7e-3 0.01 0.373 0.479 6e-3 0.012 0.352 0.49 0.334 0.536v-6e-3l0.306 0.53h-5e-3l0.294 0.566 0.247 0.558 5e-3 0.012 0.11 0.277 6e-3 6e-3 0.104 0.288v5e-3l0.098 0.295 5e-3 6e-3 0.093 0.287v6e-3l0.086 0.301 0.075 0.293 0.074 0.311 0.058 0.295 6e-3 5e-3 0.053 0.299v7e-3l0.052 0.305 0.04 0.306v5e-3l0.029 0.306 0.028 0.311v5e-3l0.017 0.313v5e-3l0.012 0.311v6e-3l6e-3 0.317v6e-3l-6e-3 0.311v6e-3l-0.012 0.305v6e-3l-0.017 0.306v5e-3l-0.028 0.311-0.029 0.3v0.011l-0.04 0.301v6e-3l-0.047 0.293-5e-3 6e-3 -0.053 0.3-6e-3 5e-3 -0.058 0.289-0.074 0.305-0.075 0.289v0.011l-0.086 0.282v7e-3l-0.093 0.293-0.098 0.282-5e-3 6e-3 -0.104 0.277-0.116 0.283v6e-3l-0.248 0.564-4e-3 0.013-0.283 0.552-0.301 0.53v-5e-3l-0.345 0.542-0.358 0.5-6e-3 0.013-0.385 0.496-0.427 0.489-5e-3 0.011-0.45 0.473-6e-3 0.012-0.449 0.438-0.012 6e-3 -0.461 0.41-0.012 0.011-0.478 0.38-0.012 6e-3 -0.502 0.363-0.511 0.329-0.537 0.311-0.011 7e-3 -0.554 0.29-0.559 0.254-0.012 6e-3 -0.271 0.106h-6e-3l-0.288 0.104-5e-3 6e-3 -0.283 0.098h-0.012l-0.288 0.091h-5e-3l-0.289 0.087h-5e-3l-0.3 0.074-0.3 0.076h-6e-3l-0.299 0.063h-7e-3l-0.299 0.052-6e-3 6e-3 -0.299 0.046h-6e-3l-0.306 0.041h-0.011l-0.306 0.033-0.311 0.024h-5e-3l-0.313 0.016h-5e-3l-0.317 0.012h-6e-3l-0.311 6e-3h-0.011l-0.3-6e-3h-5e-3l-0.307-0.012h-5e-3l-0.3-0.016h-5e-3l-0.306-0.03v6e-3l-0.3-0.033h-5e-3l-0.295-0.041h-0.012l-0.293-0.052h-6e-3l-0.287-0.058h-0.012l-0.289-0.062h-6e-3l-0.295-0.071-5e-3 -5e-3 -0.293-0.074h-6e-3l-0.288-0.088-6e-3 -4e-3 -0.288-0.093h-6e-3l-0.287-0.104h-7e-3l-0.288-0.11-5e-3 -6e-3 -0.284-0.105-0.012-6e-3 -0.564-0.26-0.571-0.297v6e-3l-0.536-0.306-0.53-0.34-0.012-6e-3 -0.507-0.358-0.012-5e-3 -0.495-0.375-5e-3 -0.011-0.479-0.404-6e-3 -5e-3 -0.461-0.433-0.011-5e-3 -0.428-0.438-4e-3 -0.011-0.404-0.456-0.012-0.011-0.375-0.468-5e-3 -0.011-0.353-0.484-5e-3 -0.013-0.329-0.517-0.3-0.52-0.276-0.553-6e-3 -0.012-0.248-0.57-5e-3 -0.012-0.11-0.282h-6e-3l-0.103-0.294v-6e-3l-0.196-0.588v-5e-3l-0.086-0.3v-6e-3l-0.076-0.294-0.069-0.305-6e-3 -6e-3 -0.057-0.299-0.057-0.312-0.047-0.306-5e-3 -6e-3 -0.042-0.305v-6e-3l-0.027-0.306-0.03-0.316v-6e-3l-0.016-0.312v-6e-3l-0.013-0.311v-5e-3l-6e-3 -0.317v-6e-3l6e-3 -0.317v-6e-3l0.013-0.311v-5e-3l0.016-0.313v-5e-3l0.03-0.311 0.027-0.306v-5e-3l0.042-0.306h5e-3l0.047-0.305v-7e-3l0.051-0.299v-5e-3l0.063-0.295 6e-3 -0.012 0.069-0.299 0.076-0.293v-7e-3l0.086-0.294v-6e-3l0.092-0.287 6e-3 -6e-3 0.098-0.295v-5e-3l0.103-0.288 6e-3 -6e-3 0.11-0.282 5e-3 -0.012 0.248-0.553v-0.018l0.282-0.548 0.3-0.53v6e-3l0.334-0.53 0.353-0.496 0.012-0.012 0.373-0.479 7e-3 -0.01 0.404-0.462 0.011-0.01 0.432-0.451 6e-3 -6e-3 0.455-0.444 0.455-0.397 0.49-0.387 0.012-0.011 0.495-0.351 0.012-7e-3 0.52-0.334 0.01-6e-3 0.531-0.311 0.565-0.294 0.012-5e-3 0.57-0.26 0.012-5e-3 0.282-0.116v-6e-3l0.288-0.108h0.012l0.287-0.105h6e-3l0.289-0.098h6e-3l0.294-0.085 5e-3 -7e-3 0.294-0.081h6e-3l0.293-0.074h0.012l0.295-0.064h6e-3l0.3-0.058 5e-3 -6e-3 0.294-0.045h6e-3l0.299-0.048h6e-3l0.307-0.034 0.31-0.022h6e-3l0.3-0.022h0.011l0.306-0.013h6e-3l0.305-5e-3h0.011l0.334 5e-3h0.046l-0.202 0.057h-0.012l-0.298 0.07h-6e-3l-0.293 0.057h-0.019l-0.294 0.041v-5e-3l-0.467 0.04-0.178 0.087-0.179 0.195-0.028 0.04-0.081 0.126-0.024 0.054-0.045 0.143-0.017 0.052-0.018 0.15v0.058l0.018 0.138 6e-3 0.047 0.034 0.12 0.012 0.04 0.051 0.11 0.012 0.023 0.115 0.208zm-24.545 5.452h-12.215l-5.273-12.385h-6.325l16.762 35.838h2.221l16.33-35.838h-6.531zm-10.054 4.601h7.794l-3.741 9.345zm109.05-4.601h-12.209l-5.275-12.385h-6.323l16.763 35.838h2.219l16.323-35.838h-6.523zm-10.047 4.601h7.792l-3.74 9.345zm-41.965 17.833h5.723v-21.862l0.054-0.922 0.143-0.836 0.237-0.79 0.312-0.714 0.397-0.669 0.461-0.61 0.524-0.549 0.606-0.506 0.645-0.444 0.691-0.387 0.75-0.328 0.784-0.272 0.795-0.212h0.017l0.825-0.15 0.848-0.093 0.864-0.029h0.018l0.87 0.029 0.847 0.093 0.826 0.143 0.016 7e-3 0.796 0.207 0.789 0.27 0.739 0.329 0.703 0.386 0.644 0.445 0.594 0.5 0.531 0.549 0.467 0.611 0.386 0.662 0.317 0.721 0.236 0.791 0.145 0.84 0.052 0.928v21.862h5.989v-21.671l-0.076-1.534-5e-3 -0.029-0.226-1.458-6e-3 -0.029-0.369-1.366-5e-3 -0.028-0.501-1.275-0.011-0.028-0.629-1.183-0.012-0.027-0.749-1.09-0.016-0.024-0.854-0.991-0.023-0.018-0.952-0.892-0.023-0.018-1.049-0.79-0.023-0.017-1.135-0.686-0.023-0.011-1.211-0.583-0.024-0.011-1.278-0.479-0.024-0.011-1.338-0.374-0.022-5e-3 -1.395-0.267-0.023-5e-3 -1.44-0.162h-0.025l-1.48-0.057h-0.018l-1.482 0.057h-0.022l-1.441 0.173-0.024 6e-3 -1.394 0.282-0.024 6e-3 -1.343 0.398-0.024 7e-3 -1.277 0.506-0.025 5e-3 -1.209 0.618-0.024 0.012-1.135 0.719-0.023 0.018-1.049 0.824-0.018 0.018-0.957 0.927-0.017 0.024-0.854 1.025-0.016 0.023-0.75 1.13-0.011 0.029-0.629 1.229-0.012 0.022-0.495 1.32-0.011 0.029-0.364 1.412-5e-3 0.024-0.224 1.504-6e-3 0.023-0.076 1.579v21.17zm42.016-53.444-0.691 0.023-0.018 6e-3 -0.652 0.075-0.023 6e-3 -0.616 0.132-0.018 7e-3 -0.582 0.183-0.016 6e-3 -0.536 0.242-0.024 0.012-0.502 0.294-0.022 0.011-0.456 0.346-0.023 0.017-0.415 0.398-0.017 0.023-0.369 0.443-0.018 0.019-0.316 0.489-0.012 0.023-0.272 0.531-0.01 0.022-0.219 0.577-6e-3 0.023-0.167 0.617-6e-3 0.017-0.122 0.658v0.016l-0.075 0.698v0.017l-0.027 0.738v0.017l0.027 0.739v0.011l0.075 0.697v0.018l0.128 0.656 6e-3 0.017 0.167 0.619 0.012 0.022 0.223 0.576 7e-3 0.018 0.276 0.536 0.012 0.022 0.328 0.49 0.012 0.018 0.38 0.456 0.017 0.016 0.421 0.399 0.018 0.016 0.467 0.353 0.017 0.012 0.508 0.293 0.022 0.011 0.543 0.243 0.022 6e-3 0.582 0.189 0.022 6e-3 0.618 0.127 0.023 6e-3 0.656 0.08h0.018l0.691 0.029h0.013l0.42-0.011h0.013l0.431-0.023h6e-3l0.455-0.046h6e-3l0.467-0.058h7e-3l0.483-0.075h6e-3l0.496-0.092h6e-3l0.518-0.104h5e-3l0.704-0.161 0.173-0.04v-2.56l-0.289 0.099-0.886 0.287-6e-3 7e-3 -0.543 0.16-6e-3 6e-3 -0.5 0.138h-6e-3l-0.467 0.115h-0.012l-0.432 0.088-0.386 0.062h-0.013l-0.344 0.035-0.313 0.011h-0.016l-0.433-0.017-0.391-0.052-0.364-0.092-0.34-0.126-0.323-0.162-0.281-0.189-0.266-0.232-0.248-0.27-0.213-0.301-0.196-0.333-0.161-0.381-0.139-0.403-0.103-0.433-6e-3 -0.018-0.075-0.46v-0.018l-0.046-0.496-0.018-0.553v-0.011l0.018-0.531 0.05-0.485 0.082-0.448 0.11-0.428 0.15-0.396 0.178-0.371 0.195-0.316 0.243-0.311 0.253-0.265 0.294-0.248 0.294-0.19 0.334-0.167 0.347-0.121 0.386-0.092 0.392-0.058v5e-3l0.438-0.024h0.017l0.393 0.019 0.397 0.047 0.398 0.068 0.421 0.11h0.01l0.416 0.138h0.012l0.432 0.167 0.013 7e-3 0.431 0.189v5e-3l0.807 0.41 0.323 0.161v-2.462l-0.127-0.062-0.582-0.276-0.012-7e-3 -0.466-0.185-0.012-5e-3 -0.479-0.161h-0.011l-0.49-0.133-0.011-5e-3 -0.497-0.099-0.011-5e-3 -0.513-0.07-0.012-6e-3 -0.512-0.046h-0.019l-0.523-0.011zm-28.931 10.912h-4.208v2.157h11.01v-2.157h-4.213v-10.618h-2.589zm13.115 2.157h2.581v-12.774h-2.581zm-47.44-12.551v12.551h3.683l0.53-0.013h0.012l0.495-0.035h0.012l0.455-0.056 0.01-7e-3 0.422-0.081h0.018l0.387-0.109 0.022-7e-3 0.345-0.13 0.024-0.012 0.318-0.157 0.021-0.017 0.277-0.186 0.024-0.016 0.242-0.219 0.023-0.023 0.213-0.247 0.018-0.03 0.178-0.276 0.011-0.029 0.145-0.312 6e-3 -0.022 0.115-0.335 6e-3 -0.023 0.074-0.368 6e-3 -0.018 0.046-0.392v-0.017l0.017-0.421v-0.017l-0.022-0.479v-0.016l-0.064-0.462-5e-3 -0.024-0.105-0.432-6e-3 -0.023-0.148-0.41-0.012-0.022-0.19-0.381-0.018-0.023-0.236-0.357-0.012-0.017-0.282-0.329-0.018-0.023-0.317-0.294-0.017-0.017-0.357-0.266-0.018-0.011-0.392-0.231-0.017-0.011-0.421-0.196-0.017-5e-3 -0.45-0.162-0.023-6e-3 -0.479-0.121-0.017-5e-3 -0.512-0.087h-0.012l-0.543-0.052-0.015-5e-3 -0.567-0.012h-0.298v-4.721h-2.565zm2.565 6.67h0.23l0.346 7e-3 0.301 0.027h0.01l0.277 0.046 0.259 0.07 0.248 0.08 0.225 0.11 0.184 0.109 0.173 0.127 0.162 0.15 0.126 0.162 0.109 0.167 0.098 0.196 0.07 0.202 0.058 0.229 0.028 0.232 0.012 0.271v0.016l-0.012 0.22-0.023 0.185-0.04 0.172-0.047 0.144-0.068 0.139-0.076 0.104-0.091 0.097-0.099 0.087-0.115 0.07-0.168 0.08-0.177 0.063-0.237 0.058-0.236 0.04-0.283 0.035-0.311 0.023h-0.012l-0.334 6e-3h-0.587zm-45.751-7.188-0.692 0.023-0.018 6e-3 -0.651 0.075-0.023 6e-3 -0.612 0.132-0.022 7e-3 -0.577 0.183-0.024 6e-3 -0.535 0.242-0.023 0.012-0.501 0.294-0.018 0.011-0.461 0.346-0.016 0.017-0.421 0.398-0.019 0.023-0.368 0.443-0.013 0.019-0.322 0.489-0.011 0.023-0.27 0.531-6e-3 0.022-0.225 0.577-6e-3 0.023-0.167 0.617-6e-3 0.017-0.12 0.658v0.016l-0.077 0.698v0.017l-0.022 0.738v0.017l0.022 0.739v0.011l0.077 0.697 5e-3 0.018 0.121 0.656 5e-3 0.017 0.172 0.619 7e-3 0.022 0.226 0.576 0.011 0.018 0.271 0.536 0.011 0.022 0.329 0.49 0.016 0.018 0.375 0.456 0.018 0.016 0.421 0.399 0.022 0.016 0.461 0.353 0.024 0.012 0.502 0.293 0.022 0.011 0.542 0.243 0.024 6e-3 0.582 0.189 0.022 6e-3 0.624 0.127 0.016 6e-3 0.658 0.08h0.021l0.693 0.029h0.012l0.42-0.011h6e-3l0.433-0.023h0.011l0.449-0.046h6e-3l0.467-0.058h5e-3l0.486-0.075h6e-3l0.501-0.092h5e-3l0.514-0.104h5e-3l0.71-0.161 0.172-0.04v-2.56l-0.294 0.099-0.888 0.287-6e-3 7e-3 -0.535 0.16-6e-3 6e-3 -0.508 0.138h-5e-3l-0.467 0.115h-6e-3l-0.438 0.088-0.386 0.062h-0.012l-0.34 0.035-0.317 0.011h-0.017l-0.432-0.017-0.386-0.052-0.363-0.092-0.346-0.126-0.323-0.162-0.283-0.189-0.259-0.232-0.248-0.27-0.219-0.301-0.19-0.333-0.168-0.381-0.138-0.403-0.104-0.433-6e-3 -0.018-0.074-0.46v-0.018l-0.047-0.496-0.017-0.553v-0.011l0.017-0.531 0.053-0.485 0.08-0.448 0.115-0.428 0.145-0.396 0.178-0.371 0.203-0.316 0.236-0.311 0.259-0.265 0.294-0.248 0.288-0.19 0.341-0.167 0.34-0.121 0.39-0.092 0.388-0.058v5e-3l0.443-0.024h0.018l0.391 0.019 0.398 0.047 0.391 0.068 0.422 0.11h0.012l0.42 0.138h0.012l0.426 0.167 0.012 7e-3 0.439 0.189v5e-3l0.8 0.41 0.323 0.161v-2.462l-0.127-0.062-0.576-0.276-0.018-7e-3 -0.467-0.185-0.012-5e-3 -0.478-0.161h-0.012l-0.484-0.133-0.016-5e-3 -0.496-0.099-0.012-5e-3 -0.507-0.07-0.011-6e-3 -0.519-0.046h-0.011l-0.531-0.011zm27.247 0.518v12.551h4.052l0.427-0.013h0.012l0.403-0.035 0.018-6e-3 0.38-0.057 0.016-5e-3 0.358-0.088 0.023-5e-3 0.334-0.11 0.018-5e-3 0.312-0.138 0.023-0.012 0.282-0.167 0.023-0.012 0.259-0.19 0.024-0.017 0.235-0.224 0.017-0.019 0.203-0.242 0.017-0.023 0.167-0.265 0.018-0.023 0.138-0.288 6e-3 -0.023 0.109-0.311 0.012-0.023 0.075-0.328v-0.019l0.045-0.351 6e-3 -0.017 0.011-0.369v-0.023l-0.033-0.605-6e-3 -0.029-0.122-0.564-0.011-0.036-0.203-0.518-0.017-0.035-0.282-0.478-0.017-0.029-0.364-0.426-0.023-0.023-0.438-0.381-0.028-0.018-0.507-0.328-0.029-0.018-0.086-0.04 3.902-5.488 0.253-0.351h-3.18l-0.071 0.099-3.308 4.922h-0.883v-5.021h-2.57zm2.57 6.964h0.088l0.714 0.041 0.559 0.098 0.479 0.166 0.357 0.22 0.271 0.271 0.19 0.334 0.115 0.397 0.046 0.525-0.028 0.323-0.092 0.271-0.144 0.219-0.209 0.184-0.287 0.156-0.393 0.121-0.467 0.075-0.593 0.029h-0.606zm31.144-1.107h2.641l-1.267 3.171zm-42.429-5.943-1.649 4.115h-3.886l-1.752-4.115-0.057-0.138h-2.693l0.145 0.316 5.771 12.332 0.062 0.131h1.056l0.063-0.131 5.614-12.332 0.144-0.316h-2.761zm-4.929 5.943h2.646l-1.268 3.165zm111.38-5.943-1.654 4.115h-3.88l-1.758-4.115-0.058-0.138h-2.691l0.149 0.316 5.77 12.332 0.059 0.131h1.06l0.058-0.131 5.62-12.332 0.142-0.316h-2.759zm-4.929 5.943h2.641l-1.268 3.165zm-54.143-5.868-1.654 4.117h-3.884l-1.754-4.122-0.057-0.134h-2.692l0.144 0.319 5.771 12.328 0.062 0.127h1.061l0.057-0.127 5.615-12.335 0.144-0.312h-2.761z" fill="#1d1d1b" fill-rule="evenodd"/>
  </g>
  <g transform="matrix(1.3333 0 0 -1.3333 288.46 586.55)" fill="#1d1d1b">
   <path d="m129.66 155.16c7.231 0.023 14.021 3.336 18.268 8.864l1.282 1.661 7.988-6.197-1.298-1.659c-6.28-8.001-15.803-12.603-26.128-12.628h-0.112c-18.12 0-32.863 14.228-32.863 31.717 0 4.841 1.181 9.704 3.416 14.066l27.398 57.886h4.32l27.877-59.702h-11.394l-0.623 0.818c-4.319 5.494-10.896 8.673-18.032 8.706-12.604 0-22.778-9.768-22.778-21.774 0-11.997 10.174-21.758 22.679-21.758m-67.295-23.708h131.18v131.16h-131.18z"/>
   <path d="m141.57 205.56-1.952 4.641h-19.646l-2.097-4.629c3.771 1.438 7.799 2.19 11.818 2.19 4.142 0 8.106-0.74 11.877-2.202"/>
   <g fill-rule="evenodd">
    <path d="m129.73 232.93-6.657-15.07h13.382z"/>
    <path d="m129.8 206.55c5.077 0 9.851-1.224 14.077-3.331l-3.447 8.198h-21.234l-3.726-8.222c4.278 2.131 9.121 3.355 14.228 3.355z"/>
    <path d="m129.66 153.94h0.109c7.48 0.025 14.639 3.506 19.121 9.339l0.537 0.695 6.064-4.704-0.546-0.7c-6.043-7.696-15.219-12.136-25.176-12.161h-0.109c-17.454 0-31.649 13.685-31.649 30.503 0 4.649 1.132 9.318 3.282 13.513l27.086 57.225h2.779l26.743-57.274h-8.886l-0.259 0.34c-4.559 5.8-11.477 9.149-18.992 9.184h-0.104c-13.173 0-23.892-10.314-23.892-22.988 0-12.66 10.719-22.972 23.892-22.972m0.354 109.88h-68.863v-133.59h133.61v133.59z"/>
   </g>
  </g>
 </g>
</svg>
