<svg width="480" height="240" version="1.1" viewBox="0 0 459.62 202.05" xmlns="http://www.w3.org/2000/svg">
 <path d="m105.12 164.16h3.8053c7.9987 0 12.892-2.9507 12.892-10.172 0-7.2227-4.8934-10.173-12.892-10.173h-3.8053zm-10.095-20.191h-6.1347v-7.6107h21.277c10.872 0 21.744 4.3493 21.744 17.707 0 13.512-10.484 17.705-19.725 17.705h-7.0667v13.045h7.144v7.6107h-23.373v-7.6107h6.1347z" fill="#f7931d"/>
 <g fill="#565757">
  <path d="m165.3 187.77c-3.2613 3.1053-7.9973 5.4347-12.58 5.4347-6.8333 0-11.183-2.6387-11.183-11.725v-17.551h-4.9706v-7.376h13.901v21.975c0 5.36 0.85467 7.2227 5.3587 7.2227 1.5533 0 9.0853-0.77733 9.0853-10.017v-11.804h-5.5133v-7.376h14.444v28.499h5.1253v7.3773h-13.668z"/>
  <path d="m197.84 161.44h0.46666c0.0775-2.64 2.484-5.6693 6.6-5.6693 3.2614 0 6.6787 2.252 6.6787 6.4453 0 3.8827-3.1067 6.368-6.6787 6.368-3.416 0-6.1347-2.252-6.6-5.1253h-0.46666v21.588h5.048v7.3773h-18.328v-7.3773h4.3493v-21.123h-4.3493v-7.376h13.28z"/>
  <path d="m243.5 171.07c0-4.0373-4.5813-7.4547-10.019-7.844-4.736 0-9.0853 3.0293-10.095 7.844zm-20.113 5.9787c0.54398 6.0573 5.3586 8.6987 10.872 8.6987 5.592 0 7.8427-3.4173 8.232-3.8827h8.9293c-0.69732 3.5707-5.5907 11.337-17.939 11.337-11.027 0-19.336-7.4547-19.336-18.715 0-11.261 8.3094-18.716 19.336-18.716 12.348 0 18.949 9.008 18.949 21.277z"/>
 </g>
 <path d="m285.44 178.6 7.5333-4.4267 3.8054 7.5333c6.1347-3.34 10.019-8.852 10.019-17.629 0-10.792-8.232-19.645-19.104-19.645-12.348 0-19.648 8.8533-19.648 19.645 0 12.66 8.3107 20.269 18.793 20.269 0.54266 0 1.0094 0 1.4747-0.0773zm7.3773 14.523c-0.85334 0.15466-1.7853 0.30931-2.7173 0.388-0.85334 0.0773-1.7867 0.15465-2.7187 0.15465-20.501 0-29.431-17.783-29.431-29.588 0-15.84 12.503-28.964 29.431-28.964 16.929 0 29.511 13.124 29.511 28.964 0 11.805-6.4453 21.435-15.687 26.171l1.476 2.9507h7.92v8.8533h-13.28z" fill="#f7931d"/>
 <g fill="#565757">
  <path d="m350.82 187.77c-3.2613 3.1053-7.9987 5.4347-12.58 5.4347-6.8333 0-11.183-2.6387-11.183-11.725v-17.551h-4.9706v-7.376h13.901v21.975c0 5.36 0.85466 7.2227 5.3586 7.2227 1.5534 0 9.0853-0.77733 9.0853-10.017v-11.804h-5.5133v-7.376h14.444v28.499h5.1253v7.3773h-13.668z"/>
  <path d="m398.43 174.25c0-5.7467-2.8733-11.028-9.7853-11.028-6.8346 0-10.251 5.2813-10.251 11.028 0 6.0573 3.416 11.493 10.251 11.493 6.912 0 9.7853-5.436 9.7853-11.493m8.076 10.795h5.6694v7.3773h-12.969v-5.2027h-0.15459c-2.6413 3.4947-7.068 5.9787-11.805 5.9787-9.4734 0-17.783-7.4547-17.783-18.715 0-11.261 8.3093-18.715 17.783-18.715 4.504 0 8.776 2.252 11.727 6.1333h0.2332v-5.356h12.969v7.376h-5.6694z"/>
  <path d="m446.57 174.25c0-5.7467-3.4173-11.028-10.328-11.028-6.8333 0-10.251 5.2813-10.251 11.028 0 6.0573 3.4173 11.493 10.251 11.493 6.9107 0 10.328-5.436 10.328-11.493m0 13.513c-3.572 3.6493-7.3773 5.4347-12.503 5.4347-8.6973 0-17.007-7.4547-17.007-18.715 0-11.261 8.3093-18.715 17.007-18.715 4.66 0 8.776 2.0187 11.339 4.892v-16.929h-5.2027v-7.3773h14.132v48.691h5.2813v7.3773h-13.047z"/>
 </g>
 <path d="m59.272 186.64c-0.16932-5.9293 4.7894-11.811 11.037-13.061 6.2094-1.244 11.231 2.5813 11.256 8.472 0.0265 5.8067-4.8426 11.5-10.905 12.785-6.1053 1.2907-11.219-2.3413-11.388-8.196" fill="#f7931d"/>
 <path d="m25.179 178.52c-0.47868-7.2493 5.4253-14.416 13.14-15.891 7.6494-1.4613 14.013 3.2693 14.267 10.461 0.25323 7.0787-5.532 13.964-12.96 15.484-7.492 1.5373-13.977-2.9147-14.447-10.055" fill="#f7931d"/>
 <g fill="#565757">
  <path d="m68.172 153.45c2.528-3.0253 6.6813-3.8027 9.2613-1.756 2.5547 2.0333 2.5787 6.08 0.0748 9.0467-2.496 2.9613-6.5907 3.7613-9.172 1.7827-2.5986-1.9947-2.684-6.0627-0.16403-9.0733"/>
  <path d="m43.626 144.78c3.4907-4.2427 9.38-5.3053 13.1-2.3853 3.676 2.888 3.8267 8.568 0.38136 12.708-3.4387 4.1267-9.1987 5.2267-12.924 2.4427-3.764-2.812-4.04-8.532-0.55733-12.765"/>
  <path d="m20.602 121.14c4.628-5.756 12.615-7.076 17.736-2.9773 5.0547 4.036 5.3893 11.793 0.84132 17.359-4.5267 5.5387-12.281 6.9333-17.415 3.084-5.2066-3.908-5.764-11.739-1.1626-17.465"/>
  <path d="m3.7006 83.931c5.6347-7.176 15.501-8.5987 21.911-3.2253 6.2866 5.276 6.8067 15.092 1.2933 21.977-5.48 6.8453-15.011 8.3907-21.412 3.4-6.5187-5.0787-7.3853-15.015-1.792-22.152"/>
 </g>
 <g fill="#f7931d">
  <path d="m74.503 131.43c2.784-0.46533 5.08 1.464 5.128 4.292 0.048 2.8173-2.1373 5.4707-4.9013 5.9507-2.7626 0.47733-5.072-1.4147-5.1494-4.2387-0.0839-2.84 2.1267-5.5373 4.9227-6.004"/>
  <path d="m63.993 115.94c3.9133-0.62533 7.1533 2.1427 7.2573 6.1467 0.10809 3.968-2.924 7.6827-6.7813 8.32-3.8707 0.64533-7.1493-2.0467-7.308-6.0347-0.16403-4.0227 2.9026-7.812 6.832-8.432"/>
  <path d="m54.68 87.229c5.5334-0.788 10.145 3.3013 10.321 9.072 0.17877 5.708-4.0467 10.953-9.468 11.785-5.4533 0.836-10.135-3.0933-10.423-8.8427-0.29745-5.8107 3.9973-11.219 9.5693-12.015"/>
  <path d="m57.848 46.363c7.3747-0.896 13.469 4.932 13.663 12.893 0.18784 7.8493-5.44 14.909-12.612 15.888-7.2307 0.99067-13.444-4.544-13.832-12.473-0.40267-8.0507 5.3387-15.401 12.781-16.308"/>
  <path d="m75.108 0.06719c8.82-0.86134 15.948 6.6613 16 16.637 0.0548 9.7973-6.764 18.413-15.292 19.415-8.6106 1.0053-15.919-6.092-16.26-16.021-0.34281-10.112 6.6507-19.159 15.552-20.031"/>
 </g>
</svg>
