<svg width="360" height="240" clip-rule="evenodd" fill-rule="evenodd" image-rendering="optimizeQuality" shape-rendering="geometricPrecision" text-rendering="geometricPrecision" version="1.1" viewBox="0 0 7874 4183" xml:space="preserve" xmlns="http://www.w3.org/2000/svg">
 <defs><style type="text/css">
   <![CDATA[
    .fil0 {fill:#29284E}
    .fil1 {fill:#29284E;fill-rule:nonzero}
   ]]>
  </style></defs>
 
  
  
   <polygon class="fil0" points="-0 4126.2 7874 4126.2 7874 4183 -0 4183"/>
   <polygon class="fil0" points="-0 3109.6 7874 3109.6 7874 3166.4 -0 3166.4"/>
   <path class="fil0" d="m7861.2 1055.9c8.37-33.52 8.37-62.82 8.37-125.69 0-268.17-129.89-930.22-875.74-930.22-569.86 0-1005.6 423.22-1005.6 1106.2 0 582.43 406.44 1006.4 1030.8 1006.4 423.22-0.02 649.48-105.45 720.71-138.97l-54.46-163.44c-129.89 58.68-297.51 125.71-645.29 125.71-477.68 0-850.6-293.29-850.6-879.92l1671.9-0.02zm-1659.3-163.42c41.91-305.85 255.6-724.87 766.8-724.87 603.39-0.02 691.37 515.39 687.18 724.89l-1454-0.02z"/>
   <path class="fil0" d="m3173 2061.6h205.32v-1227.7c0-62.87 16.75-134.1 33.52-180.19 92.18-255.62 360.33-477.68 683-477.68 460.91 0 632.7 347.78 632.7 741.66v1143.9h205.31v-1143.9c0-833.83-599.18-917.63-783.55-917.63-368.74 0-653.66 205.33-775.16 452.54h-8.39l-16.77-402.26h-192.74c12.57 163.41 16.75 322.65 16.75 486.06v1525.2z"/>
   <path class="fil0" d="m1040 2112.5c490.24 0 1076.9-327.51 1076.9-1081.7 0-574.07-406.44-1030.8-1051.7-1030.8-561.48 0-1064.3 406.44-1064.3 1076.9 0 595 435.79 1035.7 1035 1035.7l4.2-0.02zm4.18-168.3c-431.58 0-838.03-318.44-838.03-879.92 0-469.31 289.13-896.69 858.99-896.69 590.79-0.02 846.42 494.43 846.42 875.74 0 578.25-419.02 900.87-863.17 900.87h-4.2z"/>
   <path class="fil1" d="m24.99 3390.4h52.83v309.07c0 36.58 0.73 59.51 2.2 68.54 2.57 20.19 8.68 37.06 18.22 50.6s24.21 24.94 44.02 34.09 39.74 13.78 59.92 13.78c17.37 0 34.12-3.56 50.14-10.81 15.9-7.13 29.35-17.1 40.11-29.93 10.76-12.71 18.59-28.15 23.6-46.2 3.55-13.07 5.38-39.67 5.38-80.06v-309.07h52.83v308.83c0 45.73-4.65 82.67-13.82 110.83-9.17 28.15-27.64 52.74-55.15 73.52-27.64 20.91-61.02 31.36-100.28 31.36-42.56 0-79-9.86-109.33-29.57-30.45-19.72-50.75-45.73-61.02-78.28-6.48-19.95-9.66-55.83-9.66-107.85v-308.83z"/>
   <polygon class="fil1" points="568.37 3902.2 568.37 3390.4 579.74 3390.4 930.1 3781.8 930.1 3390.4 982.92 3390.4 982.92 3902.2 970.94 3902.2 622.67 3514.2 622.67 3902.2"/>
   <polygon class="fil1" points="1167.4 3390.4 1220.2 3390.4 1220.2 3902.2 1167.4 3902.2"/>
   <polygon class="fil1" points="1352.8 3440.3 1352.8 3390.4 1641.2 3390.4 1641.2 3440.3 1523.8 3440.3 1523.8 3902.2 1470.2 3902.2 1470.2 3440.3"/>
   <polygon class="fil1" points="1782.5 3390.4 2084 3390.4 2084 3440.3 1835.3 3440.3 1835.3 3600.7 2081.8 3600.7 2081.8 3650.6 1835.3 3650.6 1835.3 3852.3 2081.8 3852.3 2081.8 3902.2 1782.5 3902.2"/>
   <path class="fil1" d="m2239.5 3902.2v-511.72h109.33c78.75 0 135.98 6.18 171.57 18.41 51.11 17.46 91.1 47.51 119.84 90.51 28.74 42.88 43.17 93.96 43.17 153.35 0 51.31-11.37 96.33-34.24 135.3-22.74 38.96-52.46 67.82-88.78 86.35-36.44 18.53-87.56 27.8-153.23 27.8h-167.65zm50.63-48.46h60.78c72.64 0 122.89-4.39 151.02-13.19 39.5-12.59 70.69-35.04 93.3-67.59 22.63-32.67 33.87-72.46 33.87-119.5 0-49.3-12.23-91.58-36.81-126.5-24.46-35.04-58.7-59.04-102.48-71.98-32.89-9.74-87.07-14.61-162.52-14.61h-37.18v413.36z"/>
   <path class="fil1" d="m3370.8 3390.4h105.05c60.17 0 100.89 2.5 121.92 7.6 30.08 7.24 54.67 21.98 73.74 44.43 19.2 22.33 28.74 50.48 28.74 84.33 0 34.09-9.3 62.13-28 84.33-18.59 22.09-44.27 36.94-76.92 44.67-23.97 5.58-68.6 8.31-134.02 8.31h-37.67v238.04h-52.83v-511.72zm52.83 49.89v173.9l89.27 1.07c36.07 0 62.49-3.2 79.24-9.62 16.76-6.42 29.96-16.63 39.5-30.89 9.54-14.25 14.31-30.29 14.31-47.87 0-17.1-4.77-32.9-14.31-47.15-9.54-14.26-22.26-24.35-37.91-30.41s-41.21-9.03-76.92-9.03h-93.18z"/>
   <path class="fil1" d="m3872.3 3390.4h105.17c58.58 0 98.32 2.37 119.11 7.01 31.43 6.89 56.86 21.74 76.43 44.66 19.69 22.81 29.47 50.96 29.47 84.34 0 27.8-6.73 52.26-20.3 73.29-13.45 21.14-32.77 37.06-57.96 47.87-25.07 10.81-59.8 16.27-104.07 16.51l189.67 238.04h-64.69l-189.67-238.04h-30.33v238.04h-52.83v-511.72zm52.83 49.89v173.9l90.98 0.71c35.34 0 61.39-3.21 78.26-9.74s30.08-16.87 39.62-31.12c9.41-14.25 14.19-30.17 14.19-47.87 0-17.1-4.77-32.78-14.43-46.8-9.54-14.02-22.13-24-37.79-30.05-15.53-6.06-41.46-9.03-77.65-9.03h-93.18z"/>
   <path class="fil1" d="m4630.3 3377.6c79.73 0 146.5 25.89 200.18 77.56 53.69 51.67 80.59 115.34 80.59 190.89 0 74.95-26.78 138.5-80.34 190.65-53.69 52.15-118.98 78.28-196.15 78.28-78.02 0-143.93-26.01-197.61-77.92-53.69-51.91-80.59-114.74-80.59-188.51 0-49.17 12.23-94.67 36.69-136.72 24.46-41.93 57.84-74.83 100.15-98.59 42.19-23.76 87.92-35.63 137.08-35.63zm2.32 49.89c-38.89 0-75.82 9.86-110.79 29.58-34.85 19.72-62.12 46.2-81.81 79.58-19.56 33.5-29.35 70.68-29.35 111.78 0 60.7 21.64 112.01 65.06 153.82 43.41 41.93 95.75 62.84 156.89 62.84 40.97 0 78.75-9.62 113.48-28.87 34.85-19.24 62-45.61 81.44-78.99s29.22-70.44 29.22-111.3c0-40.63-9.78-77.33-29.22-110.11-19.45-32.78-46.96-59.04-82.3-78.75-35.34-19.72-72.89-29.58-112.63-29.58z"/>
   <path class="fil1" d="m5081.2 3390.4h105.04c60.17 0 100.89 2.5 121.92 7.6 30.08 7.24 54.66 21.98 73.74 44.43 19.2 22.33 28.74 50.48 28.74 84.33 0 34.09-9.29 62.13-28 84.33-18.59 22.09-44.27 36.94-76.92 44.67-23.97 5.58-68.61 8.31-134.03 8.31h-37.67v238.04h-52.83v-511.72zm52.83 49.89v173.9l89.27 1.07c36.07 0 62.49-3.2 79.24-9.62 16.76-6.42 29.96-16.63 39.5-30.89 9.54-14.25 14.31-30.29 14.31-47.87 0-17.1-4.77-32.9-14.31-47.15-9.54-14.26-22.26-24.35-37.91-30.41s-41.21-9.03-76.92-9.03h-93.18z"/>
   <polygon class="fil1" points="5580.6 3390.4 5882.2 3390.4 5882.2 3440.3 5633.4 3440.3 5633.4 3600.7 5880 3600.7 5880 3650.6 5633.4 3650.6 5633.4 3852.3 5880 3852.3 5880 3902.2 5580.6 3902.2"/>
   <path class="fil1" d="m6040.6 3390.4h105.17c58.57 0 98.32 2.37 119.11 7.01 31.43 6.89 56.86 21.74 76.43 44.66 19.69 22.81 29.48 50.96 29.48 84.34 0 27.8-6.73 52.26-20.3 73.29-13.45 21.14-32.78 37.06-57.96 47.87-25.07 10.81-59.8 16.27-104.06 16.51l189.67 238.04h-64.69l-189.67-238.04h-30.33v238.04h-52.83v-511.72zm52.83 49.89v173.9l90.98 0.71c35.34 0 61.39-3.21 78.27-9.74 16.87-6.53 30.08-16.87 39.62-31.12 9.42-14.25 14.19-30.17 14.19-47.87 0-17.1-4.77-32.78-14.43-46.8-9.54-14.02-22.14-24-37.79-30.05-15.53-6.06-41.45-9.03-77.65-9.03h-93.18z"/>
   <polygon class="fil1" points="6495.3 3440.3 6495.3 3390.4 6783.6 3390.4 6783.6 3440.3 6666.3 3440.3 6666.3 3902.2 6612.7 3902.2 6612.7 3440.3"/>
   <polygon class="fil1" points="6916.9 3390.4 6969.7 3390.4 6969.7 3902.2 6916.9 3902.2"/>
   <polygon class="fil1" points="7155.2 3390.4 7456.7 3390.4 7456.7 3440.3 7208 3440.3 7208 3600.7 7454.5 3600.7 7454.5 3650.6 7208 3650.6 7208 3852.3 7454.5 3852.3 7454.5 3902.2 7155.2 3902.2"/>
   <path class="fil1" d="m7557.9 3806.4 44.76-26.13c31.55 56.54 67.99 84.81 109.32 84.81 17.73 0 34.37-4.04 49.89-12 15.53-7.96 27.39-18.77 35.46-32.19 8.19-13.42 12.23-27.68 12.23-42.76 0-17.11-5.99-33.85-17.98-50.37-16.51-22.69-46.59-50.13-90.5-82.08-44.02-32.31-71.41-55.59-82.17-69.96-18.71-24.11-28.01-50.25-28.01-78.28 0-22.21 5.5-42.52 16.51-60.81 11.01-18.3 26.54-32.67 46.59-43.24 20.06-10.57 41.7-15.8 65.18-15.8 24.95 0 48.3 5.94 69.94 17.93 21.65 11.88 44.64 33.85 68.85 65.81l-43.05 31.72c-19.93-25.54-36.93-42.41-50.99-50.48-14.06-8.2-29.35-12.24-45.86-12.24-21.4 0-38.89 6.3-52.46 18.77-13.57 12.59-20.43 27.92-20.43 46.33 0 11.05 2.45 21.85 7.22 32.31 4.77 10.45 13.57 21.74 26.29 34.09 6.85 6.41 29.72 23.52 68.36 51.07 45.73 32.78 77.16 61.89 94.16 87.31 17 25.54 25.56 51.19 25.56 76.97 0 37.06-14.55 69.37-43.54 96.69-29.1 27.44-64.44 41.1-106.02 41.1-32.04 0-61.14-8.31-87.19-24.94s-50.14-44.54-72.15-83.63z"/>
  
 
</svg>
