<?xml version="1.0" encoding="UTF-8"?>
<svg width="480" height="240" version="1.1" viewBox="0 0 855.36 299.82" xml:space="preserve" xmlns="http://www.w3.org/2000/svg"><g fill="#00adef"><path d="m629.07 238.5h11.688c2.244 0 3.9907-0.548 5.1747-1.6293 1.2013-1.064 1.7653-2.6907 1.7653-4.884 0-1.2693-0.188-2.3827-0.548-3.172-0.39334-0.804-0.924-1.4213-1.5787-1.8827-0.68266-0.49867-1.3867-0.772-2.2947-0.928-0.85733-0.13467-1.7333-0.24-2.6747-0.24h-11.532zm-7.1653-18.545h19.452c4.492 0 7.8333 0.97467 10.112 2.8947 2.244 1.956 3.3413 4.68 3.3413 8.1107 0 1.9507-0.256 3.564-0.856 4.8467-0.548 1.2333-1.2173 2.2973-1.988 3.0867-0.73867 0.77067-1.5253 1.3187-2.2453 1.676-0.72 0.32933-1.32 0.55067-1.5933 0.65467v0.11866c0.58266 0.0693 1.232 0.27467 1.9707 0.58134 0.70134 0.27333 1.304 0.77066 1.9347 1.4227 0.62 0.70533 1.1333 1.5427 1.4907 2.624 0.41467 1.0627 0.63467 2.3987 0.63467 3.9907 0 2.3853 0.17466 4.544 0.55066 6.5133 0.32667 1.9893 0.908 3.3773 1.68 4.1667h-7.6627c-0.51466-0.87199-0.83999-1.8-0.94133-2.8773-0.10533-1.0627-0.15466-2.092-0.15466-3.0493 0-1.888-0.12-3.5-0.308-4.8547-0.224-1.368-0.65334-2.4867-1.2707-3.3573-0.59733-0.88934-1.44-1.5573-2.5027-1.9547-1.06-0.43066-2.38-0.65066-3.9907-0.65066h-10.488v16.744h-7.1653z"/><path d="m675.46 256.34c1.4587 0 2.6933-0.292 3.7547-0.912 1.0973-0.61466 1.9387-1.3853 2.64-2.4 0.68666-0.97466 1.1827-2.0893 1.492-3.3413 0.344-1.2147 0.47866-2.5027 0.47866-3.784 0-1.2213-0.13466-2.5213-0.47866-3.7733-0.30934-1.2333-0.80534-2.3467-1.492-3.3213-0.70133-0.99733-1.5427-1.7693-2.64-2.3867-1.0613-0.59733-2.296-0.88933-3.7547-0.88933-1.44 0-2.7053 0.292-3.768 0.88933-1.0787 0.61733-1.9013 1.3893-2.6213 2.3867-0.66933 0.97467-1.168 2.088-1.512 3.3213-0.30534 1.252-0.46 2.552-0.46 3.7733 0 1.2813 0.15466 2.5693 0.46 3.784 0.344 1.252 0.84266 2.3667 1.512 3.3413 0.72 1.0147 1.5427 1.7853 2.6213 2.4 1.0627 0.62 2.328 0.912 3.768 0.912m0 5.1387c-2.3627 0-4.4373-0.39333-6.2867-1.18-1.852-0.78933-3.412-1.836-4.6827-3.2427-1.3013-1.3547-2.2587-2.964-2.912-4.864-0.64933-1.9227-0.99066-3.992-0.99066-6.2893 0-2.248 0.34133-4.3187 0.99066-6.2253 0.65334-1.8853 1.6107-3.512 2.912-4.884 1.2707-1.3867 2.8307-2.4493 4.6827-3.2227 1.8493-0.75333 3.924-1.1667 6.2867-1.1667 2.3667 0 4.4747 0.41334 6.3093 1.1667 1.8307 0.77333 3.36 1.836 4.6773 3.2227 1.2533 1.372 2.2293 2.9987 2.8627 4.884 0.70399 1.9067 1.028 3.9773 1.028 6.2253 0 2.2973-0.324 4.3667-1.028 6.2893-0.63334 1.9-1.6093 3.5093-2.8627 4.864-1.3173 1.4067-2.8467 2.4533-4.6773 3.2427-1.8347 0.78667-3.9427 1.18-6.3093 1.18"/><path d="m696.58 231.21h6.136v4.08h0.16934c0.49999-0.71999 1.0307-1.4067 1.6107-2.0067 0.53067-0.56667 1.1853-1.0813 1.9027-1.4907 0.684-0.44534 1.5413-0.75334 2.4347-1.044 0.88933-0.20667 1.9533-0.34667 3.1027-0.34667 1.8333 0 3.476 0.412 4.9867 1.2027 1.5573 0.772 2.6733 2.0227 3.3067 3.6853 1.0787-1.5093 2.38-2.7253 3.788-3.6 1.4747-0.85733 3.2573-1.288 5.4493-1.288 3.0853 0 5.52 0.756 7.2507 2.268 1.732 1.5053 2.604 4.056 2.604 7.64v20.327h-6.4947v-17.191c0-1.1493-0.0333-2.2427-0.0853-3.2213-0.104-0.93999-0.324-1.8533-0.668-2.5213-0.37734-0.68666-0.944-1.232-1.6453-1.6107-0.75467-0.37467-1.7-0.564-2.9667-0.564-2.192 0-3.804 0.68667-4.7987 2.04-0.976 1.3373-1.4733 3.3253-1.4733 5.8093v17.259h-6.4787v-18.904c0-2.0573-0.39466-3.5813-1.1307-4.6613-0.75467-1.0133-2.0747-1.5427-4.0787-1.5427-0.84 0-1.6267 0.18933-2.4333 0.48133-0.73867 0.376-1.472 0.856-2.0413 1.5427-0.564 0.59866-1.0787 1.384-1.4387 2.3467-0.32533 0.95733-0.532 2.0573-0.532 3.272v17.465h-6.476z"/><path d="m765.16 245.9c-1.0107 0.648-2.244 1.06-3.6493 1.1773-1.4413 0.104-2.8947 0.36133-4.3213 0.584-0.71866 0.13867-1.388 0.29067-2.0027 0.48-0.66933 0.224-1.2347 0.516-1.7333 0.872-0.48 0.36-0.88933 0.84133-1.1987 1.4227-0.24 0.58267-0.40933 1.3227-0.40933 2.1093 0 0.74 0.23867 1.3547 0.61733 1.8547 0.44534 0.53066 0.95734 0.87466 1.5227 1.164 0.60133 0.29066 1.252 0.48133 1.9373 0.61333 0.72133 0.0893 1.3533 0.16 1.9547 0.16 0.72 0 1.4573-0.0707 2.296-0.292 0.85467-0.19067 1.6093-0.51867 2.3653-0.96133 0.73733-0.432 1.3533-1.028 1.8507-1.7493 0.53067-0.68534 0.77067-1.5453 0.77067-2.568zm6.444 8.1893c0 0.84133 0.15467 1.404 0.36133 1.748 0.24 0.34 0.63334 0.5 1.2187 0.5h0.648c0.30666 0 0.61866-0.04 0.96133-0.0893v4.492c-0.22267 0.0867-0.55067 0.152-0.88933 0.23733-0.36267 0.104-0.73867 0.172-1.116 0.25734-0.36267 0.0893-0.77067 0.13866-1.184 0.17466-0.34133 0.032-0.684 0.0653-0.90933 0.0653-1.352 0-2.4493-0.28934-3.324-0.83867-0.892-0.46-1.44-1.44-1.712-2.7573-1.3027 1.2493-2.8973 2.156-4.8 2.74-1.852 0.56666-3.632 0.856-5.4 0.856-1.3693 0-2.604-0.18667-3.836-0.53067-1.2013-0.36267-2.2813-0.90933-3.2227-1.628-0.928-0.72133-1.6613-1.596-2.212-2.6387-0.56399-1.1133-0.85599-2.4-0.85599-3.8227 0-1.836 0.32533-3.3227 1.0253-4.4227 0.656-1.1667 1.5453-2.0533 2.624-2.7213 1.064-0.61867 2.3307-1.0987 3.668-1.392 1.32-0.272 2.692-0.49867 4.0453-0.668 1.2333-0.20533 2.296-0.35733 3.3747-0.428 1.0467-0.136 2.0227-0.27333 2.7933-0.532 0.85867-0.22 1.4933-0.564 1.9387-1.0267 0.51334-0.46 0.736-1.232 0.736-2.16 0-0.84-0.188-1.4907-0.58266-2.056-0.42934-0.516-0.89067-0.92533-1.5067-1.2333-0.58533-0.25733-1.252-0.47733-1.9373-0.53333-0.72-0.10267-1.3893-0.152-2.0773-0.152-1.8147 0-3.3053 0.376-4.4867 1.1307-1.2013 0.75333-1.8693 1.9547-1.9733 3.5467h-6.5453c0.13734-1.9 0.56534-3.4813 1.4067-4.748 0.772-1.2653 1.78-2.2627 3.0307-3.016 1.2187-0.77066 2.6587-1.2853 4.184-1.6107 1.5587-0.29067 3.1707-0.43067 4.8333-0.43067 1.388 0 2.8267 0.14 4.2147 0.43067 1.4227 0.32533 2.692 0.80667 3.8067 1.5093 1.1293 0.66533 2.0373 1.5413 2.724 2.624 0.70134 1.1093 0.976 2.4133 0.976 3.9413z"/><path d="m779.46 231.21h6.168v4.3187l0.104 0.12133c0.99333-1.664 2.2973-2.9333 3.908-3.8573 1.5413-0.92534 3.34-1.3907 5.2587-1.3907 3.224 0 5.7773 0.84133 7.6453 2.5027 1.8693 1.6653 2.8107 4.1667 2.8107 7.508v20.224h-6.532v-18.509c-0.052-2.2787-0.53066-3.976-1.4707-5.056-0.912-1.0133-2.3147-1.5427-4.2853-1.5427-1.08 0-2.092 0.18933-2.968 0.564-0.85466 0.42933-1.5907 0.97867-2.192 1.6973-0.64934 0.70533-1.096 1.4947-1.44 2.4693-0.344 0.96-0.51334 1.9333-0.51334 3.016v17.361h-6.4933z"/><path d="m813.12 231.21h6.5306v29.427h-6.5306zm0-11.26h6.5306v6.1507h-6.5306z"/><path d="m845.73 245.9c-0.99467 0.648-2.212 1.06-3.652 1.1773-1.4547 0.104-2.8947 0.36133-4.352 0.584-0.70267 0.13867-1.3533 0.29067-1.9867 0.48-0.63467 0.224-1.2333 0.516-1.712 0.872-0.51733 0.36-0.89333 0.84133-1.168 1.4227-0.272 0.58267-0.40933 1.3227-0.40933 2.1093 0 0.74 0.16933 1.3547 0.58 1.8547 0.41333 0.53066 0.92533 0.87466 1.5093 1.164 0.63466 0.29066 1.268 0.48133 1.9867 0.61333 0.668 0.0893 1.3213 0.16 1.8867 0.16 0.736 0 1.472-0.0707 2.3133-0.292 0.87333-0.19067 1.6293-0.51867 2.416-0.96133 0.704-0.432 1.3373-1.028 1.8347-1.7493 0.49733-0.68534 0.75333-1.5453 0.75333-2.568zm6.4787 8.1893c0 0.84133 0.104 1.404 0.30933 1.748 0.20267 0.34 0.59733 0.5 1.216 0.5h0.668c0.308 0 0.60133-0.04 0.95866-0.0893v4.492c-0.25466 0.0867-0.54666 0.152-0.88933 0.23733-0.36266 0.104-0.73733 0.172-1.1333 0.25734-0.376 0.0893-0.73467 0.13866-1.1293 0.17466-0.36133 0.032-0.70267 0.0653-0.97867 0.0653-1.3173 0-2.396-0.28934-3.3067-0.83867-0.85733-0.46-1.4413-1.44-1.728-2.7573-1.2533 1.2493-2.8293 2.156-4.7347 2.74-1.8813 0.56666-3.7 0.856-5.4667 0.856-1.2853 0-2.588-0.18667-3.7867-0.53067-1.1973-0.36267-2.2973-0.90933-3.2053-1.628-0.96-0.72133-1.68-1.596-2.244-2.6387-0.54933-1.1133-0.82399-2.4-0.82399-3.8227 0-1.836 0.328-3.3227 0.99599-4.4227 0.65067-1.1667 1.5413-2.0533 2.6213-2.7213 1.0453-0.61867 2.2613-1.0987 3.6333-1.392 1.3547-0.272 2.7093-0.49867 4.08-0.668 1.1987-0.20533 2.3147-0.35733 3.3587-0.428 1.0787-0.136 2.004-0.27333 2.828-0.532 0.82266-0.22 1.4733-0.564 1.9187-1.0267 0.51333-0.46 0.72133-1.232 0.72133-2.16 0-0.84-0.208-1.4907-0.584-2.056-0.376-0.516-0.89066-0.92533-1.4907-1.2333-0.60133-0.25733-1.2533-0.47733-1.9387-0.53333-0.71999-0.10267-1.4213-0.152-2.0707-0.152-1.8347 0-3.308 0.376-4.508 1.1307-1.1853 0.75333-1.816 1.9547-1.9893 3.5467h-6.5293c0.13733-1.9 0.6-3.4813 1.424-4.748 0.77066-1.2653 1.7813-2.2627 3.0333-3.016 1.2147-0.77066 2.6387-1.2853 4.1627-1.6107 1.5587-0.29067 3.1733-0.43067 4.8-0.43067 1.456 0 2.8627 0.14 4.3013 0.43067 1.372 0.32533 2.6733 0.80667 3.788 1.5093 1.0787 0.66533 1.988 1.5413 2.688 2.624 0.688 1.1093 1.0307 2.4133 1.0307 3.9413z"/></g><path d="m148.85 287.29c20.171-2.4867 41.661-12.459 61.868-28.364 25.365 3.7 48.793 1.5413 67.473-6.2747-34.448 32.391-83.292 45.54-129.34 34.639m-36.592-17.601c-22.4-12.907-32.185-42.965-29.443-78.425 14.071 14.925 31.277 28.825 51.397 40.495 20.053 11.572 40.773 19.559 60.824 24.168-29.443 20.241-60.36 26.773-82.779 13.763m-68.192-152.19c2.5547 20.103 12.476 41.44 28.295 61.629-3.6507 25.384-1.4747 48.98 6.3586 67.697-32.425-34.433-45.451-83.296-34.653-129.33m169.96-104.95c-20.188 2.5533-41.612 12.425-61.835 28.329-25.365-3.72-48.861-1.5587-67.525 6.3067 34.464-32.443 83.344-45.555 129.36-34.636m36.589 17.533c22.452 12.921 32.256 42.981 29.429 78.476-14.021-14.945-31.296-28.827-51.383-40.447-20.103-11.604-40.788-19.572-60.739-24.268 29.324-20.189 60.26-26.701 82.692-13.761m35.049 113.73c16.76 26.103 21.835 52.853 10.556 72.34-11.276 19.592-36.967 28.551-68.037 27.096 12.955-12.972 24.885-28.467 35.048-46.087 10.18-17.633 17.617-35.715 22.433-53.349m-208.44 12.252c-16.744-26.168-21.887-52.921-10.592-72.441 11.293-19.556 36.984-28.484 68.04-27.011-12.907 12.956-24.868 28.416-35.031 45.999-10.164 17.721-17.549 35.819-22.417 53.453m32.477-47.643c11.396-19.744 25.38-36.829 40.308-50.369 22.468 3.3427 46.753 11.671 69.924 25.073 23.241 13.435 42.589 30.3 56.781 48.056-4.32 19.776-12.067 40.411-23.447 60.169-11.517 19.797-25.451 36.833-40.429 50.407-22.433-3.3787-46.752-11.707-69.975-25.072-23.188-13.42-42.572-30.268-56.695-48.003 4.2507-19.781 12.048-40.399 23.532-60.261m209.07 73.953c-2.5187-20.139-12.392-41.511-28.26-61.683 3.6333-25.381 1.5253-48.964-6.4107-67.679 32.477 34.431 45.536 83.308 34.671 129.36m-62.384-162.34c-71.535-41.269-163.33-16.728-204.71 54.792 0 0-0.088 0.068-0.088 0.10133-0.0507 0.0867-0.0507 0.12-0.0507 0.13867-41.269 71.551-16.589 163.39 54.945 204.7 71.587 41.357 163.48 16.696 204.79-54.893 41.372-71.569 16.744-163.48-54.877-204.84" fill="#003a5d"/><g fill="#00adef"><path d="m228.76 119.09-75.787 7.6253 15.801 16.196-34.636 19.948 9.1693 15.904 34.653-19.863 6.032 21.836z"/><path d="m18.133 54.035c2.3307 0 4.404-0.188 4.404-2.9293 0-2.332-2.2627-2.5707-4.1827-2.5707h-3.7187v5.5zm-3.4973 10.815h-3.136v-19.008h7.2333c4.592 0 6.94 1.596 6.94 5.452 0 3.428-2.124 4.9013-4.9867 5.244l5.3307 8.312h-3.5307l-4.8853-8.14h-2.9653zm3.3587-24.936c-7.9 0-14.053 6.2386-14.053 15.1 0 8.312 5.3813 15.08 14.053 15.08 7.8 0 13.952-6.152 13.952-15.08 0-8.8613-6.152-15.1-13.952-15.1m0 33.333c-10.488 0-17.995-7.832-17.995-18.233 0-10.987 8.3467-18.236 17.995-18.236 9.564 0 17.859 7.2493 17.859 18.236 0 10.985-8.2947 18.233-17.859 18.233"/><path d="m784.16 184.41v-114.62h-17.14v129.12h85.504v-14.496zm-191.26-19.333c-1.8 4.5907-4.3013 8.5347-7.5067 11.827-3.204 3.3427-7.0093 5.912-11.381 7.8133-4.4227 1.8533-9.46 2.7933-15.099 2.7933-7.728 0-14.343-1.472-19.945-4.3187-5.5213-2.9133-10.099-6.8373-13.609-11.689-3.5827-4.864-6.1693-10.623-7.848-17.152-1.7-6.616-2.5227-13.54-2.5227-20.928 0-6.752 0.82267-13.264 2.5227-19.537 1.6787-6.2547 4.2653-11.824 7.848-16.692 3.5107-4.9 8.056-8.808 13.556-11.655 5.448-2.9133 12.064-4.336 19.809-4.336 9.016 0 16.865 2.2467 23.413 6.856 6.5466 4.576 10.813 11.465 12.733 20.601h17.172c-0.94267-6.856-2.9653-12.905-6.1533-18.167-3.0987-5.2453-7.024-9.5987-11.739-13.077-4.7147-3.496-10.06-6.1867-16.092-7.9706-6.0173-1.832-12.393-2.7067-19.145-2.7067-9.888 0-18.696 1.748-26.324 5.3133-7.6587 3.5467-14.055 8.4307-19.193 14.584-5.0907 6.1533-8.9813 13.3-11.601 21.577-2.6747 8.244-3.996 17.087-3.996 26.477 0 9.428 1.2187 18.253 3.7027 26.444 2.4667 8.176 6.2013 15.324 11.124 21.323 4.968 6.0147 11.12 10.729 18.643 14.192 7.4573 3.4253 16.197 5.1387 26.204 5.1387 16.473 0 29.513-4.5253 39.027-13.556 9.528-9.0493 15.099-21.68 16.847-37.996h-17.188c-0.35867 5.3307-1.4747 10.248-3.2573 14.841m-184.64-25.296h67.089v-14.481h-67.089v-41.047h71.955v-14.464h-89.128v129.12h89.712v-14.496h-72.539zm315.64 14.173c-1.628 5.624-3.7347 10.283-6.2707 14.039-2.5 3.7187-5.3653 6.7013-8.5853 8.8746-3.1547 2.1453-6.3933 3.8067-9.668 4.9213-3.2573 1.1813-6.3227 1.9013-9.2187 2.1747-2.8613 0.292-5.3133 0.44667-7.2173 0.44667h-28.568v-100.16h28.911c7.9533 0 14.637 1.1493 20.088 3.376 5.416 2.1773 9.8533 5.4333 13.283 9.7173 3.4253 4.3187 5.912 9.4947 7.3866 15.564 1.5067 6.116 2.2973 13.007 2.2973 20.684 0 7.9866-0.82267 14.74-2.4373 20.36m-42.448-84.165h-44.268v129.12h44.268c10.761 0 20.049-1.4867 27.848-4.524 7.848-3.0333 14.345-7.3853 19.419-13.127 5.0213-5.7067 8.756-12.767 11.175-21.183 2.3627-8.328 3.6147-17.927 3.6147-28.808 0-20.739-5.3827-36.18-16.093-46.275-10.709-10.129-26.031-15.201-45.963-15.201"/></g></svg>
