<?xml version="1.0" encoding="UTF-8"?>
<svg width="480" height="240" version="1.1" viewBox="0 0 421.41 271.05" xml:space="preserve" xmlns="http://www.w3.org/2000/svg"><g transform="matrix(1.3333 0 0 -1.3333 0 271.05)"><g transform="scale(.1)" fill="#00adef"><path d="m462.31 1570.7h184.85v-681.01h-184.85v681.01"/><path d="m1390.4 1410.6-163.95-90.49c-33.07 56.92-83.16 86.11-149.8 86.11-94.851 0-164.41-72.48-164.41-176.1 0-116.26 80.746-176.08 164.88-176.08 65.19 0 116.26 28.69 153.72 85.6l151.77-106.04c-64.7-95.821-168.3-156.62-303.04-156.62-210.63 0-359.48 145.44-359.48 353.14 0 207.71 148.85 353.16 359.48 353.16 133.75 0 251-63.72 310.83-172.68"/><path d="m2112.7 1230.2c0-205.27-140.58-340.52-353.15-340.52h-300.61v681.03h300.61c212.57 0 353.15-135.24 353.15-340.51m-468.91-170.73h110.9c111.38 0 165.88 72.46 165.88 170.73 0 99.72-54.5 170.74-165.88 170.74h-110.9v-341.47"/><path d="m2185.7 889.65v681.01h184.84v-510.75h327.86v-170.26h-512.7"/><path d="m0.0625 2032.9v-1605.6h3160.6v632.44h-184.85v-447.6h-2790.8v1235.6h2185.6v185.09h-2370.5"/><path d="m2698.4 2032.9v-185.09h277.39v-277.3h184.84v462.39h-462.23"/><path d="m0 237.34v-34.039h56.621v-148.63h36.41v148.63h56.617v34.039h-149.65"/><path d="m235 184.51c28.703 0 49.191-19.973 49.191-49.34v-80.5h-34.058v69.539c0 18.41-9.004 28.32-24.664 28.32-14.618 0-26.746-9.383-26.746-28.562v-69.297h-34.055v188.02h34.055v-75.16c9 12.528 22.32 16.981 36.277 16.981"/><path d="m429.43 118.09c0-4.039-0.25-8.488-0.641-11.481h-89.641c3.391-18.277 16.434-26.23 32.485-26.23 10.957 0 22.707 4.3125 31.965 12.121l19.972-21.91c-14.492-13.168-32.492-19.168-53.89-19.168-38.629 0-65.641 26.469-65.641 66.148 0 39.66 26.098 66.942 63.93 66.942 36.41 0 61.461-27.032 61.461-66.422m-90.16 11.738h55.98c-3.133 16.313-12.789 25.313-27.531 25.313-16.18 0-25.438-9.52-28.449-25.313"/><path d="m684.4 146.01c0-55.071-37.839-91.352-94.855-91.352h-75.297v182.69h75.297c57.016 0 94.855-36.274 94.855-91.34m-133.75-57.293h38.5c38.489 0 57.153 24.269 57.153 57.293 0 33.539-18.664 57.289-57.153 57.289h-38.5v-114.58"/><path d="m746.85 222.47c0-12.27-9.66-21.66-21.793-21.66-12.266 0-21.672 9.39-21.672 21.66 0 12.261 9.406 21.922 21.672 21.922 12.133 0 21.793-9.661 21.793-21.922m-38.621-41.36h34.046v-126.44h-34.046v126.44"/><path d="m859.91 167.02v14.089h33.403v-116c0-40.699-26.481-65.109-68.231-65.109-19.969 0-40.98 5.2305-55.332 15.27l12.141 27.789c12.652-8.3477 26.492-12.93 41.754-12.93 21.136 0 36.007 11.621 36.007 33.551v8.8594c-8.738-10.559-21.269-17.09-38.89-17.09-30.789 0-58.18 25.723-58.18 64.473 0 38.867 27.391 64.59 58.18 64.59 17.75 0 30.41-6.66 39.148-17.492m-62.355-47.098c0-18.281 12.386-33.152 31.824-33.152 18.922 0 31.715 14.36 31.715 33.152 0 18.91-12.793 33.269-31.715 33.269-19.438 0-31.824-14.882-31.824-33.269"/><path d="m960.64 222.47c0-12.27-9.66-21.66-21.805-21.66-12.246 0-21.648 9.39-21.648 21.66 0 12.261 9.402 21.922 21.648 21.922 12.145 0 21.805-9.661 21.805-21.922m-38.621-41.36h34.047v-126.44h-34.047v126.44"/><path d="m1028.9 150.83v-46.191c0-15.641 8.47-21.512 18.91-21.512 8.23 0 16.84 4.0195 23.75 8.2031l12.53-26.621c-11.09-7.6796-24.01-13.301-41.88-13.301-31.44 0-47.37 17.621-47.37 50.5v48.922h-24.406v30.277h24.406v37.582h34.06v-37.582h45.79v-30.277h-45.79"/><path d="m1186.7 54.672v13.969c-8.34-10.32-20.48-17.23-37.84-17.23-34.98 0-61.19 28.57-61.19 66.551 0 37.961 26.21 66.539 61.19 66.539 17.36 0 29.5-6.91 37.84-17.352v13.961h33.27v-126.44zm-64.19 63.289c0-19.32 12.66-34.84 32.61-34.84 19.45 0 32.62 14.867 32.62 34.84 0 19.961-13.17 34.828-32.62 34.828-19.95 0-32.61-15.519-32.61-34.828"/><path d="m1248.5 242.56h34.06v-187.89h-34.06v187.89"/><path d="m1447.5 206.81c-20.37 0-34.97-8.09-34.97-21.911 0-13.308 15.79-17.617 37.71-21.148l10.31-1.691c32.75-5.219 58.2-19.438 58.2-51.149 0-40.18-35.49-59.5-74.77-59.5-27.79 0-57.41 8.1015-76.99 23.891l18.91 29.34c13.31-10.43 34.58-19.692 58.2-19.692 20.36 0 35.9 7.9492 35.9 22.051 0 12.648-13.32 17.211-38.76 21.391l-11.62 1.839c-32.23 5.211-55.71 19.18-55.71 52.309 0 38.109 33.92 57.93 72.8 57.93 25.71 0 46.71-5.739 69.8-19.438l-17.21-29.75c-14.49 8.879-31.83 15.528-51.8 15.528"/><path d="m1588.5 136.09 35.61 45.019h41.76l-49.84-59.488 50.23-66.949h-41.88l-36.41 51.137h-11.48v-51.137h-34.05v187.89h34.05v-106.47h12.01"/><path d="m1717.5 222.47c0-12.27-9.66-21.66-21.8-21.66-12.26 0-21.65 9.39-21.65 21.66 0 12.261 9.39 21.922 21.65 21.922 12.14 0 21.8-9.661 21.8-21.922m-38.62-41.36h34.05v-126.44h-34.05v126.44"/><path d="m1741.1 242.56h34.05v-187.89h-34.05v187.89"/><path d="m1803.3 242.56h34.06v-187.89h-34.06v187.89"/><path d="m1916 156.19c-13.06 0-19.45-4.57-19.45-11.48 0-7.441 9.13-9.141 20.61-10.832l11.22-1.699c27.54-4.18 42.67-16.309 42.67-37.84 0-26.102-21.4-42.93-58.06-42.93-17.22 0-39.8 3.3906-56.24 14.879l13.44 25.832c10.7-7.1797 24.15-12.402 43.06-12.402 15.78 0 23.36 4.4296 23.36 11.883 0 6.1367-6.26 9.5194-21 11.609l-10.32 1.437c-29.1 4.043-43.71 16.832-43.71 38.364 0 25.957 20.09 41.359 53.36 41.359 20.1 0 36.28-3.652 52.85-12l-11.48-26.492c-10.05 4.832-26.1 10.312-40.31 10.312"/><path d="m2127.2 206.81c-20.36 0-34.97-8.09-34.97-21.911 0-13.308 15.8-17.617 37.7-21.148l10.32-1.691c32.74-5.219 58.19-19.438 58.19-51.149 0-40.18-35.5-59.5-74.77-59.5-27.79 0-57.41 8.1015-76.99 23.891l18.94 29.34c13.31-10.43 34.57-19.692 58.18-19.692 20.35 0 35.89 7.9492 35.89 22.051 0 12.648-13.31 17.211-38.75 21.391l-11.62 1.839c-32.23 5.211-55.72 19.18-55.72 52.309 0 38.109 33.93 57.93 72.81 57.93 25.7 0 46.72-5.739 69.81-19.438l-17.22-29.75c-14.49 8.879-31.84 15.528-51.8 15.528"/><path d="m2262.9 150.83v-46.191c0-15.641 8.48-21.512 18.92-21.512 8.22 0 16.83 4.0195 23.74 8.2031l12.53-26.621c-11.09-7.6796-24.01-13.301-41.88-13.301-31.45 0-47.37 17.621-47.37 50.5v48.922h-24.4v30.277h24.4v37.582h34.06v-37.582h45.8v-30.277h-45.8"/><path d="m2420.6 54.672v13.969c-8.35-10.32-20.48-17.23-37.85-17.23-34.95 0-61.18 28.57-61.18 66.551 0 37.961 26.23 66.539 61.18 66.539 17.37 0 29.5-6.91 37.85-17.352v13.961h33.28v-126.44zm-64.19 63.289c0-19.32 12.65-34.84 32.61-34.84 19.45 0 32.63 14.867 32.63 34.84 0 19.961-13.18 34.828-32.63 34.828-19.96 0-32.61-15.519-32.61-34.828"/><path d="m2602 135.18v-80.508h-34.05v69.547c0 18.402-9.01 28.301-24.67 28.301-14.61 0-26.75-9.379-26.75-28.559v-69.289h-34.05v126.44h33.14v-14.879c9 13.442 22.71 18.282 37.18 18.282 28.7 0 49.2-19.973 49.2-49.332"/><path d="m2720.2 167.92v74.629h33.93v-187.89h-33.27v13.98c-8.35-10.32-20.49-17.219-37.83-17.219-34.97 0-61.19 28.559-61.19 66.527 0 37.981 26.22 66.563 61.19 66.563 17.09 0 28.84-6.66 37.17-16.59m-63.53-49.973c0-19.301 12.66-34.828 32.63-34.828 19.42 0 32.6 14.859 32.6 34.828 0 19.961-13.18 34.852-32.6 34.852-19.97 0-32.63-15.531-32.63-34.852"/><path d="m2874.5 54.672v13.969c-8.35-10.32-20.48-17.23-37.82-17.23-34.98 0-61.2 28.57-61.2 66.551 0 37.961 26.22 66.539 61.2 66.539 17.34 0 29.47-6.91 37.82-17.352v13.961h33.27v-126.44zm-64.19 63.289c0-19.32 12.66-34.84 32.63-34.84 19.42 0 32.61 14.867 32.61 34.84 0 19.961-13.19 34.828-32.61 34.828-19.97 0-32.63-15.519-32.63-34.828"/><path d="m3022.7 181.76-5.09-33.793c-5.61 2.48-13.7 4.043-20.62 4.043-15.65 0-26.62-9.66-26.62-28.453v-68.887h-34.04v126.44h33v-13.828c7.96 12 19.97 17.219 35.62 17.219 7.31 0 13.05-1.039 17.75-2.738"/><path d="m3126.7 167.92v74.629h33.93v-187.89h-33.29v13.98c-8.35-10.32-20.47-17.219-37.83-17.219-34.96 0-61.19 28.559-61.19 66.527 0 37.981 26.23 66.563 61.19 66.563 17.1 0 28.84-6.66 37.19-16.59m-63.55-49.973c0-19.301 12.67-34.828 32.63-34.828 19.43 0 32.62 14.859 32.62 34.828 0 19.961-13.19 34.852-32.62 34.852-19.96 0-32.63-15.531-32.63-34.852"/></g></g></svg>
