<?xml version="1.0" encoding="UTF-8"?>
<svg width="480" height="240" version="1.1" viewBox="0 0 723.73 206.22" xmlns="http://www.w3.org/2000/svg">
 <g transform="translate(131.24 -160.3)">
  <path d="m-131.24 160.3h212.54v206.22h-212.54z" fill="#f58345" fill-rule="evenodd"/>
  <g fill="#fff">
   <path d="m11.61 287.66c-1.0552 0.14706-2.1153 0.25773-3.1781 0.32613-2.8124 0.18147-5.6607 0.0688-8.5145-0.4452v1e-3c-2.8219-0.396-5.6104-1.1353-8.323-2.194-2.7096-1.0567-5.3529-2.4367-7.8897-4.1148v4e-4c-3.3989-2.1769-6.5655-4.6239-9.4863-7.4108-2.9265-2.7916-5.6024-5.9196-8.0133-9.4489l8e-4 -2.7e-4c-2.4537-3.3299-4.6032-6.8848-6.4392-10.631-1.8516-3.7773-3.3804-7.7469-4.5744-11.871-1.2317-4.2519-2.0617-8.4091-2.5339-12.521-0.4728-4.1125-0.5933-8.2095-0.4077-12.336 0.1852-4.1265 0.7695-8.1736 1.7307-12.098 0.9674-3.95 2.3205-7.7836 4.0365-11.458v-8e-4c1.2521-2.7885 2.7535-5.376 4.4795-7.7192 1.7186-2.3332 3.665-4.4361 5.8172-6.268 2.1202-1.9503 4.4438-3.6276 6.9112-5.0151 2.4974-1.4033 5.1613-2.5157 7.9282-3.3173l0.01-8e-3 0.066-0.0189 0.2423-0.13493c2.7428-0.66107 5.4831-1.1013 8.2413-1.2472 2.7447-0.1452 5.5184 2.6e-4 8.3475 0.50826l7e-4 -4e-3c2.9012 0.35787 5.723 1.0715 8.4537 2.1093 2.7791 1.0564 5.4539 2.448 8.0137 4.1401v-4e-4c3.3948 2.1743 6.5571 4.6181 9.49 7.3583 2.9311 2.738 5.6354 5.7748 8.1211 9.1397l0.047 0.0612c2.3762 3.4799 4.476 7.0632 6.2955 10.848 1.812 3.7712 3.3336 7.7245 4.5593 11.957 1.0402 3.592 1.8383 7.2457 2.3524 10.931 0.4928 3.5407 0.7287 7.1411 0.6716 10.78-0.059 3.6851-0.3444 7.2439-0.8844 10.681-0.5442 3.4636-1.3452 6.8005-2.4288 10.016v-8e-4c-1.2272 3.6933-2.7484 6.9971-4.5456 9.9688-1.8092 2.9923-3.908 5.6731-6.2756 8.0996-2.4091 2.4688-5.0479 4.5907-7.923 6.33-0.627 0.37946-1.2665 0.74106-1.9181 1.0847l-1.1161-3.854c0.3401-0.1908 0.6769-0.38626 1.0106-0.58813 2.597-1.5715 4.9754-3.482 7.1411-5.7013 2.152-2.2061 4.066-4.6527 5.7237-7.3943 1.6698-2.7609 3.0743-5.8039 4.1952-9.1789v-7e-3c1.0171-3.0176 1.767-6.1399 2.275-9.3717 0.5117-3.2584 0.7828-6.6388 0.8386-10.145 0.054-3.4053-0.1712-6.8073-0.6413-10.182-0.4909-3.5215-1.2469-6.9892-2.2288-10.379-1.1652-4.0241-2.6105-7.7799-4.3303-11.359-1.7132-3.5648-3.7168-6.9781-6.0041-10.326l8e-4 -8e-4c-2.3252-3.1392-4.8567-5.9784-7.6007-8.5417-2.7594-2.5776-5.7369-4.8785-8.9381-6.9289l-0.023-0.0156c-2.3282-1.5408-4.7501-2.8036-7.2545-3.7556-2.4291-0.92334-4.9492-1.5599-7.5492-1.8804l-0.1073-0.0227c-2.5482-0.4648-5.0642-0.59867-7.5666-0.4668-2.4496 0.12933-4.884 0.51373-7.319 1.0885l-0.2359 0.14027-0.1203 0.0344v-5e-3c-2.4511 0.71053-4.8332 1.7095-7.0904 2.9775-2.2156 1.2457-4.2988 2.7504-6.1943 4.4957l-0.061 0.0533c-1.9336 1.6411-3.6846 3.5304-5.2316 5.6304-1.5722 2.1343-2.9352 4.4809-4.0657 6.9985l-0.015 0.0305c-1.6089 3.4421-2.8796 7.0405-3.7897 10.754-0.9021 3.6832-1.4497 7.4789-1.6236 11.347-0.1751 3.9016-0.059 7.7935 0.3923 11.722 0.4516 3.9299 1.2366 7.8743 2.3958 11.877 1.1331 3.9127 2.5799 7.6709 4.3299 11.241 1.7363 3.5445 3.7783 6.9147 6.1164 10.08l0.046 0.0613c2.2545 3.3003 4.7509 6.2199 7.4771 8.8203 2.7322 2.6071 5.7052 4.9035 8.903 6.9516l0.023 0.0156c2.3075 1.5284 4.712 2.7843 7.1773 3.7463 2.434 0.94933 4.9251 1.6112 7.4332 1.9635l0.077 0.0155c2.5338 0.46294 5.0986 0.5624 7.6554 0.3976 0.776-0.0499 1.5508-0.1244 2.3229-0.2208l1.1013 3.8041z"/>
   <path d="m-131.24 325.4 36.853-10.675c0.4796-1.2597 1.059-2.7689 1.7355-4.5177 0.9373-2.4233 1.8355-4.7304 2.6884-6.904 1.2292-3.1351 2.2723-5.7841 3.1325-7.9604 0.3348-0.84667 1.4268-3.5899 3.3876-8.5123l3.5176-8.8748c1.5186-3.8332 2.708-6.8405 3.543-8.9593 1.6724-4.2475 2.7454-6.9664 3.3769-8.5632l3.1427-7.9087c1.3217-3.3272 2.2598-5.6837 2.7262-6.8508v1e-3c1.0469-2.6215 1.816-4.5399 2.2521-5.6224 0.6883-1.7064 1.199-3.0043 1.5327-3.8944 0.3183-0.8492 0.4897-1.3413 0.5144-1.474l0.046-0.1912c0.381-1.3017 0.6852-2.6171 0.91-3.9409v-8e-3c0.2254-1.3217 0.3678-2.6219 0.426-3.8975 0.059-1.2695 0.02-2.5107-0.1156-3.7224-0.1346-1.2031-0.3633-2.3596-0.6837-3.4667-0.4093-1.4131-0.9392-2.7737-1.5879-4.0777-0.6493-1.3043-1.3972-2.5152-2.2424-3.6287-0.8504-1.1203-1.7888-2.1468-2.8138-3.0776-1.0008-0.90906-2.0806-1.7129-3.2356-2.4111-1.1528-0.69614-2.3498-1.2649-3.5883-1.7037-1.2488-0.44266-2.5467-0.75973-3.8884-0.94826-1.3304-0.18747-2.6861-0.2264-4.0637-0.1176-1.3974 0.1108-2.7984 0.37-4.2002 0.776-2.3981 0.69426-4.5124 1.7015-6.3405 3.0205-1.8052 1.302-3.3472 2.928-4.6224 4.8744-1.2983 1.9795-2.2492 4.0748-2.8501 6.2809-0.6071 2.2268-0.8702 4.5928-0.7907 7.0945l0.05 1.5496-1.4915 0.4048-9.8139 2.6691-2.2492 0.61187-0.2109-2.3368c-0.1943-2.1575-0.212-4.2615-0.052-6.31 0.1598-2.0621 0.5022-4.1128 1.0246-6.1489 1.0334-4.0281 2.6158-7.7192 4.7444-11.072 1.0696-1.6849 2.2711-3.2599 3.6031-4.7225 1.3197-1.4509 2.7749-2.7933 4.3608-4.024 1.5869-1.2311 3.2757-2.2987 5.0635-3.2016 1.7778-0.89773 3.6638-1.6359 5.6568-2.2133 2.279-0.66027 4.5524-1.0733 6.8166-1.2393 2.2742-0.16627 4.5532-0.0869 6.835 0.23813 2.2504 0.31973 4.4401 0.84053 6.5646 1.5587h0.01c2.1222 0.71734 4.168 1.6309 6.136 2.7383 1.9715 1.1093 3.8264 2.4053 5.5631 3.8865 1.7228 1.4695 3.3233 3.1211 4.8004 4.9527 1.4816 1.838 2.7663 3.8101 3.8507 5.9168 1.0782 2.0932 1.9614 4.3268 2.6478 6.6967 0.5594 1.9328 0.926 3.8679 1.0991 5.8049 0.1731 1.9472 0.152 3.8751-0.064 5.7815-0.2124 1.8755-0.5269 3.7675-0.941 5.6697-0.4178 1.92-0.9378 3.8616-1.5564 5.8204l-0.01-1e-3c-0.2245 0.76466-0.5158 1.6509-0.8726 2.6536-0.3519 0.99106-0.8078 2.2096-1.3667 3.6541-0.7087 1.8323-1.3009 3.3512-1.7348 4.45-0.4248 1.0764-1.1063 2.7813-2.0281 5.0785l-4.6859 11.684c-1.0344 2.5807-1.8595 4.6465-2.5133 6.2956-0.5548 1.3996-1.3407 3.3948-2.4938 6.3368-1.4581 3.7187-3.114 7.9029-4.9656 12.551-0.7014 1.7605-1.4668 3.724-2.2896 5.8723l-0.6368 1.6732 44.305-12.833 1.8784-0.54347 0.5436 1.8772 2.0995 7.2492 35.435-10.264 1.0881 3.7557-37.313 10.808-1.8777 0.54387-0.5439-1.8777-2.0999-7.2491-46.16 13.37-3.7005 1.0727 1.3164-3.6175c0.6613-1.8179 1.33-3.6083 2.0012-5.3604 0.6097-1.5931 1.3825-3.5615 2.3206-5.918 1.431-3.5909 3.0819-7.7711 4.95-12.536 0.5095-1.3005 1.3936-3.536 2.5094-6.3515 1.0173-2.5652 1.8697-4.704 2.5137-6.3111l4.6859-11.684c0.5204-1.2979 1.1878-2.976 2.0121-5.0631 0.8191-2.0727 1.3841-3.512 1.7352-4.4197 0.4993-1.2919 0.9404-2.4741 1.3209-3.546 0.3694-1.0405 0.6448-1.8689 0.8244-2.4839l0.01-0.0461c0.5881-1.8619 1.0776-3.6851 1.4653-5.4679 0.392-1.7999 0.6856-3.5588 0.8799-5.2713 0.1897-1.6811 0.2113-3.3536 0.064-5.0151-0.1493-1.6728-0.4703-3.3577-0.9612-5.054-0.6115-2.1116-1.4029-4.1101-2.372-5.9912-0.9637-1.8713-2.1052-3.6247-3.4212-5.2573-1.3207-1.6373-2.7535-3.1155-4.2955-4.4308-1.5292-1.3047-3.1752-2.4525-4.9345-3.4428-1.7643-0.9928-3.5905-1.8088-5.4761-2.4468l6e-4 -3e-3c-1.8806-0.63533-3.838-1.0991-5.8677-1.3871-2.002-0.28533-4.0055-0.35453-6.0071-0.20826-2.0122 0.14733-4.0154 0.50946-6.0045 1.0859-1.7432 0.50454-3.4043 1.1565-4.9819 1.9528-1.5673 0.79147-3.047 1.7273-4.4349 2.8037-1.3881 1.0768-2.6744 2.2655-3.8547 3.5633-1.1697 1.2853-2.2337 2.6816-3.1888 4.1861-1.923 3.0283-3.3468 6.3417-4.2697 9.9372-0.4555 1.7756-0.7571 3.6015-0.9021 5.4747-0.086 1.1047-0.1176 2.2125-0.095 3.3229l6.033-1.6403c0.044-2.3207 0.357-4.5491 0.9388-6.6837 0.7165-2.6291 1.8308-5.0971 3.3406-7.4004 1.5315-2.3368 3.4054-4.3052 5.6195-5.9024 2.1913-1.5807 4.7051-2.7821 7.5364-3.6023 1.692-0.48987 3.3543-0.80014 4.9809-0.92947 1.6468-0.13067 3.2834-0.0816 4.9074 0.14747 1.6136 0.22706 3.1665 0.60586 4.6545 1.1331 1.502 0.53174 2.9387 1.2132 4.3095 2.0409 1.3677 0.82666 2.652 1.784 3.8486 2.8701 1.171 1.0636 2.2688 2.27 3.2902 3.6152 1.0257 1.3516 1.9066 2.7665 2.6402 4.2417 0.7344 1.4756 1.3463 3.0561 1.8328 4.7376 0.39 1.3471 0.6644 2.7232 0.8216 4.1251 0.1558 1.3935 0.1992 2.8347 0.1316 4.3207-0.068 1.4793-0.2261 2.9432-0.4717 4.3884-0.2411 1.4163-0.5729 2.8513-0.9947 4.3004-0.089 0.3832-0.3137 1.0572-0.6742 2.0191-0.3838 1.0227-0.906 2.3539-1.5636 3.9855-0.9098 2.2568-1.645 4.086-2.255 5.6133v8e-3c-1.1936 2.9869-2.0741 5.1937-2.7261 6.8352l-3.1272 7.9087c-1.5224 3.8507-2.7031 6.8376-3.3771 8.5485-1.5317 3.8888-2.7061 6.8613-3.5425 8.9741l-3.5335 8.8747c-0.3778 0.95027-1.5401 3.8828-3.3717 8.5123-1.3148 3.3256-2.3617 5.9796-3.1328 7.9457-1.1437 2.9167-2.0391 5.2101-2.6884 6.8885-0.7381 1.9091-1.4256 3.704-2.0673 5.4025l-0.3455 0.91533-0.9431 0.27254-38.881 11.262v-4.0709zm154.43-44.733 58.106-16.831v4.0705l-57.019 16.515z"/>
   <path d="m-131.24 334.51 40.821-11.854 1.0879 3.7561-41.909 12.17z"/>
  </g>
  <text transform="rotate(-16.2)" x="-145.98442" y="328.64783" fill="#ffffff" font-family="Swiss924BT" font-size="47.666px" stroke-width="1.3333" xml:space="preserve"><tspan x="-145.98442 -129.87321 -114.09574 -96.220924 -78.58445" y="328.64783" stroke-width="1.3333">YEARS</tspan></text>
  <g fill="#f5821f" fill-rule="evenodd">
   <path d="m138.24 236.46c3.8135-1.4271 6.8111-3.7084 9.5372-6.5612 4.9047-5.4195 7.3572-13.406 7.3572-23.39 0-9.9829-2.4525-17.684-7.0859-23.103-2.7238-3.1379-5.995-5.4195-9.8085-6.8455v-11.695c6.5397 1.7117 12.263 5.1333 16.894 10.554 6.5397 7.7004 9.8095 17.969 10.082 31.09 0 13.406-3.5423 23.96-10.354 31.66-4.6323 4.8503-10.082 8.2719-16.622 9.9843zm-16.895 1.4253c0.5461 0 1.6358 0 2.9976 0.28387h2.1812c4.3585 0 8.1732-0.5704 11.716-1.7092v11.693c-3.8144 0.85654-7.6301 1.4253-11.716 1.4253h-2.9999c-0.816 0-1.3613-0.28467-2.1789-0.28467v42.786l-9.5372 1.4245-0.5455-129.78h16.624c3.8139 0 7.0847 0.57 10.354 1.1407v11.695c-3.2693-1.1411-6.5401-1.7119-10.354-1.7119h-6.8135z"/>
   <path d="m227.35 283.52c11.989 0 22.072-5.4195 29.974-15.973 8.1747-10.839 11.989-23.96 11.989-39.647 0-15.688-4.0856-28.808-11.989-39.647-8.1737-10.554-18.257-15.973-29.974-15.973v-11.979c6.2684 0.28533 12.263 1.426 17.985 4.2784 5.9942 2.5671 11.172 6.5605 15.532 11.693 5.9954 6.8459 10.628 14.548 13.898 23.39 2.9976 9.1264 4.631 18.255 4.631 28.238 0 8.2719-1.0908 16.543-3.5417 24.53-2.4525 7.9865-5.7231 15.117-10.082 21.391-4.9061 7.132-10.627 12.266-17.167 15.974-6.5408 3.7077-13.626 5.7049-21.255 5.7049zm-0.2713-111.24c-11.718 0-21.801 5.4195-29.703 15.973-8.1748 10.839-12.261 23.96-11.99 39.647 0 15.688 4.0872 28.808 11.99 39.647 8.1758 10.554 17.985 15.973 29.975 15.973v11.98c-6.2668-0.28427-12.535-1.4264-18.257-4.2789-5.723-2.5669-10.902-6.5589-15.26-11.695-5.9948-6.8455-10.627-14.546-13.625-23.674-3.2701-8.8419-4.9048-18.255-4.9048-27.952 0-9.9829 1.6347-19.111 4.6323-27.953 2.9975-8.8423 7.6312-16.829 13.626-23.675 4.3589-5.1329 9.5376-9.1264 15.259-11.693 5.7229-2.8524 11.989-4.2784 18.258-4.2784h0.2713v11.979h-0.2713"/>
   <path d="m321.36 236.46c3.8144-1.4271 7.084-3.7084 9.8087-6.5612 4.9051-5.4195 7.3576-13.406 7.3576-23.39 0-9.9829-2.4525-17.684-7.3576-23.103-2.7247-3.1379-5.9943-5.4195-9.8087-6.8455v-11.695c6.8112 1.7117 12.535 5.1333 17.166 10.554 6.5397 7.7004 9.8109 17.969 9.8109 31.09 0 13.406-3.2712 23.96-10.083 31.66-4.6326 4.8503-10.083 8.2719-16.894 9.9843zm-16.895 1.4253c0.8183 0 1.9064 0 2.9972 0.28387h2.4522c4.3612 0 8.175-0.5704 11.446-1.7092v11.693c-3.5421 0.85654-7.3582 1.4253-11.718 1.4253h-2.725c-0.8171 0-1.6335-0.28467-2.4518-0.28467l0.2732 42.786-9.8104 1.4245-0.2725-129.78h16.623c3.5421 0 7.0828 0.57 10.082 1.1407v11.695c-2.999-1.1411-6.2682-1.7119-10.082-1.7119h-6.8134z"/>
   <path d="m390.3 236.46c3.8146-1.4271 7.0858-3.7084 9.5373-6.5612 5.1779-5.4195 7.6304-13.406 7.6304-23.39-0.2736-9.9829-2.4525-17.684-7.3584-23.103-2.7235-3.1379-5.9947-5.4195-9.8093-6.8455v-11.695c6.8122 1.7117 12.534 5.1333 16.894 10.554 6.8133 7.7004 10.083 17.969 10.083 31.09 0 13.406-3.2694 23.96-10.354 31.66-4.362 4.8503-9.8106 8.2719-16.623 9.9843zm-16.894 1.4253c0.8168 0 1.9064 0 2.9976 0.28387h2.4526c4.0872 0 8.1724-0.5704 11.444-1.7092v11.693c-3.5426 0.85654-7.3564 1.4253-11.717 1.4253h-2.7238c-0.8187 0-1.6358-0.28467-2.4526-0.28467l0.2718 42.786-9.809 1.4245-0.2737-129.78h16.622c3.5419 0 7.0848 0.57 10.082 1.1407v11.695c-2.9975-1.1411-6.2687-1.7119-10.082-1.7119h-6.8115z"/>
   <path d="m192.47 312.05v-11.122l25.616 63.034-4.6337 1.4271-10.899-27.382h-10.083v-5.1341h8.1759zm-8.4465 20.823h8.4465v5.1341h-10.627l-10.9 27.382-4.3585-1.4271 25.886-62.464v10.552z"/>
   <path d="m248.06 309.19-3.2701 3.9931c-1.3621-2.2811-2.9975-3.7093-4.6309-4.8503-1.6363-1.1388-3.2708-1.7107-5.1788-1.7107-2.7258 0-4.9039 1.1425-6.5398 3.4231-1.9074 2.2817-2.7261 4.8488-2.7261 8.2712 0 1.7117 0.2736 3.4235 0.8187 4.8495 0.5465 1.4253 1.3625 2.8524 2.4525 3.7081 1.3621 1.4252 3.5421 2.5671 7.0847 3.7077 1.6362 0.57067 2.725 1.1409 3.5433 1.4252 2.9976 1.4264 5.1764 3.1377 6.5397 5.9913 1.6332 2.5671 2.1796 5.704 2.1796 9.6964 0 5.1364-1.3628 9.4129-4.089 12.837-2.9971 3.4216-6.5374 5.134-10.625 5.134-2.998 0-5.4501-0.57066-7.9049-2.2809-2.4513-1.7121-4.3585-3.9945-5.9947-7.1316l3.8158-4.2788c1.3629 2.8525 2.725 4.8488 4.3601 6.2752 1.6351 1.1407 3.5425 1.996 5.7237 1.996 2.7239 0 5.176-1.1388 7.0847-3.4224 1.9072-2.2824 2.7239-5.1341 2.7239-8.5576 0-1.7095-0.2714-3.1377-0.8167-4.5631-0.2737-1.426-1.0908-2.5671-1.9072-3.7076-1.364-1.4264-4.0872-3.1375-8.9923-4.85-0.8186-0.28413-1.6353-0.57066-2.181-0.85453-2.7251-1.1413-4.9036-3.1377-6.5402-5.7048-1.361-2.2817-2.18-5.4195-2.18-9.1272 0-5.1341 1.364-9.4129 4.0879-12.836 2.9972-3.4224 6.5397-5.1329 10.627-5.1329 2.4526 0 4.9051 0.5688 7.0859 1.9959 2.1788 1.4261 3.8139 3.1371 5.4489 5.7049"/>
   <path d="m280.76 360.25c5.9948 0 11.171-2.5671 15.258-7.7004 4.0872-5.1341 6.2683-11.41 6.2683-19.112 0-7.4151-2.1811-13.69-6.2683-18.825-4.0872-5.1341-9.2636-7.7004-15.258-7.7004v-5.704c3.2686 0 6.2662 0.56986 9.2638 1.9963 2.997 1.1407 5.4496 3.1377 7.9021 5.7037 2.9976 3.1373 5.4489 6.8459 7.0848 11.125 1.6353 4.2788 2.4525 8.8419 2.4525 13.405 0 4.2784-0.5454 7.9865-1.9076 11.981-1.0896 3.7077-2.9974 7.1309-5.1786 10.268-2.4511 3.4243-5.4482 5.9901-8.7183 7.7023-3.5421 1.7103-7.0851 2.5656-10.899 2.5656zm-0.2736-53.338c-5.995 0-11.173 2.5663-15.259 7.7004-4.0872 5.1356-5.9948 11.41-5.9948 18.825 0 7.7019 1.9076 13.977 6.2661 19.112 4.0872 5.1333 8.9923 7.7004 15.261 7.7004v5.7048c-3.271 0-6.54-0.57-9.2658-1.9971-2.9975-1.1407-5.7215-3.1379-7.9026-5.7037-3.2701-3.1373-5.4489-6.8463-7.0848-11.125-1.6346-4.2765-2.4525-8.8425-2.4525-13.691 0-4.5633 0.8179-9.1264 2.4525-13.405 1.6359-4.2788 3.8147-7.9873 6.8111-11.125 2.1812-2.566 4.9073-4.5631 7.9049-5.7037 2.9972-1.4264 5.9947-1.9963 9.2636-1.9963h0.2736v5.704h-0.2736"/>
   <path d="m351.06 305.77-0.2713 5.7048c-1.6366-1.4253-3.5438-2.2805-5.7238-3.1377-1.9074-0.56813-4.0872-0.85467-6.2661-0.85467-5.7236 0-10.902 2.2817-14.716 7.4159-4.0872 4.8495-6.2661 11.124-6.2661 18.539 0.2713 7.4161 2.1789 13.691 6.2661 18.541 4.36 5.1335 9.2659 7.7005 15.261 7.7005 2.1793 0 4.0857-0.28466 6.2665-1.14 1.9075-0.57026 3.8135-1.7117 5.7233-2.8524v5.7037c-1.9098 1.1417-3.8158 1.9985-5.7233 2.5671-2.1808 0.57067-4.3597 0.8564-6.2665 0.8564-3.5422 0-6.8134-0.57-9.5368-1.7109-2.9976-1.1407-5.4502-2.8532-7.9046-5.4203-2.724-2.8516-5.1753-6.5593-6.5401-10.838-1.6328-4.2785-2.4511-8.558-2.4511-13.407 0-4.2776 0.5451-8.2719 1.9083-12.264 1.3611-3.9916 3.2689-7.4159 5.9948-10.554 2.1792-2.8509 4.9039-5.1341 7.9015-6.5593 2.7238-1.4284 5.995-1.9983 9.8097-1.9983 2.18 0 4.3608 0.28613 6.2684 0.8564 2.1788 0.57067 4.0872 1.7125 6.2664 2.8513"/>
   <path d="m365.23 302.06v62.466l-4.9035 0.57107v-62.18z"/>
   <path d="m397.11 312.05v-11.122l25.888 63.034-4.9073 1.4271-10.899-27.382h-10.082v-5.1341h8.1747zm-8.4476 20.823h8.4476v5.1341h-10.628l-10.899 27.382-4.3598-1.4271 25.887-62.464v10.552z"/>
   <path d="m419.18 302.92h32.154l0.2714 5.4184h-14.169l0.2725 56.191-4.9046 0.57107-0.2719-56.762h-14.444z"/>
   <path d="m462.51 302.06 0.2714 62.466-4.905 0.57107-0.2715-62.18z"/>
   <path d="m479.13 302.06v62.466l-4.9058 0.57107v-62.18z"/>
  </g>
  <g fill="#808285" fill-rule="evenodd">
   <path d="m592.49 366.53h-25.887v-27.669h25.887z"/>
   <path d="m592.49 331.44h-25.887v-27.666h25.614z"/>
   <path d="m592.22 296.93h-25.614l-0.2715-27.667h25.886z"/>
   <path d="m592.22 262.42h-25.886v-27.954h25.886z"/>
   <path d="m592.22 227.33h-25.886v-27.668h25.614z"/>
   <path d="m591.95 192.82h-25.614l-0.2736-27.668h25.887z"/>
   <path d="m551.62 363.67h-21.254v-22.249h21.254z"/>
   <path d="m551.62 328.87h-21.254v-22.248h21.254z"/>
   <path d="m551.34 294.36h-20.982v-22.247h20.982z"/>
   <path d="m551.34 259.56h-21.254v-22.249h21.254z"/>
   <path d="m551.34 224.77h-21.254v-21.963h21.254z"/>
   <path d="m551.34 190.25h-21.254v-22.248h20.982z"/>
   <path d="m515.1 359.97h-14.988v-15.688h14.988z"/>
   <path d="m515.1 325.45h-14.988v-15.974h14.988z"/>
   <path d="m515.1 290.65h-14.988v-16.258h14.988z"/>
   <path d="m514.83 255.85h-14.987v-15.972h14.987z"/>
   <path d="m514.83 221.34h-14.987v-15.973h14.987z"/>
   <path d="m514.83 186.54h-14.987v-15.688h14.987z"/>
   <path d="m481.59 288.94h-11.718v-11.98h11.445z"/>
   <path d="m481.31 254.43h-11.445l-0.2713-11.692h11.716z"/>
   <path d="m481.31 219.35h-11.716v-11.124h11.716z"/>
   <path d="m481.31 184.83h-11.716v-11.695h11.445z"/>
   <path d="m450.79 286.95h-8.4476v-7.4169h8.4476z"/>
   <path d="m450.52 252.15h-8.1762v-7.4173h8.1762z"/>
   <path d="m450.52 217.63h-8.1762v-7.7012h8.1762z"/>
   <path d="m450.52 182.84h-8.4476v-7.4157h8.4476z"/>
   <path d="m424.91 285.23h-4.3608v-4.2776h4.3608z"/>
   <path d="m424.91 250.15h-4.6323v-3.7077h4.3598z"/>
   <path d="m424.63 215.64h-4.3598v-3.7089h4.3598z"/>
   <path d="m424.63 180.84h-4.3598v-3.9931h4.3598z"/>
   <path d="m161.95 365.38h-49.594v-65.636h49.46z"/>
  </g>
  <path d="m135.25 348.84c0.8168-0.28454 1.6351-0.85534 2.4525-1.4256 1.6351-1.1415 3.2712-2.8532 4.9051-5.4195l-7.3576-7.7012v-6.2755c0.2737 0.28454 0.5455 0.57067 0.8168 0.85534 2.4548-1.4253 4.0883-2.5664 4.9069-3.9924 1.0878-1.1411 1.3615-2.5671 1.3615-3.9941 0-1.7107-0.5455-2.8517-1.3615-3.7059-1.091-1.1425-2.1808-1.4283-3.8161-1.4283-0.5447 0-1.3621 0-1.9076 0.28574v-3.9943c0.8168 0 1.3629-0.28387 2.4525-0.28387 2.4526 0 4.6327 1.1407 6.2684 2.8509 1.9068 1.7125 2.7239 3.7085 2.7239 6.2756 0 2.2824-0.5449 4.278-1.9071 5.9905-1.3614 1.7113-3.5422 3.422-6.2661 4.8487l6.8111 7.1309c0.8172-1.7103 1.9072-3.1379 3.2689-4.8476 1.0908-1.7125 2.454-3.71 3.8159-5.9913l2.9974 3.1377c-1.3613 1.9964-2.725 3.7081-3.8161 5.4205-1.3611 1.7092-2.4515 3.4217-3.5423 5.1331l7.9042 8.2719-2.9975 2.8532-7.6305-7.7035c-1.9064 2.8535-3.8143 4.8503-5.9951 6.2755-1.3613 0.85654-2.7247 1.428-4.0876 1.7121zm-0.2713-14.546c-2.4526 1.4256-4.3608 2.8532-5.4494 4.2781-1.0904 1.4264-1.6353 3.1377-1.6353 4.8505 0 1.4249 0.2713 2.8505 1.3617 3.992 1.0896 1.1411 2.4522 1.7109 4.0872 1.7109 0.545 0 1.3622 0 1.9071-0.28533v4.2788c-0.8164 0.28426-1.6347 0.28426-2.4521 0.28426-2.7262 0-4.9039-0.85453-6.8115-2.8513-1.9083-1.9963-2.7261-4.2788-2.7261-7.1293 0-2.2836 0.5453-4.5652 2.1812-6.5616 1.3617-1.9967 3.8142-3.7084 6.811-5.7048-1.3621-1.7113-2.7232-3.1377-3.5422-4.8488-0.545-1.7124-1.09-3.1377-1.09-4.8503 0-2.5671 1.09-4.8476 2.9976-6.8455 1.3632-1.1399 2.725-1.9963 4.6321-2.5671v3.9943c-0.8164 0.28533-1.3621 0.57066-1.9071 1.1425-1.0904 1.1388-1.635 2.5659-1.635 3.9916 0 1.1413 0.5446 2.5673 1.09 3.7084 0.545 0.85453 1.3625 1.9964 2.4521 3.1371v6.2755z" fill="#fff" fill-rule="evenodd"/>
 </g>
</svg>
