<?xml version="1.0" encoding="UTF-8"?>
<svg width="360" height="240" version="1.1" viewBox="0 0 832.87 580.02" xmlns="http://www.w3.org/2000/svg">
 <g fill="#110f0e">
  <path d="m96.301 564.83c0 0.20533-1.2333 14.7-17.297 14.7h-50.451c-0.28133-0.024-28.553-0.64134-28.553-38.653v-37.085c0-9.3053 6.708-26.884 32.1-26.884 25.804 0 61.04 0.308 61.4 0.308l0.56667 0.0267v23.619h-52.508c-0.51467 0.0267-12.953 0.25733-12.953 13.621v29.865c0.052 0.33467 1.388 10.124 13.313 10.124h21.461c0.076 0 3.1347-0.51067 3.1347-6.5267 0-7.684-0.18-13.493-0.20667-14.264-0.20533-0.54-1.7467-4.42-6.0133-5.524l-0.25733-0.0773-0.128-0.26c-0.79733-1.9-0.56533-2.7733-0.51467-2.928l0.15467-0.384h34.029c0.204 0.024 2.928 0.48667 2.7227 5.112-0.18 4.1147 0 34.903 0 35.211"/>
  <path d="m832.87 501.09h-0.71867c-5.9867 0.18-12.773 0.25466-20.123 0.25466-11.849 0-21.82-0.20533-24.312-0.28133v78.233h-27.144v-78.593h-64.069v14.805c0 0.15333 0.10133 3.7 6.708 3.7h24.284v19.661h-23.98c-0.25467 0-6.5773 0.15334-6.5773 5.0373 0 4.24 0.0773 34.876 0.0773 34.876v0.592l-27.32-0.38667v-88.875c0-3.8547 1.44-12.797 14.932-12.797h126.29c8.7627 0 18.325 10.124 21.771 23.052z"/>
  <path d="m457.19 554.26v25.161h-72.321c-6.012 0-10.408-1.54-13.056-4.6-3.212-3.7253-2.5947-8.2507-2.5693-8.428v-73.583c0-13.545 12.464-15.551 12.593-15.576h75.225l-0.56533 22.695h-0.564s-22.619 0.0253-38.653 0.0253c-9.3307 0-14.523-0.0253-15.499-0.0253h-0.15333c-1.6467 0-2.9053 0.436-3.7533 1.3373-1.3627 1.464-1.26 3.572-1.26 3.5973v7.94c0 4.7813 4.8573 4.86 5.064 4.86l49.267-0.10266v21.587h-49.14c-5.8587 0.33467-5.988 5.0133-5.988 5.2187v4.6787c0 4.8813 5.244 5.2147 5.476 5.2147z"/>
  <path d="m553.55 578.17v1.1547h-69.265s-0.43467 0.0787-1.0787 0.0787c-2.364 0-10.049-0.82267-10.049-11.205 0-11.9-0.38267-89.441-0.38267-90.212v-0.58934h28.271v71.964c0.024 0.20533 0.28133 5.42 5.396 5.42h33.695l0.10266 0.43733c0.0253 0.23067 5.012 22.952 13.312 22.952"/>
  <path d="m353 493.51c0 15.112-0.23334 84.865-0.23334 85.559v0.56533h-28.321l0.0773-63.816-33.565 61.683c-0.0773 0.13066-1.6187 2.52-3.624 2.52-1.1827 0-1.8253-0.952-3.084-2.8013-2.1333-3.804-27.5-49.013-33.104-58.984v60.705l-29.221 0.25733 0.54-87.537c0-0.128 0.17867-14.572 12.799-14.572h12.824c0.92666 0 4.2427 0.384 7.2493 5.4493 1.876 2.9787 29.453 45.257 29.736 45.668 0.64133 1.132 1.644 2.3653 2.1067 2.3653 0.48933 0 1.9027-1.2333 2.9293-2.3653l28.401-45.565c0.10134-0.20667 2.98-5.296 7.4267-5.4253h15.395c0.12934 0 11.669 0.61866 11.669 16.295"/>
  <path d="m611.5 555.37c-6.6827 0-21.024-0.18133-21.151-0.18133h-0.36267c-0.89866 0-3.236-0.152-5.3693-1.7453-2.776-2.056-4.164-5.656-4.164-10.693 0-15.575 0.71867-32.127 0.744-32.356 0-0.0253-0.23067-4.036 2.4693-6.9147 1.9013-2.0307 4.7813-3.0573 8.5573-3.0573l22.875 0.076c0.43733 0 10.899 0.41067 10.899 12.104 0 12.261-0.82267 30.175-0.82267 30.353l-0.0267 0.052 0.0267 0.0773c0 0.0253 0.744 4.6787-2.2373 8.2-2.2867 2.724-6.14 4.0853-11.437 4.0853m12.953-77.951h-43.511c-7.3773 0-28.375 5.268-28.375 28.707v42.407c0.0253 0.30933 2.88 31.304 25.161 31.304 35.571 0 49.244-0.668 49.451-0.668 0.25467-0.0493 26.727-4.472 26.727-31.92v-40.736c-0.0267-0.28267-3.032-29.093-29.453-29.093"/>
  <path d="m146.44 536.09 10.28-29.684 9.7667 29.735zm66.412 42.483c-1.492-3.752-36.496-91.751-39.22-96.788-2.468-4.5253-7.4013-4.8587-8.8667-4.8587h-16.012c-8.7133 0-9.7147 5.3987-9.8173 6.2187l-36.779 96.712 30.532-0.30534 6.94-21.461c3.7267 0.0253 31.151 0.128 34.903 0.128 3.6227 10.847 6.3733 20.613 6.3987 20.716l0.12934 0.43733h32.127z"/>
  <path d="m520.63 427.4c-1.156 8e-3 -1.8173 8e-3 -1.8173 8e-3s0.65334 5e-3 1.8173-8e-3"/>
  <path d="m709.59 182.75s1.2813-40.92-3.3747-67.124c-5.5-30.929-21.399-57.94-27.055-65.157-5.052-6.448-16.816-25.901-54.021-38.12-29.172-9.5827-64.513-9.604-93.688-10.617-29.173-1.0107-154.02-1.728-154.02-1.728s-88.437 0.556-125 2.3973c-58.02 2.8427-72.565 4.0507-98.763 15.144-26.196 11.093-44.141 37.399-49.915 58.785-5.7733 21.387-3.884 57.533-3.884 57.533l1.192 151.78s-0.91867 23.628 2.04 48.111c4.1253 31.648 9.6413 45.721 15.213 54.171 4.4293 6.724 14 20.243 31.813 28.761 12.873 6.1547 51.383 7.0747 70.169 7.1453 31.444 1.248 117.88 4.556 140.56 4.6107 40.841 0.1 78.175-0.41333 108.64-1.12 19.08 0.016 45.125-0.0187 62.057-0.27067-4.904 0.26134-8.7947 0.336-10.928 0.35734 6.04-0.0333 25.797-0.23067 38.229-1.4187 14.813-1.4173 35.707-9.0693 46.753-17.755 11.044-8.6813 21.403-20.393 32.487-41.451 7.8027-14.82 10.297-56.276 10.297-56.276l0.32533-60.827s-0.74267-32.304-4.4533-48.44c-3.708-16.133-10.12-29.433-25.143-45.819-13.393-14.599-33.157-21.124-50.485-24.181-17.331-3.052-68.96-2.4-68.96-2.4l-128.06-0.848-87.763 1.716s-21.261-0.22-37.367 1.572-22.244 7.5373-26.581 10.823c-4.3373 3.288-12.424 10.132-15.675 21.325-3.4987 12.048-2.724 40.849-2.724 40.849s1.4267 49.087 1.668 56.16c0.24133 7.0733 4.2507 6.2947 4.2507 6.2947s28.353 3.3813 29.588 3.228c1.2333-0.156 0.46266 1.0787 0.98133-0.0853 0.06-0.13067 0.12667-0.28133 0.19867-0.44133 0.112 0.0147 0.188 0.024 0.188 0.024s6.42-16.924 26.119-18.08c19.7-1.1547 236.79-4.4733 254.54-4.8573 17.752-0.384 21.792 5.06 23.755 9.2987 1.9693 4.2427 2.652 18.604 2.652 18.604l-0.3 26.089s-2.6587 14.904-10.068 20.596c-6.1507 4.7213-6.112 6.5053-19.624 6.9773-13.511 0.472-263.09-2.1987-263.09-2.1987s-28.211 0.91733-40.201-14.341c-11.988-15.255-23.197-24.305-23.641-65.113-0.076-28.129 0.20534-94.465 0.20534-94.465s-1.3013-30.52 19.832-50.409c17.467-16.671 56.025-14.487 56.025-14.487s91.843 0 123.53-0.82267c31.691-0.82267 189.83 3.804 197.87 4.2027 8.044 0.39733 25.469 1.2453 46.839 23.607 7.3907 7.9667 19.573 28.427 22.424 47.084 2.8547 18.66 6.4893 85.404 6.4893 85.404s8e-3 0.27066 0.0187 0.788c0.15866 7.7387 1.2347 70.389-4.812 94.087-6.4507 25.276-13.773 45.721-32.188 63.804-4.1227 4.2067-8.148 8.3907-8.148 8.3907s-0.0467 0.084-0.112 0.22533v-0.0147c-3e-3 0.0107-5e-3 0.02-8e-3 0.0307-0.31467 0.676-1.0907 2.6213-0.0107 3.5387 0.0493 0.04 0.12533 0.1 0.19333 0.15466 2.2547 5.2387 12.247 8.7827 13.107 9.056 1.0547 0.33334 11.123-1.264 18.284-5.8427 29.276-19.176 36.443-28.984 46.724-54.509 14.971-31.536 15.375-71.095 15.375-76.812 0-5.72-0.56534-106.69-0.56534-106.69"/>
 </g>
</svg>
