<?xml version="1.0" encoding="UTF-8"?>
<svg width="360" height="240" version="1.1" viewBox="0 0 662.45 398.8" xml:space="preserve" xmlns="http://www.w3.org/2000/svg"><g transform="matrix(1.3333 0 0 -1.3333 0 398.8)"><g transform="scale(.1)"><g fill="none" stroke-miterlimit="3.8637" stroke-width="69.593"><path d="m29.984 2497.4c132.75 225.41 369 394.51 650.61 444.16 520.14 91.72 1016.1-255.59 1107.9-775.73 8.37-47.42 13.08-94.64 14.34-141.38" stroke="#67218d"/><path d="m1331.5 2674.5s-654.12 485.97-1207.7-280.94" stroke="#ffef00"/><path d="m498.38 2363.1c98.813 115.72 251.23 188.72 417.57 188.72 307.23 0 556.29-249.06 556.29-556.28 0-307.23-249.06-556.29-556.29-556.29-307.23 0-556.28 249.06-556.28 556.29 0 56.89 7.903 111.78 23.27 163.47h923.28" stroke="#67218d"/><path d="m169.02 2136.6c51.156 197.89 192.17 375.78 393 473.72 370.91 180.91 818.24 26.88 999.15-344.03 42.7-87.56 66.75-179.38 73.68-270.95" stroke="#f58113"/></g><g fill="#7b7678"><path d="m2081.9 1708c-103.8 0-190.82-33.51-261.06-100.5-67.03-63.73-105.02-143.01-113.98-237.77h726.79c0 93.95-29.42 172.39-88.25 235.32-64.57 68.63-152.4 102.95-263.5 102.95zm565.01-507.41h-946.19c0-153.62 42.06-271.7 126.24-354.2 74.34-71.934 169.94-107.86 286.8-107.86 133.17 0 244.28 38.8 333.37 116.43l98.05-167.91c-35.96-35.953-91.12-67.023-165.46-93.141-93.15-34.32-196.94-51.472-311.31-51.472-165.07 0-305.18 55.953-420.39 167.91-128.3 123.36-192.42 289.2-192.42 497.59 0 216.52 65.76 390.14 197.33 520.9 117.66 116.81 256.96 175.22 417.93 175.26 187.1 0 333.75-52.7 440-158.11 102.95-101.34 154.43-235.74 154.43-403.22 0-51.48-6.13-98.9-18.38-142.18" fill-rule="evenodd"/><path d="m3049.8 1226.4c0-329.3 116.42-493.92 349.29-493.92 108.67 0 193.62 44.118 254.94 132.36 62.07 88.25 93.11 208.74 93.15 361.56 0 325.17-116.06 487.76-348.09 487.8-106.23 0-191.19-43.32-254.92-129.92-62.93-86.63-94.37-205.91-94.37-357.88zm-245.14 0c0 202.61 54.31 366.04 163.01 490.25 109.47 125.01 253.28 187.52 431.42 187.52 187.91 0 333.75-60.05 437.54-180.17 103.77-119.3 155.63-285.19 155.67-497.6 0-211.65-53.13-378.72-159.34-501.28-106.25-121.76-250.86-182.58-433.87-182.61-187.13 0-332.99 61.66-437.54 185.06-104.61 123.37-156.89 289.63-156.89 498.83" fill-rule="evenodd"/><path d="m4111.7 645.41 82.11 220.62c129.92-84.992 234.47-127.47 313.77-127.47 143.77 0 215.66 60.441 215.7 181.4 0 86.599-69.47 160.93-208.36 223.06-107.05 49.03-179.35 86.17-216.93 111.53-36.76 25.32-69.07 53.89-96.82 85.8-26.97 32.66-47.42 66.98-61.29 102.95-13.08 36.76-19.61 75.99-19.61 117.66 0 107.85 39.22 192 117.66 252.47 78.44 60.44 180.98 90.66 307.64 90.7 95.6 0 216.09-30.26 361.56-90.7l-66.19-215.71c-92.35 73.54-185.08 110.31-278.21 110.31-55.58 0-102.57-13.1-140.95-39.22-37.62-26.16-56.39-59.25-56.39-99.27 0-84.19 47.81-147.92 143.4-191.21l166.7-75.98c102.11-46.57 176.44-99.7 223.04-159.33 46.59-59.68 69.87-134.43 69.87-224.29 0-117.66-41.29-210-123.79-276.99-82.52-66.187-196.94-99.269-343.17-99.269-138.12 0-268.02 34.312-389.74 102.94"/></g><g transform="scale(10)"><text transform="matrix(1 0 0 -1 163.24 7.7141)" fill="#67218d" font-family="'Trebuchet MS'" font-size="28.621px" font-weight="bold"><tspan x="0 16.700197 36.097694 55.202194 73.593269 91.718796 109.23048 117.1963 135.3213 143.94435 160.22563 180.34962 194.98143 203.60448 221.08688 241.21188 262.53809 280.66406 299.76758 307.7334" y="0">FUNDATIA EOS ROMANIA</tspan></text></g></g></g></svg>
