<?xml version="1.0" encoding="UTF-8"?>
<svg width="240" height="240" version="1.1" viewBox="0 0 240 240" xmlns="http://www.w3.org/2000/svg">
 <g>
  <path d="m240 120c0 66.274-53.726 120-120 120-66.274 0-120-53.726-120-120s53.726-120 120-120c66.274 0 120 53.726 120 120" fill="#0282b5"/>
  <path d="m222.27 120c0 56.482-45.788 102.27-102.27 102.27-56.483 0-102.27-45.788-102.27-102.27 0-56.482 45.788-102.27 102.27-102.27 56.482 0 102.27 45.788 102.27 102.27" fill="#fff"/>
  <path d="m175.97 72.816v82.477h-50.467v-8.2477l26.705-23.565 4.9104-50.664z" fill="#0478a7"/>
  <path d="m167.23 72.816v77.316h-41.733v-3.0871l26.705-23.565 4.9104-50.664z" fill="#0282b5"/>
 </g>
 <path d="m157.11 72.818h18.852v82.477h-50.468v-8.2474l26.707-23.565z" fill="none" stroke="#474f69" stroke-linecap="round" stroke-linejoin="round" stroke-miterlimit="10" stroke-width="1.7824"/>
 <path d="m109.4 97.315v45.804h-45.362s0-2.1855 0.34186-5.6936c1.2573-12.987 7.1751-44.116 35.005-49.683 0 0 0.5864 5.34 5.0284 8.0588 1.3018 0.79814 2.9366 1.3699 4.9867 1.5139" fill="#e6d558"/>
 <path d="m104.41 95.801v41.624h-40.034c1.2576-12.987 7.1751-44.116 35.006-49.683 0 0 0.58604 5.34 5.0281 8.0588" fill="#f6e621"/>
 <path d="m99.381 87.742s0.98172 8.9343 10.015 9.5727v45.805h-45.362s0-48.308 35.347-55.377z" fill="none" stroke="#474f69" stroke-linecap="round" stroke-linejoin="round" stroke-miterlimit="10" stroke-width="1.7824"/>
 <path d="m109.41 143.12c-0.94537 4.8366-4.1415 8.3953-7.9412 8.3953h-6.5014v4.4181h-16.495v-4.4181h-6.5006c-0.59816 0-1.1846-0.0884-1.7471-0.25952-0.3358-0.097-0.66268-0.22671-0.98066-0.38-2.5363-1.2341-4.5037-4.1354-5.2109-7.7558z" fill="#3c547a"/>
 <path d="m101.02 143.12c-1.0901 4.5069-4.1711 7.7558-7.8 7.7558h-6.501v4.4185h-8.2477v-3.779h-6.5006c-0.59816 0-1.1842-0.0884-1.7471-0.25952v-0.38h-0.9803c-2.5367-1.2341-4.504-4.1354-5.2113-7.7558z" fill="#425c84"/>
 <path d="m64.034 143.12c0.94394 4.8356 4.1397 8.395 7.9394 8.395h6.501v4.4181h16.495v-4.4181h6.5014c3.7993 0 6.9951-3.5594 7.939-8.395z" fill="none" stroke="#474f69" stroke-linecap="round" stroke-linejoin="round" stroke-miterlimit="10" stroke-width="1.7824"/>
 <path d="m138.7 121.42v13.566" fill="none" stroke="#474f69" stroke-linecap="round" stroke-linejoin="round" stroke-miterlimit="10" stroke-width="1.7824"/>
 <path d="m141.23 119.19c0 1.3967-1.1322 2.5285-2.5285 2.5285-1.3963 0-2.5281-1.1318-2.5281-2.5285 0-1.3963 1.1318-2.5285 2.5281-2.5285 1.3963 0 2.5285 1.1322 2.5285 2.5285" fill="#f5835b"/>
 <path d="m141.23 119.19c0 1.3967-1.1322 2.5285-2.5285 2.5285-1.3963 0-2.5281-1.1318-2.5281-2.5285 0-1.3963 1.1318-2.5285 2.5281-2.5285 1.3963 0 2.5285 1.1322 2.5285 2.5285z" fill="none" stroke="#474f69" stroke-linecap="round" stroke-linejoin="round" stroke-miterlimit="10" stroke-width="1.7824"/>
 <path d="m141.5 71.393c0 0.31227-9e-3 0.62454-0.0235 0.93396h-40.502c-0.0146-0.30942-0.0264-0.62169-0.0264-0.93396 0-9.9292 7.1341-18.189 16.557-19.933 1.2045-0.22422 2.4508-0.34186 3.7202-0.34186 11.196 0 20.275 9.0755 20.275 20.274" fill="#9ba1a9"/>
 <path d="m134.07 71.393c0 0.31227-9e-3 0.62454-0.0235 0.93396h-33.064c-0.0146-0.30942-0.0264-0.62169-0.0264-0.93396 0-9.9292 7.1337-18.189 16.557-19.933 9.4227 1.7439 16.557 10.003 16.557 19.933" fill="#a7adb5"/>
 <path d="m141.48 72.326c0.0139-0.30942 0.0235-0.61991 0.0235-0.93253 0-11.198-9.0772-20.275-20.276-20.275-11.198 0-20.275 9.0776-20.275 20.275 0 0.31263 9e-3 0.62312 0.0235 0.93253z" fill="none" stroke="#474f69" stroke-linecap="round" stroke-linejoin="round" stroke-miterlimit="10" stroke-width="1.7824"/>
 <path d="m144.15 72.719c0 0.75929-0.61563 1.3746-1.3749 1.3746h-43.202c-0.75929 0-1.3746-0.61527-1.3746-1.3746s0.61527-1.3746 1.3746-1.3746h43.202c0.75929 0 1.3749 0.61527 1.3749 1.3746" fill="#a7adb5"/>
 <path d="m144.15 72.719c0 0.75929-0.61563 1.3746-1.3749 1.3746h-43.202c-0.75929 0-1.3746-0.61527-1.3746-1.3746s0.61527-1.3746 1.3746-1.3746h43.202c0.75929 0 1.3749 0.61527 1.3749 1.3746z" fill="none" stroke="#474f69" stroke-linecap="round" stroke-linejoin="round" stroke-miterlimit="10" stroke-width="1.7824"/>
 <path d="m139.44 86.563s-3.8795 11.488-18.949 11.488c-6.3213 0-12.584-4.0388-16.172-12.858-1.879-0.11193-3.3694-1.6644-3.3694-3.5701 0-1.0341 0.43918-1.9617 1.14-2.6158 0.0941-0.0884 0.19142-0.17075 0.2948-0.24775-0.30942-1.4665-0.56002-3.019-0.74539-4.6655h36.917l0.68942 9.0519 0.0973 1.2576h2.6511s0.19427 3.1402-2.5538 2.1592" fill="#e8ac9f"/>
 <path d="m139.25 83.147c-2.2002 3.6143-7.635 9.7795-19.073 9.7795-6.7894 0-13.511-4.3361-17.364-13.806-0.24739-0.01461-0.48587-0.05311-0.71865-0.11193 0.0941-0.08841 0.19143-0.17075 0.2948-0.24775-0.30942-1.4665-0.56002-3.019-0.74538-4.6655h36.917z" fill="#f9b8aa"/>
 <path d="m139.44 86.563s-3.8795 11.488-18.949 11.488c-6.3213 0-12.584-4.0388-16.172-12.858-1.879-0.11193-3.3694-1.6644-3.3694-3.5701 0-1.1728 0.56537-2.2094 1.4348-2.8636-0.30942-1.4665-0.56002-3.019-0.74539-4.6655h36.917l0.78673 10.31h2.6511s0.19427 3.1402-2.5538 2.1592z" fill="none" stroke="#474f69" stroke-linecap="round" stroke-linejoin="round" stroke-miterlimit="10" stroke-width="1.7824"/>
 <path d="m113.38 74.095-5.4612 9.6201s-1.5524-5.7881-5.5375-4.9546c-0.30978-1.4665-0.56002-3.0193-0.74539-4.6655z" fill="#fff162"/>
 <g stroke="#474f69" stroke-linecap="round" stroke-linejoin="round" stroke-miterlimit="10" stroke-width="1.7824">
  <path d="m113.38 74.095-5.4612 9.6201s-1.5524-5.7881-5.5375-4.9546c-0.30978-1.4665-0.56002-3.0193-0.74539-4.6655z" fill="none"/>
  <path d="m142 82.93h-3.2389v-6.8728h3.2389z" fill="#67bfce"/>
  <path d="m138.76 77.825h-36.635" fill="none"/>
 </g>
 <path d="m123.48 86.459c-0.72792 2.2586 0.38107 4.7357 2.6108 5.6676 2.2294 0.93218 4.7714-0.01889 5.8676-2.1239z" fill="#fff"/>
 <path d="m123.48 86.459c-0.72792 2.2586 0.38107 4.7357 2.6108 5.6676 2.2294 0.93218 4.7714-0.01889 5.8676-2.1239z" fill="none" stroke="#474f69" stroke-linecap="round" stroke-linejoin="round" stroke-miterlimit="10" stroke-width="1.7824"/>
 <path d="m111.47 94.994-2.0736 2.321c-4.9814-0.35326-7.5116-3.2254-8.781-5.7321-1.0366-2.0415-1.2341-3.841-1.2341-3.841l4.7069-1.4787 0.60672-0.19143c0.53934 1.2195 1.1343 2.3417 1.7734 3.3697 0.6773 1.084 1.4049 2.0618 2.1766 2.9366 0.8894 1.0102 1.8351 1.8822 2.825 2.6158" fill="#e8ac9f"/>
 <path d="m108.64 92.378-1.6056 1.7966c-2.8867-0.20283-4.9511-1.2544-6.424-2.5919-1.037-2.0415-1.2341-3.841-1.2341-3.841l4.7069-1.4787c0.73647 1.1871 1.5346 2.2447 2.3802 3.1783 0.6773 1.084 1.4049 2.0618 2.1766 2.9366" fill="#f9b8aa"/>
 <g fill="none" stroke="#474f69" stroke-linecap="round" stroke-linejoin="round" stroke-miterlimit="10" stroke-width="1.7824">
  <path d="m111.47 94.994-2.0736 2.321c-9.0345-0.63916-10.015-9.5731-10.015-9.5731l5.3136-1.6701c1.7734 4.006 4.124 6.9544 6.7751 8.9222z"/>
  <path d="m94.969 151.51v-3.3876"/>
  <path d="m78.474 151.51v-3.3876"/>
 </g>
 <path d="m143.09 63.023c0.55966 1.4116-0.13047 3.0093-1.5421 3.5694l-2.1912 0.86873c-1.4113 0.56002-3.009-0.13047-3.5686-1.5421-0.56002-1.4113 0.13082-3.0093 1.5421-3.569l2.1909-0.86872c1.4113-0.56002 3.0094 0.13047 3.569 1.5417" fill="#a7adb5"/>
 <path d="m143.09 63.023c0.55966 1.4116-0.13047 3.0093-1.5421 3.5694l-2.1912 0.86873c-1.4113 0.56002-3.009-0.13047-3.5686-1.5421-0.56002-1.4113 0.13082-3.0093 1.5421-3.569l2.1909-0.86872c1.4113-0.56002 3.0094 0.13047 3.569 1.5417z" fill="none" stroke="#474f69" stroke-linecap="round" stroke-linejoin="round" stroke-miterlimit="10" stroke-width="1.7824"/>
 <path d="m121.47 58.875v-20.816" fill="none" stroke="#474f69" stroke-linecap="round" stroke-linejoin="round" stroke-miterlimit="10" stroke-width="1.7824"/>
 <path d="m124.52 39.237c0 1.6811-1.3624 3.0436-3.0436 3.0436s-3.0436-1.3624-3.0436-3.0436c0-1.6808 1.3624-3.0436 3.0436-3.0436s3.0436 1.3628 3.0436 3.0436" fill="#fff162"/>
 <path d="m124.52 39.237c0 1.6811-1.3624 3.0436-3.0436 3.0436s-3.0436-1.3624-3.0436-3.0436c0-1.6808 1.3624-3.0436 3.0436-3.0436s3.0436 1.3628 3.0436 3.0436" fill="#f6e621"/>
 <path d="m124.52 39.237c0 1.6811-1.3624 3.0436-3.0436 3.0436s-3.0436-1.3624-3.0436-3.0436c0-1.6808 1.3624-3.0436 3.0436-3.0436s3.0436 1.3628 3.0436 3.0436z" fill="none" stroke="#474f69" stroke-linecap="round" stroke-linejoin="round" stroke-miterlimit="10" stroke-width="1.7824"/>
 <path d="m136 124.12v-2.2091h-3.2899v3.486c-18.856-1.2965-33.141-11.828-38.74-16.634-1.0498-0.90045-2.6301-0.78032-3.5309 0.26949-0.90081 1.0491-0.77996 2.6301 0.26914 3.5305 6.0333 5.1781 21.491 16.555 42.002 17.851v2.8368h10.703v-9.1311z" fill="#f9b8aa"/>
 <path d="m136 124.12v-2.2091h-3.2899v3.486c-18.856-1.2965-33.141-11.828-38.74-16.634-1.0498-0.90045-2.6301-0.78032-3.5309 0.26949-0.90081 1.0491-0.77996 2.6301 0.26914 3.5305 6.0333 5.1781 21.491 16.555 42.002 17.851v2.8368h10.703v-9.1311z" fill="none" stroke="#474f69" stroke-linecap="round" stroke-linejoin="round" stroke-miterlimit="10" stroke-width="1.7824"/>
 <path d="m104.41 109.7-7.6585 11.532-2.3948-1.5877-4.0271-2.6746c-3.184-2.1153-4.0499-6.4098-1.9349-9.597 0.683-1.0309 1.5966-1.8205 2.6272-2.3388 2.1506-1.0926 4.8131-1.0281 6.9662 0.40353z" fill="#e6d558"/>
 <path d="m100.49 110.41-6.1324 9.2344-4.0271-2.6746c-3.184-2.115-4.0499-6.4094-1.9349-9.5966 0.683-1.0309 1.5966-1.8205 2.6272-2.3388 1.0544 0.11764 2.1003 0.48302 3.0457 1.1104z" fill="#fff162"/>
 <path d="m104.41 109.7-6.4212-4.2634c-3.1844-2.115-7.481-1.247-9.5959 1.9381-2.1142 3.1844-1.2469 7.481 1.9381 9.5956l6.4212 4.2631z" fill="none" stroke="#474f69" stroke-linecap="round" stroke-linejoin="round" stroke-miterlimit="10" stroke-width="1.7824"/>
 <g fill="#0282b5">
  <path d="m84.874 177.61-2.8037 15.849c-0.09268 0.51012-0.57927 0.92719-1.089 0.92719h-2.1781c-0.55646 0-1.0427 0-1.2744-0.83415l-3.3134-11.285c-0.0467-0.13903-0.09304-0.18537-0.1622-0.18537-0.06987 0-0.13938 0.0463-0.16255 0.18537l-2.039 11.656c-0.04634 0.25487-0.27841 0.46341-0.53293 0.46341h-1.9699c-0.20854 0-0.37073-0.18536-0.37073-0.3939v-0.0695l2.7808-15.826c0.09268-0.50976 0.57927-0.92683 1.089-0.92683h2.3402c0.48659 0 0.69512 0.13902 0.88085 0.74146l3.4756 11.91c0.02317 0.11586 0.06951 0.18537 0.13867 0.18537 0.04634 0 0.13938-0.0695 0.16255-0.20854l2.1549-12.188c0.04634-0.25488 0.25488-0.44024 0.50976-0.44024h1.9927c0.23171 0 0.37073 0.16219 0.37073 0.37073z"/>
  <path d="m92.196 183.8c-1.8537 0-2.711 1.2512-3.0126 2.9427h4.9126c0.04634-0.30122 0.09268-0.57927 0.09268-0.88049 0-1.3439-0.71865-2.0622-1.9927-2.0622m4.889 3.4293-0.18537 1.1122c-0.06951 0.37073-0.23171 0.57927-0.5561 0.57927h-7.554c-0.04634 0.32439-0.11585 0.62597-0.11585 0.95036 0 1.2512 0.64878 2.0854 2.3634 2.0854 1.6915 0 3.2902-0.1622 4.2869-0.25488h0.09268c0.18537 0 0.34756 0.0463 0.34756 0.25488v0.0927l-0.27841 1.5293c-0.06916 0.37073-0.13867 0.53293-0.57927 0.60244-1.5521 0.27805-2.5716 0.39391-4.6573 0.39391-2.0622 0-4.5646-1.1585-4.5646-4.6573 0-0.41707 0.02317-0.90402 0.11585-1.3906l0.25452-1.4366c0.76499-4.3329 3.0589-5.9317 6.6044-5.9317 3.0817 0 4.5415 2.039 4.5415 4.75 0 0.41707-0.04634 0.88049-0.11585 1.3207"/>
  <path d="m107.42 181.62-0.30122 1.6683c-0.0463 0.25523-0.27805 0.46341-0.53293 0.46341-0.74146 0-1.761 0.0463-3.3366 0.83415l-1.6451 9.315c-0.0464 0.25523-0.30122 0.48658-0.5561 0.48658h-2.1317c-0.23206 0-0.37109-0.18536-0.37109-0.3939v-0.0927l2.1321-12.119c0.0463-0.25488 0.27769-0.46342 0.53257-0.46342h2.0158c0.23207 0 0.39426 0.1622 0.39426 0.3939v0.0695l-0.0927 0.48658c1.3207-1.0195 2.5488-1.1122 3.522-1.1122 0.23171 0 0.37073 0.1622 0.37073 0.37074z"/>
  <path d="m114.11 183.66c-1.993 0-2.711 1.0659-3.0821 3.3134l-0.30086 1.7845c-0.093 0.55609-0.13938 1.0195-0.13938 1.4366 0 1.2744 0.53292 1.8768 2.0394 1.8768 0.83415 0 1.7842-0.0695 2.2476-0.1622l1.4134-8.087c-0.62561-0.0927-1.622-0.1622-2.178-0.1622m6.4187-6.4418-2.85 16.128c-0.0699 0.34756-0.18573 0.48659-0.74147 0.62561-1.5065 0.37073-3.2674 0.60244-4.7507 0.60244-3.2207 0-4.6342-1.9927-4.6342-4.5418 0-0.41672 0.0463-0.83379 0.11585-1.274l0.30122-1.7845c0.69548-4.1939 2.8504-5.8159 6.5808-5.8159 0.5561 0 1.3439 0.0463 2.1781 0.16219l0.74146-4.1016c0.0467-0.25488 0.27805-0.46342 0.53293-0.46342h2.1317c0.23206 0 0.39426 0.1622 0.39426 0.39391z"/>
  <path d="m133.39 181.85-4.7735 10.543c-0.76427 1.7146-2.085 2.1784-3.2671 2.1784-1.1817 0-2.3402-0.46378-2.5024-2.1784l-1.0655-10.543v-0.0463c0-0.27805 0.20854-0.48659 0.43989-0.48659h2.2244c0.20853 0 0.37073 0.1622 0.39426 0.46342l0.5094 9.7089c0.0235 0.44024 0.16219 0.57962 0.34791 0.57962 0.18501 0 0.34757-0.13938 0.53293-0.57962l3.939-9.7089c0.11586-0.30122 0.34756-0.46342 0.5561-0.46342h2.4098c0.18572 0 0.30122 0.11586 0.30122 0.30122 0 0.0695 0 0.13903-0.0463 0.23171"/>
  <path d="m140.11 183.66c-1.9927 0-2.757 1.4134-3.0817 3.3134l-0.41672 2.387c-0.0699 0.34756-0.093 0.67159-0.093 0.95 0 1.3207 0.69512 1.761 1.5988 1.761 0.88085 0 1.8537-0.37074 2.8964-0.97318l1.2744-7.276c-0.41707-0.0927-1.3436-0.1622-2.178-0.1622m5.4918-1.2744-2.0159 11.539c-0.0463 0.25488-0.30122 0.46341-0.55645 0.46341h-1.8537c-0.25488 0-0.37074-0.16219-0.37074-0.3939v-0.0695l0.093-0.67195c-1.2979 0.99634-2.4565 1.3207-3.5918 1.3207-2.1317 0-3.8-1.4366-3.8-4.1939 0-0.41707 0.0232-0.92719 0.11585-1.3902 0 0 0.18537-1.1585 0.34721-2.0162 0.64914-3.6146 2.8507-5.8159 6.5808-5.8159 1.4833 0 3.1748 0.2317 4.5418 0.60244 0.34756 0.0927 0.53293 0.16219 0.53293 0.44024 0 0.0695 0 0.11586-0.0232 0.18537"/>
  <path d="m158.39 186.35-1.3207 7.5537c-0.0464 0.25524-0.30158 0.48694-0.55646 0.48694h-2.1317c-0.23171 0-0.3939-0.16219-0.3939-0.3939 0-0.0232 0.0232-0.0695 0.0232-0.093l1.3211-7.5537c0.0927-0.57927 0.16184-1.0195 0.16184-1.3902 0-0.90401-0.39355-1.2049-1.6683-1.2049-0.7878 0-1.6915 0.32404-2.7573 0.83415l-1.6451 9.3146c-0.0463 0.25524-0.30122 0.48694-0.55609 0.48694h-2.1317c-0.23207 0-0.39426-0.16219-0.39426-0.3939 0-0.0232 0.0235-0.0695 0.0235-0.093l2.1317-12.119c0.0463-0.25488 0.2777-0.46306 0.53258-0.46306h2.0162c0.23171 0 0.3939 0.18501 0.3939 0.39391v0.0692l-0.0927 0.48694c1.4829-0.85767 2.4793-1.1126 3.8464-1.1126 2.5256 0 3.3601 1.5065 3.3601 3.4756 0 0.53328-0.0463 1.1126-0.1622 1.715"/>
  <path d="m166.83 183.66c-1.9927 0-2.757 1.4134-3.0817 3.3134l-0.41672 2.387c-0.0699 0.34756-0.093 0.67159-0.093 0.95 0 1.3207 0.69512 1.761 1.5988 1.761 0.88085 0 1.8537-0.37074 2.8964-0.97318l1.2744-7.276c-0.41707-0.0927-1.3436-0.1622-2.178-0.1622m5.4918-1.2744-2.0159 11.539c-0.0463 0.25488-0.30122 0.46341-0.55645 0.46341h-1.8537c-0.25488 0-0.37074-0.16219-0.37074-0.3939v-0.0695l0.093-0.67195c-1.2979 0.99634-2.4565 1.3207-3.5918 1.3207-2.1317 0-3.8-1.4366-3.8-4.1939 0-0.41707 0.0232-0.92719 0.11585-1.3902 0 0 0.18537-1.1585 0.34721-2.0162 0.64914-3.6146 2.8507-5.8159 6.5808-5.8159 1.4833 0 3.1748 0.2317 4.5418 0.60244 0.34756 0.0927 0.53293 0.16219 0.53293 0.44024 0 0.0695 0 0.11586-0.0232 0.18537"/>
 </g>
</svg>
