<?xml version="1.0" encoding="UTF-8"?>
<svg width="480" height="240" version="1.1" viewBox="0 0 408.83 65.5" xml:space="preserve" xmlns="http://www.w3.org/2000/svg">
<style type="text/css">
	.st0{fill:#F2617A;}
	.st1{fill:#003D4F;}
</style>
<g transform="translate(-399.84,-356.03)">
	<polygon class="st0" points="412.48 409.44 439.7 356.03 427.06 356.03 399.84 409.44"/>
	
		<path class="st1" d="m583.65 377.42-2.17 4.27h-0.13c-1.07-1.85-2.4-3.17-3.99-3.96-1.59-0.78-3.44-1.18-5.54-1.18-2.23 0-4.2 0.43-5.92 1.3s-3.15 2.04-4.31 3.5c-1.15 1.47-2.03 3.16-2.63 5.08s-0.9 3.91-0.9 5.98c0 2.19 0.26 4.26 0.77 6.23 0.52 1.96 1.33 3.68 2.45 5.14 1.11 1.47 2.54 2.62 4.27 3.47s3.8 1.27 6.2 1.27c1.94 0 3.79-0.4 5.54-1.21 1.76-0.81 3.11-2.05 4.06-3.75h0.12v4.21c0 4.97-2.35 7.87-6.98 7.87-4.56 0-7.14-2.03-8.46-3.64l-3.21 6.29s3.59 3.24 10.41 3.24c11.31 0 16.6-5.46 16.6-14.12v-29.98h-6.18zm-2.64 18.92c-0.31 1.05-0.77 1.99-1.39 2.82s-1.4 1.49-2.35 1.98c-0.95 0.5-2.04 0.74-3.28 0.74-1.36 0-2.5-0.29-3.41-0.87s-1.64-1.32-2.2-2.23-0.95-1.93-1.18-3.07-0.34-2.28-0.34-3.44c0-1.2 0.13-2.34 0.4-3.44 0.27-1.09 0.7-2.06 1.3-2.91s1.34-1.52 2.23-2.01c0.89-0.5 1.95-0.74 3.19-0.74 1.44 0 2.64 0.27 3.59 0.81s1.71 1.26 2.29 2.17 0.99 1.95 1.24 3.13 0.37 2.43 0.37 3.75c0 1.15-0.15 2.26-0.46 3.31z"/>
		<path class="st1" d="m466.39 365.21v16.66h0.19c1.11-1.86 2.54-3.21 4.27-4.06s3.43-1.27 5.08-1.27c2.35 0 4.28 0.32 5.79 0.96s2.69 1.53 3.56 2.66 1.47 2.52 1.83 4.15c0.35 1.63 0.53 3.44 0.53 5.42v19.7h-8.8v-18.09c0-2.64-0.41-4.61-1.24-5.92-0.83-1.3-2.29-1.95-4.4-1.95-2.4 0-4.13 0.71-5.2 2.14s-1.61 3.77-1.61 7.03v16.79h-8.8v-44.23h8.8z"/>
		<path class="st1" d="m491.31 386.49c0.78-2.08 1.9-3.86 3.34-5.33s3.18-2.6 5.2-3.41c2.02-0.8 4.29-1.21 6.81-1.21s4.8 0.4 6.85 1.21c2.04 0.81 3.79 1.94 5.23 3.41s2.56 3.24 3.34 5.33 1.18 4.41 1.18 6.97-0.39 4.87-1.18 6.94c-0.79 2.06-1.9 3.83-3.34 5.3-1.45 1.47-3.19 2.59-5.23 3.37s-4.32 1.18-6.85 1.18c-2.52 0-4.79-0.39-6.81-1.18-2.02-0.78-3.76-1.91-5.2-3.37-1.45-1.46-2.56-3.23-3.34-5.3-0.79-2.06-1.18-4.38-1.18-6.94s0.39-4.88 1.18-6.97zm7.99 10.72c0.25 1.22 0.67 2.31 1.27 3.28s1.39 1.74 2.38 2.32 2.23 0.87 3.72 0.87 2.74-0.29 3.75-0.87 1.82-1.35 2.42-2.32 1.02-2.07 1.27-3.28c0.25-1.22 0.37-2.47 0.37-3.75s-0.12-2.54-0.37-3.78-0.67-2.33-1.27-3.28-1.4-1.72-2.42-2.32c-1.01-0.6-2.26-0.9-3.75-0.9-1.48 0-2.72 0.3-3.72 0.9-0.99 0.6-1.79 1.37-2.38 2.32-0.6 0.95-1.02 2.04-1.27 3.28s-0.37 2.5-0.37 3.78 0.12 2.53 0.37 3.75z"/>
		<path class="st1" d="m547.27 409.44v-4.46h-0.19c-1.11 1.86-2.56 3.2-4.34 4.03-1.78 0.82-3.59 1.24-5.45 1.24-2.35 0-4.28-0.31-5.79-0.93s-2.69-1.5-3.56-2.63-1.48-2.52-1.83-4.15-0.53-3.44-0.53-5.42v-19.7h8.8v18.09c0 2.64 0.41 4.61 1.24 5.92 0.82 1.3 2.29 1.95 4.4 1.95 2.39 0 4.13-0.71 5.2-2.14 1.07-1.42 1.61-3.77 1.61-7.03v-16.79h8.8v32.02z"/>
		<path class="st1" d="m601.92 365.21v16.66h0.19c1.11-1.86 2.54-3.21 4.27-4.06s3.43-1.27 5.08-1.27c2.35 0 4.28 0.32 5.79 0.96s2.69 1.53 3.56 2.66 1.47 2.52 1.83 4.15c0.35 1.63 0.53 3.44 0.53 5.42v19.7h-8.8v-18.09c0-2.64-0.41-4.61-1.24-5.92-0.83-1.3-2.29-1.95-4.4-1.95-2.4 0-4.13 0.71-5.2 2.14s-1.61 3.77-1.61 7.03v16.79h-8.8v-44.23h8.8z"/>
		<path class="st1" d="m690.31 386.49c0.78-2.08 1.9-3.86 3.34-5.33s3.18-2.6 5.2-3.41c2.02-0.8 4.29-1.21 6.81-1.21s4.8 0.4 6.85 1.21c2.04 0.81 3.79 1.94 5.23 3.41 1.45 1.47 2.56 3.24 3.34 5.33s1.18 4.41 1.18 6.97-0.39 4.87-1.18 6.94c-0.78 2.06-1.9 3.83-3.34 5.3s-3.19 2.59-5.23 3.37-4.33 1.18-6.85 1.18-4.79-0.39-6.81-1.18c-2.02-0.78-3.76-1.91-5.2-3.37-1.45-1.46-2.56-3.23-3.34-5.3-0.78-2.06-1.18-4.38-1.18-6.94s0.39-4.88 1.18-6.97zm7.99 10.72c0.25 1.22 0.67 2.31 1.27 3.28s1.39 1.74 2.38 2.32 2.23 0.87 3.72 0.87 2.73-0.29 3.75-0.87c1.01-0.58 1.82-1.35 2.41-2.32 0.6-0.97 1.02-2.07 1.27-3.28 0.25-1.22 0.37-2.47 0.37-3.75s-0.13-2.54-0.37-3.78c-0.25-1.24-0.67-2.33-1.27-3.28s-1.4-1.72-2.41-2.32-2.26-0.9-3.75-0.9-2.72 0.3-3.72 0.9c-0.99 0.6-1.78 1.37-2.38 2.32s-1.02 2.04-1.27 3.28-0.37 2.5-0.37 3.78 0.12 2.53 0.37 3.75z"/>
		<path class="st1" d="m758.57 365.21v23.72l11.09-11.52h10.41l-12.08 11.77 13.44 20.26h-10.65l-8.8-14.31-3.41 3.28v11.03h-8.8v-44.23z"/>
		<path class="st1" d="m787.93 401.48c0.39 0.68 0.9 1.24 1.52 1.67s1.33 0.75 2.14 0.96 1.64 0.31 2.51 0.31c0.62 0 1.27-0.07 1.95-0.22 0.68-0.14 1.3-0.37 1.86-0.68s1.02-0.72 1.39-1.24c0.37-0.51 0.56-1.16 0.56-1.95 0-1.32-0.88-2.31-2.63-2.97-1.76-0.66-4.2-1.32-7.34-1.98-1.28-0.29-2.53-0.63-3.75-1.02s-2.3-0.91-3.25-1.55-1.71-1.44-2.29-2.41-0.87-2.16-0.87-3.56c0-2.07 0.4-3.76 1.21-5.08s1.87-2.36 3.19-3.13c1.32-0.76 2.81-1.3 4.46-1.61s3.34-0.46 5.08-0.46 3.42 0.17 5.05 0.5 3.09 0.89 4.37 1.67 2.34 1.83 3.19 3.13c0.84 1.3 1.35 2.94 1.52 4.92h-8.36c-0.12-1.69-0.76-2.84-1.92-3.44s-2.52-0.9-4.09-0.9c-0.49 0-1.03 0.03-1.61 0.09s-1.1 0.2-1.58 0.4c-0.47 0.21-0.88 0.51-1.21 0.9s-0.49 0.92-0.49 1.58c0 0.79 0.29 1.43 0.87 1.92 0.58 0.5 1.33 0.9 2.26 1.21s1.99 0.59 3.19 0.84 2.42 0.52 3.65 0.81c1.28 0.29 2.53 0.64 3.75 1.05s2.3 0.96 3.25 1.64 1.71 1.53 2.29 2.54 0.87 2.26 0.87 3.75c0 2.11-0.42 3.87-1.27 5.3s-1.95 2.57-3.31 3.44-2.92 1.48-4.68 1.83-3.54 0.53-5.36 0.53c-1.86 0-3.68-0.18-5.45-0.56-1.77-0.37-3.35-0.99-4.74-1.86s-2.52-2.01-3.41-3.44c-0.89-1.42-1.37-3.21-1.45-5.36h8.36c-0.02 0.94 0.17 1.75 0.57 2.43z"/>
		<path class="st1" d="m641.78 402.88c-1.49 0-2.48-0.25-2.97-0.74-0.49-0.5-0.74-1.49-0.74-2.97v-15.87h4.91l3-5.89h-7.9v-9.6h-8.8v9.6h-4.41l-2.99 5.87 7.4 0.01v18.89c0 1.61 0.27 2.91 0.8 3.9 0.54 0.99 1.27 1.75 2.2 2.29s2 0.9 3.22 1.08c1.22 0.19 2.51 0.28 3.87 0.28 0.87 0 1.75-0.02 2.66-0.06s1.74-0.12 2.48-0.25v-6.82c-0.41 0.08-0.85 0.15-1.3 0.19-0.46 0.07-0.94 0.09-1.43 0.09z"/>
		<path class="st1" d="m452.11 402.88c-1.49 0-2.48-0.25-2.97-0.74-0.49-0.5-0.74-1.49-0.74-2.97v-15.87h4.53l3-5.89h-7.52v-9.6h-8.8v9.6h-4.41l-2.99 5.87 7.4 0.01v18.89c0 1.61 0.27 2.91 0.8 3.9 0.54 0.99 1.27 1.75 2.2 2.29s2 0.9 3.22 1.08c1.22 0.19 2.51 0.28 3.87 0.28 0.87 0 1.75-0.02 2.66-0.06s1.74-0.12 2.48-0.25v-6.82c-0.41 0.08-0.85 0.15-1.3 0.19-0.46 0.07-0.94 0.09-1.43 0.09z"/>
		<path class="st1" d="m742.92 376.55c-7.4 0-10.22 6.81-10.22 6.81h-0.12v-5.95h-8.36v32.02h8.8v-13.43c0-7.81 1.52-11.28 8.16-11.28 1.37 0 2.5 0.31 3.44 0.82l3.77-7.4c-1.44-0.92-3.25-1.59-5.47-1.59z"/>
		<polygon class="st1" points="675.73 399.1 670.28 377.42 661.73 377.42 656.41 399.16 656.28 399.16 650.4 377.42 644.67 388.66 651.27 409.44 660.37 409.44 665.82 387.95 665.95 387.95 671.64 409.44 680.69 409.44 690.78 377.42 681.74 377.42 675.86 399.1"/>
	
</g>
</svg>
