<?xml version="1.0" encoding="UTF-8"?>
<svg width="480" height="240" version="1.1" viewBox="0 0 850.39 453.55" xml:space="preserve" xmlns="http://www.w3.org/2000/svg"><g transform="matrix(1.3333 0 0 -1.3333 0 453.55)"><g transform="scale(.1)"><path d="m3651.2 2545-95.22 0.01-351.2-563.22-351.19 563.22h-95.52l0.02-1694.4h95.5l351.19 563.21 351.2-563.21 96.21 0.02-1 1.39 0.01 1693" fill="#76ade1"/><path d="m2758.1 2545h-520.82l520.17-847.2-520.17-847.23h520.84l-0.02 1694.4" fill="#857e35"/><path d="m4172.3 2545h-521.12l-0.01-1693 1-1.39 520.08 0.078-520.11 847.13 520.16 847.19" fill="#649f3a"/><path d="m5044.8 1861.3c0-100.45-47-216.03-169.2-216.03h-702.58v479.32h657.91c157.44 0 213.87-65.39 213.87-179.83zm-129.93 683.65-742.49-0.01-520.16-847.19 520.11-847.13h0.22l-0.22 374.28h878.85c368.93 0 479.38 289.59 479.38 541.79v199.1c0 331.63-119.87 579.16-615.69 579.16" fill="#b3da22"/><path d="m2757.4 1697.8-520.17 847.2-0.23 0.01-0.05-1023.9-881.34 1023.9h-520.84v-1694.4l521.3 0.098-0.19 1023.8 881.35-1023.9 520.17 847.23" fill="#f9a81b"/></g></g></svg>
